%TF.GenerationSoftware,KiCad,Pcbnew,10.0.4*%
%TF.CreationDate,2026-07-17T00:00:58-07:00*%
%TF.ProjectId,default,64656661-756c-4742-9e6b-696361645f70,rev?*%
%TF.SameCoordinates,Original*%
%TF.FileFunction,Legend,Bot*%
%TF.FilePolarity,Positive*%
%FSLAX46Y46*%
G04 Gerber Fmt 4.6, Leading zero omitted, Abs format (unit mm)*
G04 Created by KiCad (PCBNEW 10.0.4) date 2026-07-17 00:00:58*
%MOMM*%
%LPD*%
G01*
G04 APERTURE LIST*
%ADD10C,0.280000*%
%ADD11C,0.160000*%
%ADD12C,0.240000*%
G04 APERTURE END LIST*
D10*
X200171428Y-54318154D02*
X201028571Y-54318154D01*
X201028571Y-54318154D02*
X201028571Y-52518154D01*
X199571428Y-54318154D02*
X199571428Y-52518154D01*
X197771428Y-52603868D02*
X197942857Y-52518154D01*
X197942857Y-52518154D02*
X198199999Y-52518154D01*
X198199999Y-52518154D02*
X198457142Y-52603868D01*
X198457142Y-52603868D02*
X198628571Y-52775297D01*
X198628571Y-52775297D02*
X198714285Y-52946725D01*
X198714285Y-52946725D02*
X198799999Y-53289582D01*
X198799999Y-53289582D02*
X198799999Y-53546725D01*
X198799999Y-53546725D02*
X198714285Y-53889582D01*
X198714285Y-53889582D02*
X198628571Y-54061011D01*
X198628571Y-54061011D02*
X198457142Y-54232440D01*
X198457142Y-54232440D02*
X198199999Y-54318154D01*
X198199999Y-54318154D02*
X198028571Y-54318154D01*
X198028571Y-54318154D02*
X197771428Y-54232440D01*
X197771428Y-54232440D02*
X197685714Y-54146725D01*
X197685714Y-54146725D02*
X197685714Y-53546725D01*
X197685714Y-53546725D02*
X198028571Y-53546725D01*
X196914285Y-54318154D02*
X196914285Y-52518154D01*
X196914285Y-53375297D02*
X195885714Y-53375297D01*
X195885714Y-54318154D02*
X195885714Y-52518154D01*
X195285714Y-52518154D02*
X194257143Y-52518154D01*
X194771428Y-54318154D02*
X194771428Y-52518154D01*
X193057142Y-53375297D02*
X192799999Y-53461011D01*
X192799999Y-53461011D02*
X192714285Y-53546725D01*
X192714285Y-53546725D02*
X192628571Y-53718154D01*
X192628571Y-53718154D02*
X192628571Y-53975297D01*
X192628571Y-53975297D02*
X192714285Y-54146725D01*
X192714285Y-54146725D02*
X192799999Y-54232440D01*
X192799999Y-54232440D02*
X192971428Y-54318154D01*
X192971428Y-54318154D02*
X193657142Y-54318154D01*
X193657142Y-54318154D02*
X193657142Y-52518154D01*
X193657142Y-52518154D02*
X193057142Y-52518154D01*
X193057142Y-52518154D02*
X192885714Y-52603868D01*
X192885714Y-52603868D02*
X192799999Y-52689582D01*
X192799999Y-52689582D02*
X192714285Y-52861011D01*
X192714285Y-52861011D02*
X192714285Y-53032440D01*
X192714285Y-53032440D02*
X192799999Y-53203868D01*
X192799999Y-53203868D02*
X192885714Y-53289582D01*
X192885714Y-53289582D02*
X193057142Y-53375297D01*
X193057142Y-53375297D02*
X193657142Y-53375297D01*
X191942856Y-53803868D02*
X191085714Y-53803868D01*
X192114285Y-54318154D02*
X191514285Y-52518154D01*
X191514285Y-52518154D02*
X190914285Y-54318154D01*
X189285714Y-54318154D02*
X189885714Y-53461011D01*
X190314285Y-54318154D02*
X190314285Y-52518154D01*
X190314285Y-52518154D02*
X189628571Y-52518154D01*
X189628571Y-52518154D02*
X189457142Y-52603868D01*
X189457142Y-52603868D02*
X189371428Y-52689582D01*
X189371428Y-52689582D02*
X189285714Y-52861011D01*
X189285714Y-52861011D02*
X189285714Y-53118154D01*
X189285714Y-53118154D02*
X189371428Y-53289582D01*
X189371428Y-53289582D02*
X189457142Y-53375297D01*
X189457142Y-53375297D02*
X189628571Y-53461011D01*
X189628571Y-53461011D02*
X190314285Y-53461011D01*
X187142856Y-54318154D02*
X187142856Y-52518154D01*
X187142856Y-52518154D02*
X186714285Y-52518154D01*
X186714285Y-52518154D02*
X186457142Y-52603868D01*
X186457142Y-52603868D02*
X186285713Y-52775297D01*
X186285713Y-52775297D02*
X186199999Y-52946725D01*
X186199999Y-52946725D02*
X186114285Y-53289582D01*
X186114285Y-53289582D02*
X186114285Y-53546725D01*
X186114285Y-53546725D02*
X186199999Y-53889582D01*
X186199999Y-53889582D02*
X186285713Y-54061011D01*
X186285713Y-54061011D02*
X186457142Y-54232440D01*
X186457142Y-54232440D02*
X186714285Y-54318154D01*
X186714285Y-54318154D02*
X187142856Y-54318154D01*
X184999999Y-52518154D02*
X184657142Y-52518154D01*
X184657142Y-52518154D02*
X184485713Y-52603868D01*
X184485713Y-52603868D02*
X184314285Y-52775297D01*
X184314285Y-52775297D02*
X184228570Y-53118154D01*
X184228570Y-53118154D02*
X184228570Y-53718154D01*
X184228570Y-53718154D02*
X184314285Y-54061011D01*
X184314285Y-54061011D02*
X184485713Y-54232440D01*
X184485713Y-54232440D02*
X184657142Y-54318154D01*
X184657142Y-54318154D02*
X184999999Y-54318154D01*
X184999999Y-54318154D02*
X185171428Y-54232440D01*
X185171428Y-54232440D02*
X185342856Y-54061011D01*
X185342856Y-54061011D02*
X185428570Y-53718154D01*
X185428570Y-53718154D02*
X185428570Y-53118154D01*
X185428570Y-53118154D02*
X185342856Y-52775297D01*
X185342856Y-52775297D02*
X185171428Y-52603868D01*
X185171428Y-52603868D02*
X184999999Y-52518154D01*
X182428571Y-54146725D02*
X182514285Y-54232440D01*
X182514285Y-54232440D02*
X182771428Y-54318154D01*
X182771428Y-54318154D02*
X182942856Y-54318154D01*
X182942856Y-54318154D02*
X183199999Y-54232440D01*
X183199999Y-54232440D02*
X183371428Y-54061011D01*
X183371428Y-54061011D02*
X183457142Y-53889582D01*
X183457142Y-53889582D02*
X183542856Y-53546725D01*
X183542856Y-53546725D02*
X183542856Y-53289582D01*
X183542856Y-53289582D02*
X183457142Y-52946725D01*
X183457142Y-52946725D02*
X183371428Y-52775297D01*
X183371428Y-52775297D02*
X183199999Y-52603868D01*
X183199999Y-52603868D02*
X182942856Y-52518154D01*
X182942856Y-52518154D02*
X182771428Y-52518154D01*
X182771428Y-52518154D02*
X182514285Y-52603868D01*
X182514285Y-52603868D02*
X182428571Y-52689582D01*
X181657142Y-54318154D02*
X181657142Y-52518154D01*
X180628571Y-54318154D02*
X181399999Y-53289582D01*
X180628571Y-52518154D02*
X181657142Y-53546725D01*
X177199999Y-52432440D02*
X178742856Y-54746725D01*
X175314285Y-52432440D02*
X176857142Y-54746725D01*
X173085713Y-53289582D02*
X173257142Y-53203868D01*
X173257142Y-53203868D02*
X173342856Y-53118154D01*
X173342856Y-53118154D02*
X173428570Y-52946725D01*
X173428570Y-52946725D02*
X173428570Y-52861011D01*
X173428570Y-52861011D02*
X173342856Y-52689582D01*
X173342856Y-52689582D02*
X173257142Y-52603868D01*
X173257142Y-52603868D02*
X173085713Y-52518154D01*
X173085713Y-52518154D02*
X172742856Y-52518154D01*
X172742856Y-52518154D02*
X172571428Y-52603868D01*
X172571428Y-52603868D02*
X172485713Y-52689582D01*
X172485713Y-52689582D02*
X172399999Y-52861011D01*
X172399999Y-52861011D02*
X172399999Y-52946725D01*
X172399999Y-52946725D02*
X172485713Y-53118154D01*
X172485713Y-53118154D02*
X172571428Y-53203868D01*
X172571428Y-53203868D02*
X172742856Y-53289582D01*
X172742856Y-53289582D02*
X173085713Y-53289582D01*
X173085713Y-53289582D02*
X173257142Y-53375297D01*
X173257142Y-53375297D02*
X173342856Y-53461011D01*
X173342856Y-53461011D02*
X173428570Y-53632440D01*
X173428570Y-53632440D02*
X173428570Y-53975297D01*
X173428570Y-53975297D02*
X173342856Y-54146725D01*
X173342856Y-54146725D02*
X173257142Y-54232440D01*
X173257142Y-54232440D02*
X173085713Y-54318154D01*
X173085713Y-54318154D02*
X172742856Y-54318154D01*
X172742856Y-54318154D02*
X172571428Y-54232440D01*
X172571428Y-54232440D02*
X172485713Y-54146725D01*
X172485713Y-54146725D02*
X172399999Y-53975297D01*
X172399999Y-53975297D02*
X172399999Y-53632440D01*
X172399999Y-53632440D02*
X172485713Y-53461011D01*
X172485713Y-53461011D02*
X172571428Y-53375297D01*
X172571428Y-53375297D02*
X172742856Y-53289582D01*
X171628570Y-53632440D02*
X170257142Y-53632440D01*
X169399999Y-54318154D02*
X169399999Y-52518154D01*
X169399999Y-52518154D02*
X168714285Y-52518154D01*
X168714285Y-52518154D02*
X168542856Y-52603868D01*
X168542856Y-52603868D02*
X168457142Y-52689582D01*
X168457142Y-52689582D02*
X168371428Y-52861011D01*
X168371428Y-52861011D02*
X168371428Y-53118154D01*
X168371428Y-53118154D02*
X168457142Y-53289582D01*
X168457142Y-53289582D02*
X168542856Y-53375297D01*
X168542856Y-53375297D02*
X168714285Y-53461011D01*
X168714285Y-53461011D02*
X169399999Y-53461011D01*
X167257142Y-52518154D02*
X166914285Y-52518154D01*
X166914285Y-52518154D02*
X166742856Y-52603868D01*
X166742856Y-52603868D02*
X166571428Y-52775297D01*
X166571428Y-52775297D02*
X166485713Y-53118154D01*
X166485713Y-53118154D02*
X166485713Y-53718154D01*
X166485713Y-53718154D02*
X166571428Y-54061011D01*
X166571428Y-54061011D02*
X166742856Y-54232440D01*
X166742856Y-54232440D02*
X166914285Y-54318154D01*
X166914285Y-54318154D02*
X167257142Y-54318154D01*
X167257142Y-54318154D02*
X167428571Y-54232440D01*
X167428571Y-54232440D02*
X167599999Y-54061011D01*
X167599999Y-54061011D02*
X167685713Y-53718154D01*
X167685713Y-53718154D02*
X167685713Y-53118154D01*
X167685713Y-53118154D02*
X167599999Y-52775297D01*
X167599999Y-52775297D02*
X167428571Y-52603868D01*
X167428571Y-52603868D02*
X167257142Y-52518154D01*
X164685714Y-54318154D02*
X165285714Y-53461011D01*
X165714285Y-54318154D02*
X165714285Y-52518154D01*
X165714285Y-52518154D02*
X165028571Y-52518154D01*
X165028571Y-52518154D02*
X164857142Y-52603868D01*
X164857142Y-52603868D02*
X164771428Y-52689582D01*
X164771428Y-52689582D02*
X164685714Y-52861011D01*
X164685714Y-52861011D02*
X164685714Y-53118154D01*
X164685714Y-53118154D02*
X164771428Y-53289582D01*
X164771428Y-53289582D02*
X164857142Y-53375297D01*
X164857142Y-53375297D02*
X165028571Y-53461011D01*
X165028571Y-53461011D02*
X165714285Y-53461011D01*
X164171428Y-52518154D02*
X163142857Y-52518154D01*
X163657142Y-54318154D02*
X163657142Y-52518154D01*
X161171427Y-52518154D02*
X161171427Y-53975297D01*
X161171427Y-53975297D02*
X161085713Y-54146725D01*
X161085713Y-54146725D02*
X160999999Y-54232440D01*
X160999999Y-54232440D02*
X160828570Y-54318154D01*
X160828570Y-54318154D02*
X160485713Y-54318154D01*
X160485713Y-54318154D02*
X160314284Y-54232440D01*
X160314284Y-54232440D02*
X160228570Y-54146725D01*
X160228570Y-54146725D02*
X160142856Y-53975297D01*
X160142856Y-53975297D02*
X160142856Y-52518154D01*
X159371427Y-54232440D02*
X159114285Y-54318154D01*
X159114285Y-54318154D02*
X158685713Y-54318154D01*
X158685713Y-54318154D02*
X158514285Y-54232440D01*
X158514285Y-54232440D02*
X158428570Y-54146725D01*
X158428570Y-54146725D02*
X158342856Y-53975297D01*
X158342856Y-53975297D02*
X158342856Y-53803868D01*
X158342856Y-53803868D02*
X158428570Y-53632440D01*
X158428570Y-53632440D02*
X158514285Y-53546725D01*
X158514285Y-53546725D02*
X158685713Y-53461011D01*
X158685713Y-53461011D02*
X159028570Y-53375297D01*
X159028570Y-53375297D02*
X159199999Y-53289582D01*
X159199999Y-53289582D02*
X159285713Y-53203868D01*
X159285713Y-53203868D02*
X159371427Y-53032440D01*
X159371427Y-53032440D02*
X159371427Y-52861011D01*
X159371427Y-52861011D02*
X159285713Y-52689582D01*
X159285713Y-52689582D02*
X159199999Y-52603868D01*
X159199999Y-52603868D02*
X159028570Y-52518154D01*
X159028570Y-52518154D02*
X158599999Y-52518154D01*
X158599999Y-52518154D02*
X158342856Y-52603868D01*
X156971427Y-53375297D02*
X156714284Y-53461011D01*
X156714284Y-53461011D02*
X156628570Y-53546725D01*
X156628570Y-53546725D02*
X156542856Y-53718154D01*
X156542856Y-53718154D02*
X156542856Y-53975297D01*
X156542856Y-53975297D02*
X156628570Y-54146725D01*
X156628570Y-54146725D02*
X156714284Y-54232440D01*
X156714284Y-54232440D02*
X156885713Y-54318154D01*
X156885713Y-54318154D02*
X157571427Y-54318154D01*
X157571427Y-54318154D02*
X157571427Y-52518154D01*
X157571427Y-52518154D02*
X156971427Y-52518154D01*
X156971427Y-52518154D02*
X156799999Y-52603868D01*
X156799999Y-52603868D02*
X156714284Y-52689582D01*
X156714284Y-52689582D02*
X156628570Y-52861011D01*
X156628570Y-52861011D02*
X156628570Y-53032440D01*
X156628570Y-53032440D02*
X156714284Y-53203868D01*
X156714284Y-53203868D02*
X156799999Y-53289582D01*
X156799999Y-53289582D02*
X156971427Y-53375297D01*
X156971427Y-53375297D02*
X157571427Y-53375297D01*
X155771427Y-53632440D02*
X154399999Y-53632440D01*
X152514285Y-54146725D02*
X152599999Y-54232440D01*
X152599999Y-54232440D02*
X152857142Y-54318154D01*
X152857142Y-54318154D02*
X153028570Y-54318154D01*
X153028570Y-54318154D02*
X153285713Y-54232440D01*
X153285713Y-54232440D02*
X153457142Y-54061011D01*
X153457142Y-54061011D02*
X153542856Y-53889582D01*
X153542856Y-53889582D02*
X153628570Y-53546725D01*
X153628570Y-53546725D02*
X153628570Y-53289582D01*
X153628570Y-53289582D02*
X153542856Y-52946725D01*
X153542856Y-52946725D02*
X153457142Y-52775297D01*
X153457142Y-52775297D02*
X153285713Y-52603868D01*
X153285713Y-52603868D02*
X153028570Y-52518154D01*
X153028570Y-52518154D02*
X152857142Y-52518154D01*
X152857142Y-52518154D02*
X152599999Y-52603868D01*
X152599999Y-52603868D02*
X152514285Y-52689582D01*
X149342856Y-54146725D02*
X149428570Y-54232440D01*
X149428570Y-54232440D02*
X149685713Y-54318154D01*
X149685713Y-54318154D02*
X149857141Y-54318154D01*
X149857141Y-54318154D02*
X150114284Y-54232440D01*
X150114284Y-54232440D02*
X150285713Y-54061011D01*
X150285713Y-54061011D02*
X150371427Y-53889582D01*
X150371427Y-53889582D02*
X150457141Y-53546725D01*
X150457141Y-53546725D02*
X150457141Y-53289582D01*
X150457141Y-53289582D02*
X150371427Y-52946725D01*
X150371427Y-52946725D02*
X150285713Y-52775297D01*
X150285713Y-52775297D02*
X150114284Y-52603868D01*
X150114284Y-52603868D02*
X149857141Y-52518154D01*
X149857141Y-52518154D02*
X149685713Y-52518154D01*
X149685713Y-52518154D02*
X149428570Y-52603868D01*
X149428570Y-52603868D02*
X149342856Y-52689582D01*
X148571427Y-54318154D02*
X148571427Y-52518154D01*
X148571427Y-53375297D02*
X147542856Y-53375297D01*
X147542856Y-54318154D02*
X147542856Y-52518154D01*
X146771427Y-53803868D02*
X145914285Y-53803868D01*
X146942856Y-54318154D02*
X146342856Y-52518154D01*
X146342856Y-52518154D02*
X145742856Y-54318154D01*
X144114285Y-54318154D02*
X144714285Y-53461011D01*
X145142856Y-54318154D02*
X145142856Y-52518154D01*
X145142856Y-52518154D02*
X144457142Y-52518154D01*
X144457142Y-52518154D02*
X144285713Y-52603868D01*
X144285713Y-52603868D02*
X144199999Y-52689582D01*
X144199999Y-52689582D02*
X144114285Y-52861011D01*
X144114285Y-52861011D02*
X144114285Y-53118154D01*
X144114285Y-53118154D02*
X144199999Y-53289582D01*
X144199999Y-53289582D02*
X144285713Y-53375297D01*
X144285713Y-53375297D02*
X144457142Y-53461011D01*
X144457142Y-53461011D02*
X145142856Y-53461011D01*
X142399999Y-52603868D02*
X142571428Y-52518154D01*
X142571428Y-52518154D02*
X142828570Y-52518154D01*
X142828570Y-52518154D02*
X143085713Y-52603868D01*
X143085713Y-52603868D02*
X143257142Y-52775297D01*
X143257142Y-52775297D02*
X143342856Y-52946725D01*
X143342856Y-52946725D02*
X143428570Y-53289582D01*
X143428570Y-53289582D02*
X143428570Y-53546725D01*
X143428570Y-53546725D02*
X143342856Y-53889582D01*
X143342856Y-53889582D02*
X143257142Y-54061011D01*
X143257142Y-54061011D02*
X143085713Y-54232440D01*
X143085713Y-54232440D02*
X142828570Y-54318154D01*
X142828570Y-54318154D02*
X142657142Y-54318154D01*
X142657142Y-54318154D02*
X142399999Y-54232440D01*
X142399999Y-54232440D02*
X142314285Y-54146725D01*
X142314285Y-54146725D02*
X142314285Y-53546725D01*
X142314285Y-53546725D02*
X142657142Y-53546725D01*
X141542856Y-53375297D02*
X140942856Y-53375297D01*
X140685713Y-54318154D02*
X141542856Y-54318154D01*
X141542856Y-54318154D02*
X141542856Y-52518154D01*
X141542856Y-52518154D02*
X140685713Y-52518154D01*
X138885714Y-54318154D02*
X139485714Y-53461011D01*
X139914285Y-54318154D02*
X139914285Y-52518154D01*
X139914285Y-52518154D02*
X139228571Y-52518154D01*
X139228571Y-52518154D02*
X139057142Y-52603868D01*
X139057142Y-52603868D02*
X138971428Y-52689582D01*
X138971428Y-52689582D02*
X138885714Y-52861011D01*
X138885714Y-52861011D02*
X138885714Y-53118154D01*
X138885714Y-53118154D02*
X138971428Y-53289582D01*
X138971428Y-53289582D02*
X139057142Y-53375297D01*
X139057142Y-53375297D02*
X139228571Y-53461011D01*
X139228571Y-53461011D02*
X139914285Y-53461011D01*
D11*
X192095238Y-71454299D02*
X192095238Y-70454299D01*
X191619048Y-71454299D02*
X191619048Y-70454299D01*
X191619048Y-70454299D02*
X191047620Y-71454299D01*
X191047620Y-71454299D02*
X191047620Y-70454299D01*
X190571429Y-71454299D02*
X190571429Y-70454299D01*
X190571429Y-70454299D02*
X190190477Y-70454299D01*
X190190477Y-70454299D02*
X190095239Y-70501918D01*
X190095239Y-70501918D02*
X190047620Y-70549537D01*
X190047620Y-70549537D02*
X190000001Y-70644775D01*
X190000001Y-70644775D02*
X190000001Y-70787632D01*
X190000001Y-70787632D02*
X190047620Y-70882870D01*
X190047620Y-70882870D02*
X190095239Y-70930489D01*
X190095239Y-70930489D02*
X190190477Y-70978108D01*
X190190477Y-70978108D02*
X190571429Y-70978108D01*
X189571429Y-70454299D02*
X189571429Y-71263822D01*
X189571429Y-71263822D02*
X189523810Y-71359060D01*
X189523810Y-71359060D02*
X189476191Y-71406680D01*
X189476191Y-71406680D02*
X189380953Y-71454299D01*
X189380953Y-71454299D02*
X189190477Y-71454299D01*
X189190477Y-71454299D02*
X189095239Y-71406680D01*
X189095239Y-71406680D02*
X189047620Y-71359060D01*
X189047620Y-71359060D02*
X189000001Y-71263822D01*
X189000001Y-71263822D02*
X189000001Y-70454299D01*
X188666667Y-70454299D02*
X188095239Y-70454299D01*
X188380953Y-71454299D02*
X188380953Y-70454299D01*
X187761905Y-71359060D02*
X187714286Y-71406680D01*
X187714286Y-71406680D02*
X187761905Y-71454299D01*
X187761905Y-71454299D02*
X187809524Y-71406680D01*
X187809524Y-71406680D02*
X187761905Y-71359060D01*
X187761905Y-71359060D02*
X187761905Y-71454299D01*
X187761905Y-70835251D02*
X187714286Y-70882870D01*
X187714286Y-70882870D02*
X187761905Y-70930489D01*
X187761905Y-70930489D02*
X187809524Y-70882870D01*
X187809524Y-70882870D02*
X187761905Y-70835251D01*
X187761905Y-70835251D02*
X187761905Y-70930489D01*
X186523810Y-70454299D02*
X186523810Y-71263822D01*
X186523810Y-71263822D02*
X186476191Y-71359060D01*
X186476191Y-71359060D02*
X186428572Y-71406680D01*
X186428572Y-71406680D02*
X186333334Y-71454299D01*
X186333334Y-71454299D02*
X186142858Y-71454299D01*
X186142858Y-71454299D02*
X186047620Y-71406680D01*
X186047620Y-71406680D02*
X186000001Y-71359060D01*
X186000001Y-71359060D02*
X185952382Y-71263822D01*
X185952382Y-71263822D02*
X185952382Y-70454299D01*
X185523810Y-71406680D02*
X185380953Y-71454299D01*
X185380953Y-71454299D02*
X185142858Y-71454299D01*
X185142858Y-71454299D02*
X185047620Y-71406680D01*
X185047620Y-71406680D02*
X185000001Y-71359060D01*
X185000001Y-71359060D02*
X184952382Y-71263822D01*
X184952382Y-71263822D02*
X184952382Y-71168584D01*
X184952382Y-71168584D02*
X185000001Y-71073346D01*
X185000001Y-71073346D02*
X185047620Y-71025727D01*
X185047620Y-71025727D02*
X185142858Y-70978108D01*
X185142858Y-70978108D02*
X185333334Y-70930489D01*
X185333334Y-70930489D02*
X185428572Y-70882870D01*
X185428572Y-70882870D02*
X185476191Y-70835251D01*
X185476191Y-70835251D02*
X185523810Y-70740013D01*
X185523810Y-70740013D02*
X185523810Y-70644775D01*
X185523810Y-70644775D02*
X185476191Y-70549537D01*
X185476191Y-70549537D02*
X185428572Y-70501918D01*
X185428572Y-70501918D02*
X185333334Y-70454299D01*
X185333334Y-70454299D02*
X185095239Y-70454299D01*
X185095239Y-70454299D02*
X184952382Y-70501918D01*
X184190477Y-70930489D02*
X184047620Y-70978108D01*
X184047620Y-70978108D02*
X184000001Y-71025727D01*
X184000001Y-71025727D02*
X183952382Y-71120965D01*
X183952382Y-71120965D02*
X183952382Y-71263822D01*
X183952382Y-71263822D02*
X184000001Y-71359060D01*
X184000001Y-71359060D02*
X184047620Y-71406680D01*
X184047620Y-71406680D02*
X184142858Y-71454299D01*
X184142858Y-71454299D02*
X184523810Y-71454299D01*
X184523810Y-71454299D02*
X184523810Y-70454299D01*
X184523810Y-70454299D02*
X184190477Y-70454299D01*
X184190477Y-70454299D02*
X184095239Y-70501918D01*
X184095239Y-70501918D02*
X184047620Y-70549537D01*
X184047620Y-70549537D02*
X184000001Y-70644775D01*
X184000001Y-70644775D02*
X184000001Y-70740013D01*
X184000001Y-70740013D02*
X184047620Y-70835251D01*
X184047620Y-70835251D02*
X184095239Y-70882870D01*
X184095239Y-70882870D02*
X184190477Y-70930489D01*
X184190477Y-70930489D02*
X184523810Y-70930489D01*
X183523810Y-71073346D02*
X182761906Y-71073346D01*
X181714287Y-71359060D02*
X181761906Y-71406680D01*
X181761906Y-71406680D02*
X181904763Y-71454299D01*
X181904763Y-71454299D02*
X182000001Y-71454299D01*
X182000001Y-71454299D02*
X182142858Y-71406680D01*
X182142858Y-71406680D02*
X182238096Y-71311441D01*
X182238096Y-71311441D02*
X182285715Y-71216203D01*
X182285715Y-71216203D02*
X182333334Y-71025727D01*
X182333334Y-71025727D02*
X182333334Y-70882870D01*
X182333334Y-70882870D02*
X182285715Y-70692394D01*
X182285715Y-70692394D02*
X182238096Y-70597156D01*
X182238096Y-70597156D02*
X182142858Y-70501918D01*
X182142858Y-70501918D02*
X182000001Y-70454299D01*
X182000001Y-70454299D02*
X181904763Y-70454299D01*
X181904763Y-70454299D02*
X181761906Y-70501918D01*
X181761906Y-70501918D02*
X181714287Y-70549537D01*
X180523810Y-71454299D02*
X180523810Y-70454299D01*
X180523810Y-70454299D02*
X180142858Y-70454299D01*
X180142858Y-70454299D02*
X180047620Y-70501918D01*
X180047620Y-70501918D02*
X180000001Y-70549537D01*
X180000001Y-70549537D02*
X179952382Y-70644775D01*
X179952382Y-70644775D02*
X179952382Y-70787632D01*
X179952382Y-70787632D02*
X180000001Y-70882870D01*
X180000001Y-70882870D02*
X180047620Y-70930489D01*
X180047620Y-70930489D02*
X180142858Y-70978108D01*
X180142858Y-70978108D02*
X180523810Y-70978108D01*
X179523810Y-71454299D02*
X179523810Y-70454299D01*
X179523810Y-70454299D02*
X179285715Y-70454299D01*
X179285715Y-70454299D02*
X179142858Y-70501918D01*
X179142858Y-70501918D02*
X179047620Y-70597156D01*
X179047620Y-70597156D02*
X179000001Y-70692394D01*
X179000001Y-70692394D02*
X178952382Y-70882870D01*
X178952382Y-70882870D02*
X178952382Y-71025727D01*
X178952382Y-71025727D02*
X179000001Y-71216203D01*
X179000001Y-71216203D02*
X179047620Y-71311441D01*
X179047620Y-71311441D02*
X179142858Y-71406680D01*
X179142858Y-71406680D02*
X179285715Y-71454299D01*
X179285715Y-71454299D02*
X179523810Y-71454299D01*
X177238096Y-71454299D02*
X177809524Y-71454299D01*
X177523810Y-71454299D02*
X177523810Y-70454299D01*
X177523810Y-70454299D02*
X177619048Y-70597156D01*
X177619048Y-70597156D02*
X177714286Y-70692394D01*
X177714286Y-70692394D02*
X177809524Y-70740013D01*
X176857143Y-70549537D02*
X176809524Y-70501918D01*
X176809524Y-70501918D02*
X176714286Y-70454299D01*
X176714286Y-70454299D02*
X176476191Y-70454299D01*
X176476191Y-70454299D02*
X176380953Y-70501918D01*
X176380953Y-70501918D02*
X176333334Y-70549537D01*
X176333334Y-70549537D02*
X176285715Y-70644775D01*
X176285715Y-70644775D02*
X176285715Y-70740013D01*
X176285715Y-70740013D02*
X176333334Y-70882870D01*
X176333334Y-70882870D02*
X176904762Y-71454299D01*
X176904762Y-71454299D02*
X176285715Y-71454299D01*
X176000000Y-70454299D02*
X175666667Y-71454299D01*
X175666667Y-71454299D02*
X175333334Y-70454299D01*
X174333333Y-70454299D02*
X173714286Y-70454299D01*
X173714286Y-70454299D02*
X174047619Y-70835251D01*
X174047619Y-70835251D02*
X173904762Y-70835251D01*
X173904762Y-70835251D02*
X173809524Y-70882870D01*
X173809524Y-70882870D02*
X173761905Y-70930489D01*
X173761905Y-70930489D02*
X173714286Y-71025727D01*
X173714286Y-71025727D02*
X173714286Y-71263822D01*
X173714286Y-71263822D02*
X173761905Y-71359060D01*
X173761905Y-71359060D02*
X173809524Y-71406680D01*
X173809524Y-71406680D02*
X173904762Y-71454299D01*
X173904762Y-71454299D02*
X174190476Y-71454299D01*
X174190476Y-71454299D02*
X174285714Y-71406680D01*
X174285714Y-71406680D02*
X174333333Y-71359060D01*
X172857143Y-70454299D02*
X173047619Y-70454299D01*
X173047619Y-70454299D02*
X173142857Y-70501918D01*
X173142857Y-70501918D02*
X173190476Y-70549537D01*
X173190476Y-70549537D02*
X173285714Y-70692394D01*
X173285714Y-70692394D02*
X173333333Y-70882870D01*
X173333333Y-70882870D02*
X173333333Y-71263822D01*
X173333333Y-71263822D02*
X173285714Y-71359060D01*
X173285714Y-71359060D02*
X173238095Y-71406680D01*
X173238095Y-71406680D02*
X173142857Y-71454299D01*
X173142857Y-71454299D02*
X172952381Y-71454299D01*
X172952381Y-71454299D02*
X172857143Y-71406680D01*
X172857143Y-71406680D02*
X172809524Y-71359060D01*
X172809524Y-71359060D02*
X172761905Y-71263822D01*
X172761905Y-71263822D02*
X172761905Y-71025727D01*
X172761905Y-71025727D02*
X172809524Y-70930489D01*
X172809524Y-70930489D02*
X172857143Y-70882870D01*
X172857143Y-70882870D02*
X172952381Y-70835251D01*
X172952381Y-70835251D02*
X173142857Y-70835251D01*
X173142857Y-70835251D02*
X173238095Y-70882870D01*
X173238095Y-70882870D02*
X173285714Y-70930489D01*
X173285714Y-70930489D02*
X173333333Y-71025727D01*
X172428571Y-70454299D02*
X172190476Y-71454299D01*
X172190476Y-71454299D02*
X172000000Y-70740013D01*
X172000000Y-70740013D02*
X171809524Y-71454299D01*
X171809524Y-71454299D02*
X171571429Y-70454299D01*
X170428571Y-71454299D02*
X170428571Y-70454299D01*
X170428571Y-70454299D02*
X170095238Y-71168584D01*
X170095238Y-71168584D02*
X169761905Y-70454299D01*
X169761905Y-70454299D02*
X169761905Y-71454299D01*
X169333333Y-71168584D02*
X168857143Y-71168584D01*
X169428571Y-71454299D02*
X169095238Y-70454299D01*
X169095238Y-70454299D02*
X168761905Y-71454299D01*
X168523809Y-70454299D02*
X167857143Y-71454299D01*
X167857143Y-70454299D02*
X168523809Y-71454299D01*
X166523809Y-70454299D02*
X166333333Y-70454299D01*
X166333333Y-70454299D02*
X166238095Y-70501918D01*
X166238095Y-70501918D02*
X166142857Y-70597156D01*
X166142857Y-70597156D02*
X166095238Y-70787632D01*
X166095238Y-70787632D02*
X166095238Y-71120965D01*
X166095238Y-71120965D02*
X166142857Y-71311441D01*
X166142857Y-71311441D02*
X166238095Y-71406680D01*
X166238095Y-71406680D02*
X166333333Y-71454299D01*
X166333333Y-71454299D02*
X166523809Y-71454299D01*
X166523809Y-71454299D02*
X166619047Y-71406680D01*
X166619047Y-71406680D02*
X166714285Y-71311441D01*
X166714285Y-71311441D02*
X166761904Y-71120965D01*
X166761904Y-71120965D02*
X166761904Y-70787632D01*
X166761904Y-70787632D02*
X166714285Y-70597156D01*
X166714285Y-70597156D02*
X166619047Y-70501918D01*
X166619047Y-70501918D02*
X166523809Y-70454299D01*
X165095238Y-71454299D02*
X165428571Y-70978108D01*
X165666666Y-71454299D02*
X165666666Y-70454299D01*
X165666666Y-70454299D02*
X165285714Y-70454299D01*
X165285714Y-70454299D02*
X165190476Y-70501918D01*
X165190476Y-70501918D02*
X165142857Y-70549537D01*
X165142857Y-70549537D02*
X165095238Y-70644775D01*
X165095238Y-70644775D02*
X165095238Y-70787632D01*
X165095238Y-70787632D02*
X165142857Y-70882870D01*
X165142857Y-70882870D02*
X165190476Y-70930489D01*
X165190476Y-70930489D02*
X165285714Y-70978108D01*
X165285714Y-70978108D02*
X165666666Y-70978108D01*
X163380952Y-71454299D02*
X163952380Y-71454299D01*
X163666666Y-71454299D02*
X163666666Y-70454299D01*
X163666666Y-70454299D02*
X163761904Y-70597156D01*
X163761904Y-70597156D02*
X163857142Y-70692394D01*
X163857142Y-70692394D02*
X163952380Y-70740013D01*
X162999999Y-70549537D02*
X162952380Y-70501918D01*
X162952380Y-70501918D02*
X162857142Y-70454299D01*
X162857142Y-70454299D02*
X162619047Y-70454299D01*
X162619047Y-70454299D02*
X162523809Y-70501918D01*
X162523809Y-70501918D02*
X162476190Y-70549537D01*
X162476190Y-70549537D02*
X162428571Y-70644775D01*
X162428571Y-70644775D02*
X162428571Y-70740013D01*
X162428571Y-70740013D02*
X162476190Y-70882870D01*
X162476190Y-70882870D02*
X163047618Y-71454299D01*
X163047618Y-71454299D02*
X162428571Y-71454299D01*
X162142856Y-70454299D02*
X161809523Y-71454299D01*
X161809523Y-71454299D02*
X161476190Y-70454299D01*
X160380951Y-71454299D02*
X160380951Y-70454299D01*
X160380951Y-70454299D02*
X160142856Y-70454299D01*
X160142856Y-70454299D02*
X159999999Y-70501918D01*
X159999999Y-70501918D02*
X159904761Y-70597156D01*
X159904761Y-70597156D02*
X159857142Y-70692394D01*
X159857142Y-70692394D02*
X159809523Y-70882870D01*
X159809523Y-70882870D02*
X159809523Y-71025727D01*
X159809523Y-71025727D02*
X159857142Y-71216203D01*
X159857142Y-71216203D02*
X159904761Y-71311441D01*
X159904761Y-71311441D02*
X159999999Y-71406680D01*
X159999999Y-71406680D02*
X160142856Y-71454299D01*
X160142856Y-71454299D02*
X160380951Y-71454299D01*
X158809523Y-71359060D02*
X158857142Y-71406680D01*
X158857142Y-71406680D02*
X158999999Y-71454299D01*
X158999999Y-71454299D02*
X159095237Y-71454299D01*
X159095237Y-71454299D02*
X159238094Y-71406680D01*
X159238094Y-71406680D02*
X159333332Y-71311441D01*
X159333332Y-71311441D02*
X159380951Y-71216203D01*
X159380951Y-71216203D02*
X159428570Y-71025727D01*
X159428570Y-71025727D02*
X159428570Y-70882870D01*
X159428570Y-70882870D02*
X159380951Y-70692394D01*
X159380951Y-70692394D02*
X159333332Y-70597156D01*
X159333332Y-70597156D02*
X159238094Y-70501918D01*
X159238094Y-70501918D02*
X159095237Y-70454299D01*
X159095237Y-70454299D02*
X158999999Y-70454299D01*
X158999999Y-70454299D02*
X158857142Y-70501918D01*
X158857142Y-70501918D02*
X158809523Y-70549537D01*
X157142856Y-70454299D02*
X157619046Y-70454299D01*
X157619046Y-70454299D02*
X157666665Y-70930489D01*
X157666665Y-70930489D02*
X157619046Y-70882870D01*
X157619046Y-70882870D02*
X157523808Y-70835251D01*
X157523808Y-70835251D02*
X157285713Y-70835251D01*
X157285713Y-70835251D02*
X157190475Y-70882870D01*
X157190475Y-70882870D02*
X157142856Y-70930489D01*
X157142856Y-70930489D02*
X157095237Y-71025727D01*
X157095237Y-71025727D02*
X157095237Y-71263822D01*
X157095237Y-71263822D02*
X157142856Y-71359060D01*
X157142856Y-71359060D02*
X157190475Y-71406680D01*
X157190475Y-71406680D02*
X157285713Y-71454299D01*
X157285713Y-71454299D02*
X157523808Y-71454299D01*
X157523808Y-71454299D02*
X157619046Y-71406680D01*
X157619046Y-71406680D02*
X157666665Y-71359060D01*
X156714284Y-71168584D02*
X156238094Y-71168584D01*
X156809522Y-71454299D02*
X156476189Y-70454299D01*
X156476189Y-70454299D02*
X156142856Y-71454299D01*
X154476189Y-71359060D02*
X154523808Y-71406680D01*
X154523808Y-71406680D02*
X154666665Y-71454299D01*
X154666665Y-71454299D02*
X154761903Y-71454299D01*
X154761903Y-71454299D02*
X154904760Y-71406680D01*
X154904760Y-71406680D02*
X154999998Y-71311441D01*
X154999998Y-71311441D02*
X155047617Y-71216203D01*
X155047617Y-71216203D02*
X155095236Y-71025727D01*
X155095236Y-71025727D02*
X155095236Y-70882870D01*
X155095236Y-70882870D02*
X155047617Y-70692394D01*
X155047617Y-70692394D02*
X154999998Y-70597156D01*
X154999998Y-70597156D02*
X154904760Y-70501918D01*
X154904760Y-70501918D02*
X154761903Y-70454299D01*
X154761903Y-70454299D02*
X154666665Y-70454299D01*
X154666665Y-70454299D02*
X154523808Y-70501918D01*
X154523808Y-70501918D02*
X154476189Y-70549537D01*
X154047617Y-70930489D02*
X153714284Y-70930489D01*
X153571427Y-71454299D02*
X154047617Y-71454299D01*
X154047617Y-71454299D02*
X154047617Y-70454299D01*
X154047617Y-70454299D02*
X153571427Y-70454299D01*
X153142855Y-71454299D02*
X153142855Y-70454299D01*
X153142855Y-70454299D02*
X152571427Y-71454299D01*
X152571427Y-71454299D02*
X152571427Y-70454299D01*
X152238093Y-70454299D02*
X151666665Y-70454299D01*
X151952379Y-71454299D02*
X151952379Y-70454299D01*
X151333331Y-70930489D02*
X150999998Y-70930489D01*
X150857141Y-71454299D02*
X151333331Y-71454299D01*
X151333331Y-71454299D02*
X151333331Y-70454299D01*
X151333331Y-70454299D02*
X150857141Y-70454299D01*
X149857141Y-71454299D02*
X150190474Y-70978108D01*
X150428569Y-71454299D02*
X150428569Y-70454299D01*
X150428569Y-70454299D02*
X150047617Y-70454299D01*
X150047617Y-70454299D02*
X149952379Y-70501918D01*
X149952379Y-70501918D02*
X149904760Y-70549537D01*
X149904760Y-70549537D02*
X149857141Y-70644775D01*
X149857141Y-70644775D02*
X149857141Y-70787632D01*
X149857141Y-70787632D02*
X149904760Y-70882870D01*
X149904760Y-70882870D02*
X149952379Y-70930489D01*
X149952379Y-70930489D02*
X150047617Y-70978108D01*
X150047617Y-70978108D02*
X150428569Y-70978108D01*
X148666664Y-71073346D02*
X147904760Y-71073346D01*
X148285712Y-71454299D02*
X148285712Y-70692394D01*
X186142858Y-77454299D02*
X185952382Y-77454299D01*
X185952382Y-77454299D02*
X185857144Y-77501918D01*
X185857144Y-77501918D02*
X185761906Y-77597156D01*
X185761906Y-77597156D02*
X185714287Y-77787632D01*
X185714287Y-77787632D02*
X185714287Y-78120965D01*
X185714287Y-78120965D02*
X185761906Y-78311441D01*
X185761906Y-78311441D02*
X185857144Y-78406680D01*
X185857144Y-78406680D02*
X185952382Y-78454299D01*
X185952382Y-78454299D02*
X186142858Y-78454299D01*
X186142858Y-78454299D02*
X186238096Y-78406680D01*
X186238096Y-78406680D02*
X186333334Y-78311441D01*
X186333334Y-78311441D02*
X186380953Y-78120965D01*
X186380953Y-78120965D02*
X186380953Y-77787632D01*
X186380953Y-77787632D02*
X186333334Y-77597156D01*
X186333334Y-77597156D02*
X186238096Y-77501918D01*
X186238096Y-77501918D02*
X186142858Y-77454299D01*
X185285715Y-77454299D02*
X185285715Y-78263822D01*
X185285715Y-78263822D02*
X185238096Y-78359060D01*
X185238096Y-78359060D02*
X185190477Y-78406680D01*
X185190477Y-78406680D02*
X185095239Y-78454299D01*
X185095239Y-78454299D02*
X184904763Y-78454299D01*
X184904763Y-78454299D02*
X184809525Y-78406680D01*
X184809525Y-78406680D02*
X184761906Y-78359060D01*
X184761906Y-78359060D02*
X184714287Y-78263822D01*
X184714287Y-78263822D02*
X184714287Y-77454299D01*
X184380953Y-77454299D02*
X183809525Y-77454299D01*
X184095239Y-78454299D02*
X184095239Y-77454299D01*
X183476191Y-78454299D02*
X183476191Y-77454299D01*
X183476191Y-77454299D02*
X183095239Y-77454299D01*
X183095239Y-77454299D02*
X183000001Y-77501918D01*
X183000001Y-77501918D02*
X182952382Y-77549537D01*
X182952382Y-77549537D02*
X182904763Y-77644775D01*
X182904763Y-77644775D02*
X182904763Y-77787632D01*
X182904763Y-77787632D02*
X182952382Y-77882870D01*
X182952382Y-77882870D02*
X183000001Y-77930489D01*
X183000001Y-77930489D02*
X183095239Y-77978108D01*
X183095239Y-77978108D02*
X183476191Y-77978108D01*
X182476191Y-77454299D02*
X182476191Y-78263822D01*
X182476191Y-78263822D02*
X182428572Y-78359060D01*
X182428572Y-78359060D02*
X182380953Y-78406680D01*
X182380953Y-78406680D02*
X182285715Y-78454299D01*
X182285715Y-78454299D02*
X182095239Y-78454299D01*
X182095239Y-78454299D02*
X182000001Y-78406680D01*
X182000001Y-78406680D02*
X181952382Y-78359060D01*
X181952382Y-78359060D02*
X181904763Y-78263822D01*
X181904763Y-78263822D02*
X181904763Y-77454299D01*
X181571429Y-77454299D02*
X181000001Y-77454299D01*
X181285715Y-78454299D02*
X181285715Y-77454299D01*
X180666667Y-78359060D02*
X180619048Y-78406680D01*
X180619048Y-78406680D02*
X180666667Y-78454299D01*
X180666667Y-78454299D02*
X180714286Y-78406680D01*
X180714286Y-78406680D02*
X180666667Y-78359060D01*
X180666667Y-78359060D02*
X180666667Y-78454299D01*
X180666667Y-77835251D02*
X180619048Y-77882870D01*
X180619048Y-77882870D02*
X180666667Y-77930489D01*
X180666667Y-77930489D02*
X180714286Y-77882870D01*
X180714286Y-77882870D02*
X180666667Y-77835251D01*
X180666667Y-77835251D02*
X180666667Y-77930489D01*
X178952382Y-77454299D02*
X179428572Y-77454299D01*
X179428572Y-77454299D02*
X179476191Y-77930489D01*
X179476191Y-77930489D02*
X179428572Y-77882870D01*
X179428572Y-77882870D02*
X179333334Y-77835251D01*
X179333334Y-77835251D02*
X179095239Y-77835251D01*
X179095239Y-77835251D02*
X179000001Y-77882870D01*
X179000001Y-77882870D02*
X178952382Y-77930489D01*
X178952382Y-77930489D02*
X178904763Y-78025727D01*
X178904763Y-78025727D02*
X178904763Y-78263822D01*
X178904763Y-78263822D02*
X178952382Y-78359060D01*
X178952382Y-78359060D02*
X179000001Y-78406680D01*
X179000001Y-78406680D02*
X179095239Y-78454299D01*
X179095239Y-78454299D02*
X179333334Y-78454299D01*
X179333334Y-78454299D02*
X179428572Y-78406680D01*
X179428572Y-78406680D02*
X179476191Y-78359060D01*
X178619048Y-77454299D02*
X178285715Y-78454299D01*
X178285715Y-78454299D02*
X177952382Y-77454299D01*
X176333334Y-78454299D02*
X176904762Y-78454299D01*
X176619048Y-78454299D02*
X176619048Y-77454299D01*
X176619048Y-77454299D02*
X176714286Y-77597156D01*
X176714286Y-77597156D02*
X176809524Y-77692394D01*
X176809524Y-77692394D02*
X176904762Y-77740013D01*
X175952381Y-78168584D02*
X175476191Y-78168584D01*
X176047619Y-78454299D02*
X175714286Y-77454299D01*
X175714286Y-77454299D02*
X175380953Y-78454299D01*
X173714286Y-78359060D02*
X173761905Y-78406680D01*
X173761905Y-78406680D02*
X173904762Y-78454299D01*
X173904762Y-78454299D02*
X174000000Y-78454299D01*
X174000000Y-78454299D02*
X174142857Y-78406680D01*
X174142857Y-78406680D02*
X174238095Y-78311441D01*
X174238095Y-78311441D02*
X174285714Y-78216203D01*
X174285714Y-78216203D02*
X174333333Y-78025727D01*
X174333333Y-78025727D02*
X174333333Y-77882870D01*
X174333333Y-77882870D02*
X174285714Y-77692394D01*
X174285714Y-77692394D02*
X174238095Y-77597156D01*
X174238095Y-77597156D02*
X174142857Y-77501918D01*
X174142857Y-77501918D02*
X174000000Y-77454299D01*
X174000000Y-77454299D02*
X173904762Y-77454299D01*
X173904762Y-77454299D02*
X173761905Y-77501918D01*
X173761905Y-77501918D02*
X173714286Y-77549537D01*
X173095238Y-77454299D02*
X172904762Y-77454299D01*
X172904762Y-77454299D02*
X172809524Y-77501918D01*
X172809524Y-77501918D02*
X172714286Y-77597156D01*
X172714286Y-77597156D02*
X172666667Y-77787632D01*
X172666667Y-77787632D02*
X172666667Y-78120965D01*
X172666667Y-78120965D02*
X172714286Y-78311441D01*
X172714286Y-78311441D02*
X172809524Y-78406680D01*
X172809524Y-78406680D02*
X172904762Y-78454299D01*
X172904762Y-78454299D02*
X173095238Y-78454299D01*
X173095238Y-78454299D02*
X173190476Y-78406680D01*
X173190476Y-78406680D02*
X173285714Y-78311441D01*
X173285714Y-78311441D02*
X173333333Y-78120965D01*
X173333333Y-78120965D02*
X173333333Y-77787632D01*
X173333333Y-77787632D02*
X173285714Y-77597156D01*
X173285714Y-77597156D02*
X173190476Y-77501918D01*
X173190476Y-77501918D02*
X173095238Y-77454299D01*
X172238095Y-78454299D02*
X172238095Y-77454299D01*
X172238095Y-77454299D02*
X171666667Y-78454299D01*
X171666667Y-78454299D02*
X171666667Y-77454299D01*
X171333333Y-77454299D02*
X170761905Y-77454299D01*
X171047619Y-78454299D02*
X171047619Y-77454299D01*
X168952381Y-77406680D02*
X169809523Y-78692394D01*
X167857142Y-78454299D02*
X167857142Y-77454299D01*
X167857142Y-77454299D02*
X167476190Y-77454299D01*
X167476190Y-77454299D02*
X167380952Y-77501918D01*
X167380952Y-77501918D02*
X167333333Y-77549537D01*
X167333333Y-77549537D02*
X167285714Y-77644775D01*
X167285714Y-77644775D02*
X167285714Y-77787632D01*
X167285714Y-77787632D02*
X167333333Y-77882870D01*
X167333333Y-77882870D02*
X167380952Y-77930489D01*
X167380952Y-77930489D02*
X167476190Y-77978108D01*
X167476190Y-77978108D02*
X167857142Y-77978108D01*
X166666666Y-77454299D02*
X166476190Y-77454299D01*
X166476190Y-77454299D02*
X166380952Y-77501918D01*
X166380952Y-77501918D02*
X166285714Y-77597156D01*
X166285714Y-77597156D02*
X166238095Y-77787632D01*
X166238095Y-77787632D02*
X166238095Y-78120965D01*
X166238095Y-78120965D02*
X166285714Y-78311441D01*
X166285714Y-78311441D02*
X166380952Y-78406680D01*
X166380952Y-78406680D02*
X166476190Y-78454299D01*
X166476190Y-78454299D02*
X166666666Y-78454299D01*
X166666666Y-78454299D02*
X166761904Y-78406680D01*
X166761904Y-78406680D02*
X166857142Y-78311441D01*
X166857142Y-78311441D02*
X166904761Y-78120965D01*
X166904761Y-78120965D02*
X166904761Y-77787632D01*
X166904761Y-77787632D02*
X166857142Y-77597156D01*
X166857142Y-77597156D02*
X166761904Y-77501918D01*
X166761904Y-77501918D02*
X166666666Y-77454299D01*
X165238095Y-78454299D02*
X165571428Y-77978108D01*
X165809523Y-78454299D02*
X165809523Y-77454299D01*
X165809523Y-77454299D02*
X165428571Y-77454299D01*
X165428571Y-77454299D02*
X165333333Y-77501918D01*
X165333333Y-77501918D02*
X165285714Y-77549537D01*
X165285714Y-77549537D02*
X165238095Y-77644775D01*
X165238095Y-77644775D02*
X165238095Y-77787632D01*
X165238095Y-77787632D02*
X165285714Y-77882870D01*
X165285714Y-77882870D02*
X165333333Y-77930489D01*
X165333333Y-77930489D02*
X165428571Y-77978108D01*
X165428571Y-77978108D02*
X165809523Y-77978108D01*
X164952380Y-77454299D02*
X164380952Y-77454299D01*
X164666666Y-78454299D02*
X164666666Y-77454299D01*
X162999999Y-78835251D02*
X163047618Y-78787632D01*
X163047618Y-78787632D02*
X163142856Y-78644775D01*
X163142856Y-78644775D02*
X163190475Y-78549537D01*
X163190475Y-78549537D02*
X163238094Y-78406680D01*
X163238094Y-78406680D02*
X163285713Y-78168584D01*
X163285713Y-78168584D02*
X163285713Y-77978108D01*
X163285713Y-77978108D02*
X163238094Y-77740013D01*
X163238094Y-77740013D02*
X163190475Y-77597156D01*
X163190475Y-77597156D02*
X163142856Y-77501918D01*
X163142856Y-77501918D02*
X163047618Y-77359060D01*
X163047618Y-77359060D02*
X162999999Y-77311441D01*
X162095237Y-78454299D02*
X162666665Y-78454299D01*
X162380951Y-78454299D02*
X162380951Y-77454299D01*
X162380951Y-77454299D02*
X162476189Y-77597156D01*
X162476189Y-77597156D02*
X162571427Y-77692394D01*
X162571427Y-77692394D02*
X162666665Y-77740013D01*
X161666665Y-78359060D02*
X161619046Y-78406680D01*
X161619046Y-78406680D02*
X161666665Y-78454299D01*
X161666665Y-78454299D02*
X161714284Y-78406680D01*
X161714284Y-78406680D02*
X161666665Y-78359060D01*
X161666665Y-78359060D02*
X161666665Y-78454299D01*
X160714285Y-77454299D02*
X161190475Y-77454299D01*
X161190475Y-77454299D02*
X161238094Y-77930489D01*
X161238094Y-77930489D02*
X161190475Y-77882870D01*
X161190475Y-77882870D02*
X161095237Y-77835251D01*
X161095237Y-77835251D02*
X160857142Y-77835251D01*
X160857142Y-77835251D02*
X160761904Y-77882870D01*
X160761904Y-77882870D02*
X160714285Y-77930489D01*
X160714285Y-77930489D02*
X160666666Y-78025727D01*
X160666666Y-78025727D02*
X160666666Y-78263822D01*
X160666666Y-78263822D02*
X160714285Y-78359060D01*
X160714285Y-78359060D02*
X160761904Y-78406680D01*
X160761904Y-78406680D02*
X160857142Y-78454299D01*
X160857142Y-78454299D02*
X161095237Y-78454299D01*
X161095237Y-78454299D02*
X161190475Y-78406680D01*
X161190475Y-78406680D02*
X161238094Y-78359060D01*
X160285713Y-78168584D02*
X159809523Y-78168584D01*
X160380951Y-78454299D02*
X160047618Y-77454299D01*
X160047618Y-77454299D02*
X159714285Y-78454299D01*
X158285713Y-77930489D02*
X158619046Y-77930489D01*
X158619046Y-78454299D02*
X158619046Y-77454299D01*
X158619046Y-77454299D02*
X158142856Y-77454299D01*
X157761903Y-77454299D02*
X157761903Y-78263822D01*
X157761903Y-78263822D02*
X157714284Y-78359060D01*
X157714284Y-78359060D02*
X157666665Y-78406680D01*
X157666665Y-78406680D02*
X157571427Y-78454299D01*
X157571427Y-78454299D02*
X157380951Y-78454299D01*
X157380951Y-78454299D02*
X157285713Y-78406680D01*
X157285713Y-78406680D02*
X157238094Y-78359060D01*
X157238094Y-78359060D02*
X157190475Y-78263822D01*
X157190475Y-78263822D02*
X157190475Y-77454299D01*
X156761903Y-78406680D02*
X156619046Y-78454299D01*
X156619046Y-78454299D02*
X156380951Y-78454299D01*
X156380951Y-78454299D02*
X156285713Y-78406680D01*
X156285713Y-78406680D02*
X156238094Y-78359060D01*
X156238094Y-78359060D02*
X156190475Y-78263822D01*
X156190475Y-78263822D02*
X156190475Y-78168584D01*
X156190475Y-78168584D02*
X156238094Y-78073346D01*
X156238094Y-78073346D02*
X156285713Y-78025727D01*
X156285713Y-78025727D02*
X156380951Y-77978108D01*
X156380951Y-77978108D02*
X156571427Y-77930489D01*
X156571427Y-77930489D02*
X156666665Y-77882870D01*
X156666665Y-77882870D02*
X156714284Y-77835251D01*
X156714284Y-77835251D02*
X156761903Y-77740013D01*
X156761903Y-77740013D02*
X156761903Y-77644775D01*
X156761903Y-77644775D02*
X156714284Y-77549537D01*
X156714284Y-77549537D02*
X156666665Y-77501918D01*
X156666665Y-77501918D02*
X156571427Y-77454299D01*
X156571427Y-77454299D02*
X156333332Y-77454299D01*
X156333332Y-77454299D02*
X156190475Y-77501918D01*
X155761903Y-77930489D02*
X155428570Y-77930489D01*
X155285713Y-78454299D02*
X155761903Y-78454299D01*
X155761903Y-78454299D02*
X155761903Y-77454299D01*
X155761903Y-77454299D02*
X155285713Y-77454299D01*
X154857141Y-78454299D02*
X154857141Y-77454299D01*
X154857141Y-77454299D02*
X154619046Y-77454299D01*
X154619046Y-77454299D02*
X154476189Y-77501918D01*
X154476189Y-77501918D02*
X154380951Y-77597156D01*
X154380951Y-77597156D02*
X154333332Y-77692394D01*
X154333332Y-77692394D02*
X154285713Y-77882870D01*
X154285713Y-77882870D02*
X154285713Y-78025727D01*
X154285713Y-78025727D02*
X154333332Y-78216203D01*
X154333332Y-78216203D02*
X154380951Y-78311441D01*
X154380951Y-78311441D02*
X154476189Y-78406680D01*
X154476189Y-78406680D02*
X154619046Y-78454299D01*
X154619046Y-78454299D02*
X154857141Y-78454299D01*
X153952379Y-78835251D02*
X153904760Y-78787632D01*
X153904760Y-78787632D02*
X153809522Y-78644775D01*
X153809522Y-78644775D02*
X153761903Y-78549537D01*
X153761903Y-78549537D02*
X153714284Y-78406680D01*
X153714284Y-78406680D02*
X153666665Y-78168584D01*
X153666665Y-78168584D02*
X153666665Y-77978108D01*
X153666665Y-77978108D02*
X153714284Y-77740013D01*
X153714284Y-77740013D02*
X153761903Y-77597156D01*
X153761903Y-77597156D02*
X153809522Y-77501918D01*
X153809522Y-77501918D02*
X153904760Y-77359060D01*
X153904760Y-77359060D02*
X153952379Y-77311441D01*
X187166666Y-83454299D02*
X187642856Y-83454299D01*
X187642856Y-83454299D02*
X187642856Y-82454299D01*
X186833332Y-82930489D02*
X186499999Y-82930489D01*
X186357142Y-83454299D02*
X186833332Y-83454299D01*
X186833332Y-83454299D02*
X186833332Y-82454299D01*
X186833332Y-82454299D02*
X186357142Y-82454299D01*
X185928570Y-83454299D02*
X185928570Y-82454299D01*
X185928570Y-82454299D02*
X185690475Y-82454299D01*
X185690475Y-82454299D02*
X185547618Y-82501918D01*
X185547618Y-82501918D02*
X185452380Y-82597156D01*
X185452380Y-82597156D02*
X185404761Y-82692394D01*
X185404761Y-82692394D02*
X185357142Y-82882870D01*
X185357142Y-82882870D02*
X185357142Y-83025727D01*
X185357142Y-83025727D02*
X185404761Y-83216203D01*
X185404761Y-83216203D02*
X185452380Y-83311441D01*
X185452380Y-83311441D02*
X185547618Y-83406680D01*
X185547618Y-83406680D02*
X185690475Y-83454299D01*
X185690475Y-83454299D02*
X185928570Y-83454299D01*
X184976189Y-83406680D02*
X184833332Y-83454299D01*
X184833332Y-83454299D02*
X184595237Y-83454299D01*
X184595237Y-83454299D02*
X184499999Y-83406680D01*
X184499999Y-83406680D02*
X184452380Y-83359060D01*
X184452380Y-83359060D02*
X184404761Y-83263822D01*
X184404761Y-83263822D02*
X184404761Y-83168584D01*
X184404761Y-83168584D02*
X184452380Y-83073346D01*
X184452380Y-83073346D02*
X184499999Y-83025727D01*
X184499999Y-83025727D02*
X184595237Y-82978108D01*
X184595237Y-82978108D02*
X184785713Y-82930489D01*
X184785713Y-82930489D02*
X184880951Y-82882870D01*
X184880951Y-82882870D02*
X184928570Y-82835251D01*
X184928570Y-82835251D02*
X184976189Y-82740013D01*
X184976189Y-82740013D02*
X184976189Y-82644775D01*
X184976189Y-82644775D02*
X184928570Y-82549537D01*
X184928570Y-82549537D02*
X184880951Y-82501918D01*
X184880951Y-82501918D02*
X184785713Y-82454299D01*
X184785713Y-82454299D02*
X184547618Y-82454299D01*
X184547618Y-82454299D02*
X184404761Y-82501918D01*
X183976189Y-83359060D02*
X183928570Y-83406680D01*
X183928570Y-83406680D02*
X183976189Y-83454299D01*
X183976189Y-83454299D02*
X184023808Y-83406680D01*
X184023808Y-83406680D02*
X183976189Y-83359060D01*
X183976189Y-83359060D02*
X183976189Y-83454299D01*
X183976189Y-82835251D02*
X183928570Y-82882870D01*
X183928570Y-82882870D02*
X183976189Y-82930489D01*
X183976189Y-82930489D02*
X184023808Y-82882870D01*
X184023808Y-82882870D02*
X183976189Y-82835251D01*
X183976189Y-82835251D02*
X183976189Y-82930489D01*
X182166666Y-83454299D02*
X182499999Y-82978108D01*
X182738094Y-83454299D02*
X182738094Y-82454299D01*
X182738094Y-82454299D02*
X182357142Y-82454299D01*
X182357142Y-82454299D02*
X182261904Y-82501918D01*
X182261904Y-82501918D02*
X182214285Y-82549537D01*
X182214285Y-82549537D02*
X182166666Y-82644775D01*
X182166666Y-82644775D02*
X182166666Y-82787632D01*
X182166666Y-82787632D02*
X182214285Y-82882870D01*
X182214285Y-82882870D02*
X182261904Y-82930489D01*
X182261904Y-82930489D02*
X182357142Y-82978108D01*
X182357142Y-82978108D02*
X182738094Y-82978108D01*
X181738094Y-82930489D02*
X181404761Y-82930489D01*
X181261904Y-83454299D02*
X181738094Y-83454299D01*
X181738094Y-83454299D02*
X181738094Y-82454299D01*
X181738094Y-82454299D02*
X181261904Y-82454299D01*
X180833332Y-83454299D02*
X180833332Y-82454299D01*
X180833332Y-82454299D02*
X180595237Y-82454299D01*
X180595237Y-82454299D02*
X180452380Y-82501918D01*
X180452380Y-82501918D02*
X180357142Y-82597156D01*
X180357142Y-82597156D02*
X180309523Y-82692394D01*
X180309523Y-82692394D02*
X180261904Y-82882870D01*
X180261904Y-82882870D02*
X180261904Y-83025727D01*
X180261904Y-83025727D02*
X180309523Y-83216203D01*
X180309523Y-83216203D02*
X180357142Y-83311441D01*
X180357142Y-83311441D02*
X180452380Y-83406680D01*
X180452380Y-83406680D02*
X180595237Y-83454299D01*
X180595237Y-83454299D02*
X180833332Y-83454299D01*
X179833332Y-82930489D02*
X179071428Y-82930489D01*
X179071428Y-83216203D02*
X179833332Y-83216203D01*
X178595237Y-83454299D02*
X178595237Y-82454299D01*
X178595237Y-82454299D02*
X178214285Y-82454299D01*
X178214285Y-82454299D02*
X178119047Y-82501918D01*
X178119047Y-82501918D02*
X178071428Y-82549537D01*
X178071428Y-82549537D02*
X178023809Y-82644775D01*
X178023809Y-82644775D02*
X178023809Y-82787632D01*
X178023809Y-82787632D02*
X178071428Y-82882870D01*
X178071428Y-82882870D02*
X178119047Y-82930489D01*
X178119047Y-82930489D02*
X178214285Y-82978108D01*
X178214285Y-82978108D02*
X178595237Y-82978108D01*
X177690475Y-82454299D02*
X177452380Y-83454299D01*
X177452380Y-83454299D02*
X177261904Y-82740013D01*
X177261904Y-82740013D02*
X177071428Y-83454299D01*
X177071428Y-83454299D02*
X176833333Y-82454299D01*
X175880952Y-83454299D02*
X176214285Y-82978108D01*
X176452380Y-83454299D02*
X176452380Y-82454299D01*
X176452380Y-82454299D02*
X176071428Y-82454299D01*
X176071428Y-82454299D02*
X175976190Y-82501918D01*
X175976190Y-82501918D02*
X175928571Y-82549537D01*
X175928571Y-82549537D02*
X175880952Y-82644775D01*
X175880952Y-82644775D02*
X175880952Y-82787632D01*
X175880952Y-82787632D02*
X175928571Y-82882870D01*
X175928571Y-82882870D02*
X175976190Y-82930489D01*
X175976190Y-82930489D02*
X176071428Y-82978108D01*
X176071428Y-82978108D02*
X176452380Y-82978108D01*
X173595237Y-82930489D02*
X173452380Y-82978108D01*
X173452380Y-82978108D02*
X173404761Y-83025727D01*
X173404761Y-83025727D02*
X173357142Y-83120965D01*
X173357142Y-83120965D02*
X173357142Y-83263822D01*
X173357142Y-83263822D02*
X173404761Y-83359060D01*
X173404761Y-83359060D02*
X173452380Y-83406680D01*
X173452380Y-83406680D02*
X173547618Y-83454299D01*
X173547618Y-83454299D02*
X173928570Y-83454299D01*
X173928570Y-83454299D02*
X173928570Y-82454299D01*
X173928570Y-82454299D02*
X173595237Y-82454299D01*
X173595237Y-82454299D02*
X173499999Y-82501918D01*
X173499999Y-82501918D02*
X173452380Y-82549537D01*
X173452380Y-82549537D02*
X173404761Y-82644775D01*
X173404761Y-82644775D02*
X173404761Y-82740013D01*
X173404761Y-82740013D02*
X173452380Y-82835251D01*
X173452380Y-82835251D02*
X173499999Y-82882870D01*
X173499999Y-82882870D02*
X173595237Y-82930489D01*
X173595237Y-82930489D02*
X173928570Y-82930489D01*
X172452380Y-83454299D02*
X172928570Y-83454299D01*
X172928570Y-83454299D02*
X172928570Y-82454299D01*
X172119046Y-82454299D02*
X172119046Y-83263822D01*
X172119046Y-83263822D02*
X172071427Y-83359060D01*
X172071427Y-83359060D02*
X172023808Y-83406680D01*
X172023808Y-83406680D02*
X171928570Y-83454299D01*
X171928570Y-83454299D02*
X171738094Y-83454299D01*
X171738094Y-83454299D02*
X171642856Y-83406680D01*
X171642856Y-83406680D02*
X171595237Y-83359060D01*
X171595237Y-83359060D02*
X171547618Y-83263822D01*
X171547618Y-83263822D02*
X171547618Y-82454299D01*
X171071427Y-82930489D02*
X170738094Y-82930489D01*
X170595237Y-83454299D02*
X171071427Y-83454299D01*
X171071427Y-83454299D02*
X171071427Y-82454299D01*
X171071427Y-82454299D02*
X170595237Y-82454299D01*
X170166665Y-82930489D02*
X169404761Y-82930489D01*
X169404761Y-83216203D02*
X170166665Y-83216203D01*
X168928570Y-83454299D02*
X168928570Y-82454299D01*
X168928570Y-82454299D02*
X168547618Y-82454299D01*
X168547618Y-82454299D02*
X168452380Y-82501918D01*
X168452380Y-82501918D02*
X168404761Y-82549537D01*
X168404761Y-82549537D02*
X168357142Y-82644775D01*
X168357142Y-82644775D02*
X168357142Y-82787632D01*
X168357142Y-82787632D02*
X168404761Y-82882870D01*
X168404761Y-82882870D02*
X168452380Y-82930489D01*
X168452380Y-82930489D02*
X168547618Y-82978108D01*
X168547618Y-82978108D02*
X168928570Y-82978108D01*
X167928570Y-83454299D02*
X167928570Y-82454299D01*
X167928570Y-82454299D02*
X167690475Y-82454299D01*
X167690475Y-82454299D02*
X167547618Y-82501918D01*
X167547618Y-82501918D02*
X167452380Y-82597156D01*
X167452380Y-82597156D02*
X167404761Y-82692394D01*
X167404761Y-82692394D02*
X167357142Y-82882870D01*
X167357142Y-82882870D02*
X167357142Y-83025727D01*
X167357142Y-83025727D02*
X167404761Y-83216203D01*
X167404761Y-83216203D02*
X167452380Y-83311441D01*
X167452380Y-83311441D02*
X167547618Y-83406680D01*
X167547618Y-83406680D02*
X167690475Y-83454299D01*
X167690475Y-83454299D02*
X167928570Y-83454299D01*
X164880951Y-82501918D02*
X164976189Y-82454299D01*
X164976189Y-82454299D02*
X165119046Y-82454299D01*
X165119046Y-82454299D02*
X165261903Y-82501918D01*
X165261903Y-82501918D02*
X165357141Y-82597156D01*
X165357141Y-82597156D02*
X165404760Y-82692394D01*
X165404760Y-82692394D02*
X165452379Y-82882870D01*
X165452379Y-82882870D02*
X165452379Y-83025727D01*
X165452379Y-83025727D02*
X165404760Y-83216203D01*
X165404760Y-83216203D02*
X165357141Y-83311441D01*
X165357141Y-83311441D02*
X165261903Y-83406680D01*
X165261903Y-83406680D02*
X165119046Y-83454299D01*
X165119046Y-83454299D02*
X165023808Y-83454299D01*
X165023808Y-83454299D02*
X164880951Y-83406680D01*
X164880951Y-83406680D02*
X164833332Y-83359060D01*
X164833332Y-83359060D02*
X164833332Y-83025727D01*
X164833332Y-83025727D02*
X165023808Y-83025727D01*
X163833332Y-83454299D02*
X164166665Y-82978108D01*
X164404760Y-83454299D02*
X164404760Y-82454299D01*
X164404760Y-82454299D02*
X164023808Y-82454299D01*
X164023808Y-82454299D02*
X163928570Y-82501918D01*
X163928570Y-82501918D02*
X163880951Y-82549537D01*
X163880951Y-82549537D02*
X163833332Y-82644775D01*
X163833332Y-82644775D02*
X163833332Y-82787632D01*
X163833332Y-82787632D02*
X163880951Y-82882870D01*
X163880951Y-82882870D02*
X163928570Y-82930489D01*
X163928570Y-82930489D02*
X164023808Y-82978108D01*
X164023808Y-82978108D02*
X164404760Y-82978108D01*
X163404760Y-82930489D02*
X163071427Y-82930489D01*
X162928570Y-83454299D02*
X163404760Y-83454299D01*
X163404760Y-83454299D02*
X163404760Y-82454299D01*
X163404760Y-82454299D02*
X162928570Y-82454299D01*
X162499998Y-82930489D02*
X162166665Y-82930489D01*
X162023808Y-83454299D02*
X162499998Y-83454299D01*
X162499998Y-83454299D02*
X162499998Y-82454299D01*
X162499998Y-82454299D02*
X162023808Y-82454299D01*
X161595236Y-83454299D02*
X161595236Y-82454299D01*
X161595236Y-82454299D02*
X161023808Y-83454299D01*
X161023808Y-83454299D02*
X161023808Y-82454299D01*
X160547617Y-82930489D02*
X159785713Y-82930489D01*
X159785713Y-83216203D02*
X160547617Y-83216203D01*
X158738094Y-83359060D02*
X158785713Y-83406680D01*
X158785713Y-83406680D02*
X158928570Y-83454299D01*
X158928570Y-83454299D02*
X159023808Y-83454299D01*
X159023808Y-83454299D02*
X159166665Y-83406680D01*
X159166665Y-83406680D02*
X159261903Y-83311441D01*
X159261903Y-83311441D02*
X159309522Y-83216203D01*
X159309522Y-83216203D02*
X159357141Y-83025727D01*
X159357141Y-83025727D02*
X159357141Y-82882870D01*
X159357141Y-82882870D02*
X159309522Y-82692394D01*
X159309522Y-82692394D02*
X159261903Y-82597156D01*
X159261903Y-82597156D02*
X159166665Y-82501918D01*
X159166665Y-82501918D02*
X159023808Y-82454299D01*
X159023808Y-82454299D02*
X158928570Y-82454299D01*
X158928570Y-82454299D02*
X158785713Y-82501918D01*
X158785713Y-82501918D02*
X158738094Y-82549537D01*
X158309522Y-83454299D02*
X158309522Y-82454299D01*
X158309522Y-82930489D02*
X157738094Y-82930489D01*
X157738094Y-83454299D02*
X157738094Y-82454299D01*
X157309522Y-83168584D02*
X156833332Y-83168584D01*
X157404760Y-83454299D02*
X157071427Y-82454299D01*
X157071427Y-82454299D02*
X156738094Y-83454299D01*
X155833332Y-83454299D02*
X156166665Y-82978108D01*
X156404760Y-83454299D02*
X156404760Y-82454299D01*
X156404760Y-82454299D02*
X156023808Y-82454299D01*
X156023808Y-82454299D02*
X155928570Y-82501918D01*
X155928570Y-82501918D02*
X155880951Y-82549537D01*
X155880951Y-82549537D02*
X155833332Y-82644775D01*
X155833332Y-82644775D02*
X155833332Y-82787632D01*
X155833332Y-82787632D02*
X155880951Y-82882870D01*
X155880951Y-82882870D02*
X155928570Y-82930489D01*
X155928570Y-82930489D02*
X156023808Y-82978108D01*
X156023808Y-82978108D02*
X156404760Y-82978108D01*
X154880951Y-82501918D02*
X154976189Y-82454299D01*
X154976189Y-82454299D02*
X155119046Y-82454299D01*
X155119046Y-82454299D02*
X155261903Y-82501918D01*
X155261903Y-82501918D02*
X155357141Y-82597156D01*
X155357141Y-82597156D02*
X155404760Y-82692394D01*
X155404760Y-82692394D02*
X155452379Y-82882870D01*
X155452379Y-82882870D02*
X155452379Y-83025727D01*
X155452379Y-83025727D02*
X155404760Y-83216203D01*
X155404760Y-83216203D02*
X155357141Y-83311441D01*
X155357141Y-83311441D02*
X155261903Y-83406680D01*
X155261903Y-83406680D02*
X155119046Y-83454299D01*
X155119046Y-83454299D02*
X155023808Y-83454299D01*
X155023808Y-83454299D02*
X154880951Y-83406680D01*
X154880951Y-83406680D02*
X154833332Y-83359060D01*
X154833332Y-83359060D02*
X154833332Y-83025727D01*
X154833332Y-83025727D02*
X155023808Y-83025727D01*
X154404760Y-83454299D02*
X154404760Y-82454299D01*
X153928570Y-83454299D02*
X153928570Y-82454299D01*
X153928570Y-82454299D02*
X153357142Y-83454299D01*
X153357142Y-83454299D02*
X153357142Y-82454299D01*
X152357142Y-82501918D02*
X152452380Y-82454299D01*
X152452380Y-82454299D02*
X152595237Y-82454299D01*
X152595237Y-82454299D02*
X152738094Y-82501918D01*
X152738094Y-82501918D02*
X152833332Y-82597156D01*
X152833332Y-82597156D02*
X152880951Y-82692394D01*
X152880951Y-82692394D02*
X152928570Y-82882870D01*
X152928570Y-82882870D02*
X152928570Y-83025727D01*
X152928570Y-83025727D02*
X152880951Y-83216203D01*
X152880951Y-83216203D02*
X152833332Y-83311441D01*
X152833332Y-83311441D02*
X152738094Y-83406680D01*
X152738094Y-83406680D02*
X152595237Y-83454299D01*
X152595237Y-83454299D02*
X152499999Y-83454299D01*
X152499999Y-83454299D02*
X152357142Y-83406680D01*
X152357142Y-83406680D02*
X152309523Y-83359060D01*
X152309523Y-83359060D02*
X152309523Y-83025727D01*
X152309523Y-83025727D02*
X152499999Y-83025727D01*
D12*
X183607141Y-89610020D02*
X183392856Y-89681448D01*
X183392856Y-89681448D02*
X183035713Y-89681448D01*
X183035713Y-89681448D02*
X182892856Y-89610020D01*
X182892856Y-89610020D02*
X182821427Y-89538591D01*
X182821427Y-89538591D02*
X182749998Y-89395734D01*
X182749998Y-89395734D02*
X182749998Y-89252877D01*
X182749998Y-89252877D02*
X182821427Y-89110020D01*
X182821427Y-89110020D02*
X182892856Y-89038591D01*
X182892856Y-89038591D02*
X183035713Y-88967162D01*
X183035713Y-88967162D02*
X183321427Y-88895734D01*
X183321427Y-88895734D02*
X183464284Y-88824305D01*
X183464284Y-88824305D02*
X183535713Y-88752877D01*
X183535713Y-88752877D02*
X183607141Y-88610020D01*
X183607141Y-88610020D02*
X183607141Y-88467162D01*
X183607141Y-88467162D02*
X183535713Y-88324305D01*
X183535713Y-88324305D02*
X183464284Y-88252877D01*
X183464284Y-88252877D02*
X183321427Y-88181448D01*
X183321427Y-88181448D02*
X182964284Y-88181448D01*
X182964284Y-88181448D02*
X182749998Y-88252877D01*
X182107142Y-89681448D02*
X182107142Y-88181448D01*
X181249999Y-89681448D02*
X181892856Y-88824305D01*
X181249999Y-88181448D02*
X182107142Y-89038591D01*
X179821427Y-88252877D02*
X179964285Y-88181448D01*
X179964285Y-88181448D02*
X180178570Y-88181448D01*
X180178570Y-88181448D02*
X180392856Y-88252877D01*
X180392856Y-88252877D02*
X180535713Y-88395734D01*
X180535713Y-88395734D02*
X180607142Y-88538591D01*
X180607142Y-88538591D02*
X180678570Y-88824305D01*
X180678570Y-88824305D02*
X180678570Y-89038591D01*
X180678570Y-89038591D02*
X180607142Y-89324305D01*
X180607142Y-89324305D02*
X180535713Y-89467162D01*
X180535713Y-89467162D02*
X180392856Y-89610020D01*
X180392856Y-89610020D02*
X180178570Y-89681448D01*
X180178570Y-89681448D02*
X180035713Y-89681448D01*
X180035713Y-89681448D02*
X179821427Y-89610020D01*
X179821427Y-89610020D02*
X179749999Y-89538591D01*
X179749999Y-89538591D02*
X179749999Y-89038591D01*
X179749999Y-89038591D02*
X180035713Y-89038591D01*
X176892856Y-88110020D02*
X178178570Y-90038591D01*
X175321427Y-88110020D02*
X176607141Y-90038591D01*
X172821427Y-89681448D02*
X173321427Y-88967162D01*
X173678570Y-89681448D02*
X173678570Y-88181448D01*
X173678570Y-88181448D02*
X173107141Y-88181448D01*
X173107141Y-88181448D02*
X172964284Y-88252877D01*
X172964284Y-88252877D02*
X172892855Y-88324305D01*
X172892855Y-88324305D02*
X172821427Y-88467162D01*
X172821427Y-88467162D02*
X172821427Y-88681448D01*
X172821427Y-88681448D02*
X172892855Y-88824305D01*
X172892855Y-88824305D02*
X172964284Y-88895734D01*
X172964284Y-88895734D02*
X173107141Y-88967162D01*
X173107141Y-88967162D02*
X173678570Y-88967162D01*
X172178570Y-88895734D02*
X171678570Y-88895734D01*
X171464284Y-89681448D02*
X172178570Y-89681448D01*
X172178570Y-89681448D02*
X172178570Y-88181448D01*
X172178570Y-88181448D02*
X171464284Y-88181448D01*
X171035712Y-88181448D02*
X170535712Y-89681448D01*
X170535712Y-89681448D02*
X170035712Y-88181448D01*
X167892856Y-88895734D02*
X167678570Y-88967162D01*
X167678570Y-88967162D02*
X167607141Y-89038591D01*
X167607141Y-89038591D02*
X167535713Y-89181448D01*
X167535713Y-89181448D02*
X167535713Y-89395734D01*
X167535713Y-89395734D02*
X167607141Y-89538591D01*
X167607141Y-89538591D02*
X167678570Y-89610020D01*
X167678570Y-89610020D02*
X167821427Y-89681448D01*
X167821427Y-89681448D02*
X168392856Y-89681448D01*
X168392856Y-89681448D02*
X168392856Y-88181448D01*
X168392856Y-88181448D02*
X167892856Y-88181448D01*
X167892856Y-88181448D02*
X167749999Y-88252877D01*
X167749999Y-88252877D02*
X167678570Y-88324305D01*
X167678570Y-88324305D02*
X167607141Y-88467162D01*
X167607141Y-88467162D02*
X167607141Y-88610020D01*
X167607141Y-88610020D02*
X167678570Y-88752877D01*
X167678570Y-88752877D02*
X167749999Y-88824305D01*
X167749999Y-88824305D02*
X167892856Y-88895734D01*
X167892856Y-88895734D02*
X168392856Y-88895734D01*
X164678570Y-88110020D02*
X165964284Y-90038591D01*
X163107141Y-88110020D02*
X164392855Y-90038591D01*
X161535712Y-88324305D02*
X161464284Y-88252877D01*
X161464284Y-88252877D02*
X161321427Y-88181448D01*
X161321427Y-88181448D02*
X160964284Y-88181448D01*
X160964284Y-88181448D02*
X160821427Y-88252877D01*
X160821427Y-88252877D02*
X160749998Y-88324305D01*
X160749998Y-88324305D02*
X160678569Y-88467162D01*
X160678569Y-88467162D02*
X160678569Y-88610020D01*
X160678569Y-88610020D02*
X160749998Y-88824305D01*
X160749998Y-88824305D02*
X161607141Y-89681448D01*
X161607141Y-89681448D02*
X160678569Y-89681448D01*
X159749998Y-88181448D02*
X159607141Y-88181448D01*
X159607141Y-88181448D02*
X159464284Y-88252877D01*
X159464284Y-88252877D02*
X159392856Y-88324305D01*
X159392856Y-88324305D02*
X159321427Y-88467162D01*
X159321427Y-88467162D02*
X159249998Y-88752877D01*
X159249998Y-88752877D02*
X159249998Y-89110020D01*
X159249998Y-89110020D02*
X159321427Y-89395734D01*
X159321427Y-89395734D02*
X159392856Y-89538591D01*
X159392856Y-89538591D02*
X159464284Y-89610020D01*
X159464284Y-89610020D02*
X159607141Y-89681448D01*
X159607141Y-89681448D02*
X159749998Y-89681448D01*
X159749998Y-89681448D02*
X159892856Y-89610020D01*
X159892856Y-89610020D02*
X159964284Y-89538591D01*
X159964284Y-89538591D02*
X160035713Y-89395734D01*
X160035713Y-89395734D02*
X160107141Y-89110020D01*
X160107141Y-89110020D02*
X160107141Y-88752877D01*
X160107141Y-88752877D02*
X160035713Y-88467162D01*
X160035713Y-88467162D02*
X159964284Y-88324305D01*
X159964284Y-88324305D02*
X159892856Y-88252877D01*
X159892856Y-88252877D02*
X159749998Y-88181448D01*
X158678570Y-88324305D02*
X158607142Y-88252877D01*
X158607142Y-88252877D02*
X158464285Y-88181448D01*
X158464285Y-88181448D02*
X158107142Y-88181448D01*
X158107142Y-88181448D02*
X157964285Y-88252877D01*
X157964285Y-88252877D02*
X157892856Y-88324305D01*
X157892856Y-88324305D02*
X157821427Y-88467162D01*
X157821427Y-88467162D02*
X157821427Y-88610020D01*
X157821427Y-88610020D02*
X157892856Y-88824305D01*
X157892856Y-88824305D02*
X158749999Y-89681448D01*
X158749999Y-89681448D02*
X157821427Y-89681448D01*
X156535714Y-88181448D02*
X156821428Y-88181448D01*
X156821428Y-88181448D02*
X156964285Y-88252877D01*
X156964285Y-88252877D02*
X157035714Y-88324305D01*
X157035714Y-88324305D02*
X157178571Y-88538591D01*
X157178571Y-88538591D02*
X157249999Y-88824305D01*
X157249999Y-88824305D02*
X157249999Y-89395734D01*
X157249999Y-89395734D02*
X157178571Y-89538591D01*
X157178571Y-89538591D02*
X157107142Y-89610020D01*
X157107142Y-89610020D02*
X156964285Y-89681448D01*
X156964285Y-89681448D02*
X156678571Y-89681448D01*
X156678571Y-89681448D02*
X156535714Y-89610020D01*
X156535714Y-89610020D02*
X156464285Y-89538591D01*
X156464285Y-89538591D02*
X156392856Y-89395734D01*
X156392856Y-89395734D02*
X156392856Y-89038591D01*
X156392856Y-89038591D02*
X156464285Y-88895734D01*
X156464285Y-88895734D02*
X156535714Y-88824305D01*
X156535714Y-88824305D02*
X156678571Y-88752877D01*
X156678571Y-88752877D02*
X156964285Y-88752877D01*
X156964285Y-88752877D02*
X157107142Y-88824305D01*
X157107142Y-88824305D02*
X157178571Y-88895734D01*
X157178571Y-88895734D02*
X157249999Y-89038591D01*
M02*
