%TF.GenerationSoftware,KiCad,Pcbnew,10.0.4*%
%TF.CreationDate,2026-07-22T10:23:11-07:00*%
%TF.ProjectId,default,64656661-756c-4742-9e6b-696361645f70,rev?*%
%TF.SameCoordinates,Original*%
%TF.FileFunction,Paste,Top*%
%TF.FilePolarity,Positive*%
%FSLAX46Y46*%
G04 Gerber Fmt 4.6, Leading zero omitted, Abs format (unit mm)*
G04 Created by KiCad (PCBNEW 10.0.4) date 2026-07-22 10:23:11*
%MOMM*%
%LPD*%
G01*
G04 APERTURE LIST*
%ADD10R,1.350000X1.410000*%
%ADD11R,1.210000X1.700000*%
%ADD12R,0.800000X0.800000*%
%ADD13R,0.570000X0.540000*%
%ADD14R,0.540000X0.500000*%
%ADD15C,0.610000*%
%ADD16O,0.570000X2.040000*%
%ADD17R,2.000000X2.000000*%
%ADD18R,0.540000X0.570000*%
%ADD19R,0.790000X0.400000*%
%ADD20R,1.100000X0.550000*%
%ADD21R,1.100000X0.300000*%
%ADD22R,1.410000X3.500000*%
%ADD23R,2.920000X6.420000*%
%ADD24R,2.190000X2.050000*%
%ADD25R,3.300000X2.700000*%
%ADD26R,0.600000X1.500000*%
%ADD27R,3.300000X2.100000*%
%ADD28R,0.800000X0.900000*%
G04 APERTURE END LIST*
D10*
%TO.C,C9*%
X101500000Y-64000000D03*
X101500000Y-62000000D03*
%TD*%
D11*
%TO.C,R47*%
X259270000Y-55000000D03*
X262230000Y-55000000D03*
%TD*%
D12*
%TO.C,LED10*%
X71200000Y-88000000D03*
X72800000Y-88000000D03*
%TD*%
D13*
%TO.C,R3*%
X252070000Y-78000000D03*
X252930000Y-78000000D03*
%TD*%
%TO.C,R30*%
X168820000Y-84000000D03*
X169680000Y-84000000D03*
%TD*%
%TO.C,R19*%
X63570000Y-56000000D03*
X64430000Y-56000000D03*
%TD*%
D14*
%TO.C,C3*%
X85500000Y-62420000D03*
X85500000Y-61580000D03*
%TD*%
D10*
%TO.C,C22*%
X104500000Y-89000000D03*
X104500000Y-87000000D03*
%TD*%
D15*
%TO.C,U4*%
X87500000Y-77500000D03*
X87500000Y-78500000D03*
X88500000Y-77500000D03*
X88500000Y-78500000D03*
D16*
X86090000Y-80770000D03*
X87370000Y-80770000D03*
X88630000Y-80770000D03*
X89900000Y-80770000D03*
X89900000Y-75230000D03*
X88630000Y-75230000D03*
X87370000Y-75230000D03*
X86090000Y-75230000D03*
D17*
X88000000Y-78000000D03*
%TD*%
D10*
%TO.C,C28*%
X218750000Y-67000000D03*
X218750000Y-65000000D03*
%TD*%
%TO.C,C18*%
X82500000Y-76000000D03*
X82500000Y-74000000D03*
%TD*%
D14*
%TO.C,C14*%
X98500000Y-78420000D03*
X98500000Y-77580000D03*
%TD*%
D12*
%TO.C,LED4*%
X162950000Y-91000000D03*
X164550000Y-91000000D03*
%TD*%
D11*
%TO.C,R27*%
X146770000Y-55000000D03*
X149730000Y-55000000D03*
%TD*%
D18*
%TO.C,R48*%
X271250000Y-63430000D03*
X271250000Y-62570000D03*
%TD*%
%TO.C,R45*%
X248750000Y-69430000D03*
X248750000Y-68570000D03*
%TD*%
%TO.C,R44*%
X248750000Y-63430000D03*
X248750000Y-62570000D03*
%TD*%
D19*
%TO.C,USB4*%
X164980000Y-63200000D03*
X164980000Y-64000000D03*
X164980000Y-64800000D03*
X164980000Y-65600000D03*
X164980000Y-66400000D03*
X164980000Y-67200000D03*
X164980000Y-68000000D03*
X164980000Y-68800000D03*
X167520000Y-68800000D03*
X167520000Y-68000000D03*
X167520000Y-67200000D03*
X167520000Y-66400000D03*
X167520000Y-65600000D03*
X167520000Y-64800000D03*
X167520000Y-64000000D03*
X167520000Y-63200000D03*
%TD*%
%TO.C,USB6*%
X209980000Y-63200000D03*
X209980000Y-64000000D03*
X209980000Y-64800000D03*
X209980000Y-65600000D03*
X209980000Y-66400000D03*
X209980000Y-67200000D03*
X209980000Y-68000000D03*
X209980000Y-68800000D03*
X212520000Y-68800000D03*
X212520000Y-68000000D03*
X212520000Y-67200000D03*
X212520000Y-66400000D03*
X212520000Y-65600000D03*
X212520000Y-64800000D03*
X212520000Y-64000000D03*
X212520000Y-63200000D03*
%TD*%
D20*
%TO.C,USB1*%
X57380000Y-58800000D03*
X57380000Y-59600000D03*
D21*
X57380000Y-60750000D03*
X57380000Y-61750000D03*
X57380000Y-62250000D03*
X57380000Y-63250000D03*
D20*
X57380000Y-65200000D03*
X57380000Y-64400000D03*
D21*
X57380000Y-63750000D03*
X57380000Y-62750000D03*
X57380000Y-61250000D03*
X57380000Y-60250000D03*
%TD*%
D19*
%TO.C,USB3*%
X142480000Y-63200000D03*
X142480000Y-64000000D03*
X142480000Y-64800000D03*
X142480000Y-65600000D03*
X142480000Y-66400000D03*
X142480000Y-67200000D03*
X142480000Y-68000000D03*
X142480000Y-68800000D03*
X145020000Y-68800000D03*
X145020000Y-68000000D03*
X145020000Y-67200000D03*
X145020000Y-66400000D03*
X145020000Y-65600000D03*
X145020000Y-64800000D03*
X145020000Y-64000000D03*
X145020000Y-63200000D03*
%TD*%
D12*
%TO.C,LED7*%
X230450000Y-91000000D03*
X232050000Y-91000000D03*
%TD*%
D18*
%TO.C,R16*%
X107500000Y-74930000D03*
X107500000Y-74070000D03*
%TD*%
D10*
%TO.C,C21*%
X104500000Y-84500000D03*
X104500000Y-82500000D03*
%TD*%
D13*
%TO.C,R34*%
X191320000Y-84000000D03*
X192180000Y-84000000D03*
%TD*%
D18*
%TO.C,R20*%
X113750000Y-63430000D03*
X113750000Y-62570000D03*
%TD*%
D13*
%TO.C,R22*%
X123820000Y-84000000D03*
X124680000Y-84000000D03*
%TD*%
D12*
%TO.C,LED9*%
X275450000Y-91000000D03*
X277050000Y-91000000D03*
%TD*%
D18*
%TO.C,R32*%
X181250000Y-63430000D03*
X181250000Y-62570000D03*
%TD*%
D10*
%TO.C,C19*%
X101500000Y-84500000D03*
X101500000Y-82500000D03*
%TD*%
D11*
%TO.C,R31*%
X169270000Y-55000000D03*
X172230000Y-55000000D03*
%TD*%
D14*
%TO.C,C4*%
X98500000Y-57420000D03*
X98500000Y-56580000D03*
%TD*%
D22*
%TO.C,F6*%
X227900000Y-55000000D03*
X231600000Y-55000000D03*
%TD*%
%TO.C,F3*%
X160400000Y-55000000D03*
X164100000Y-55000000D03*
%TD*%
D23*
%TO.C,L1*%
X89620000Y-67000000D03*
X96380000Y-67000000D03*
%TD*%
D11*
%TO.C,R39*%
X214270000Y-55000000D03*
X217230000Y-55000000D03*
%TD*%
D18*
%TO.C,R15*%
X107500000Y-53930000D03*
X107500000Y-53070000D03*
%TD*%
%TO.C,R40*%
X226250000Y-63430000D03*
X226250000Y-62570000D03*
%TD*%
D13*
%TO.C,R26*%
X146320000Y-84000000D03*
X147180000Y-84000000D03*
%TD*%
D12*
%TO.C,LED3*%
X140450000Y-91000000D03*
X142050000Y-91000000D03*
%TD*%
D22*
%TO.C,F2*%
X137900000Y-55000000D03*
X141600000Y-55000000D03*
%TD*%
D10*
%TO.C,C31*%
X286250000Y-67000000D03*
X286250000Y-65000000D03*
%TD*%
D13*
%TO.C,R2*%
X162070000Y-75000000D03*
X162930000Y-75000000D03*
%TD*%
D15*
%TO.C,U3*%
X87500000Y-56500000D03*
X87500000Y-57500000D03*
X88500000Y-56500000D03*
X88500000Y-57500000D03*
D16*
X86090000Y-59770000D03*
X87370000Y-59770000D03*
X88630000Y-59770000D03*
X89900000Y-59770000D03*
X89900000Y-54230000D03*
X88630000Y-54230000D03*
X87370000Y-54230000D03*
X86090000Y-54230000D03*
D17*
X88000000Y-57000000D03*
%TD*%
D11*
%TO.C,R43*%
X236770000Y-55000000D03*
X239730000Y-55000000D03*
%TD*%
D18*
%TO.C,R10*%
X103000000Y-74930000D03*
X103000000Y-74070000D03*
%TD*%
D16*
%TO.C,U2*%
X241190000Y-79620000D03*
X242460000Y-79620000D03*
X243730000Y-79620000D03*
X245000000Y-79620000D03*
X246270000Y-79620000D03*
X247540000Y-79620000D03*
X248810000Y-79620000D03*
X248810000Y-74380000D03*
X247540000Y-74380000D03*
X246270000Y-74380000D03*
X245000000Y-74380000D03*
X243730000Y-74380000D03*
X242460000Y-74380000D03*
X241190000Y-74380000D03*
%TD*%
D10*
%TO.C,C7*%
X82500000Y-59500000D03*
X82500000Y-57500000D03*
%TD*%
D18*
%TO.C,R13*%
X107500000Y-57430000D03*
X107500000Y-56570000D03*
%TD*%
D24*
%TO.C,D2*%
X94000000Y-80360000D03*
X94000000Y-75640000D03*
%TD*%
D19*
%TO.C,USB9*%
X277480000Y-63200000D03*
X277480000Y-64000000D03*
X277480000Y-64800000D03*
X277480000Y-65600000D03*
X277480000Y-66400000D03*
X277480000Y-67200000D03*
X277480000Y-68000000D03*
X277480000Y-68800000D03*
X280020000Y-68800000D03*
X280020000Y-68000000D03*
X280020000Y-67200000D03*
X280020000Y-66400000D03*
X280020000Y-65600000D03*
X280020000Y-64800000D03*
X280020000Y-64000000D03*
X280020000Y-63200000D03*
%TD*%
D13*
%TO.C,R50*%
X281320000Y-84000000D03*
X282180000Y-84000000D03*
%TD*%
%TO.C,R52*%
X76070000Y-88000000D03*
X76930000Y-88000000D03*
%TD*%
D22*
%TO.C,F7*%
X250400000Y-55000000D03*
X254100000Y-55000000D03*
%TD*%
D19*
%TO.C,USB2*%
X119980000Y-63200000D03*
X119980000Y-64000000D03*
X119980000Y-64800000D03*
X119980000Y-65600000D03*
X119980000Y-66400000D03*
X119980000Y-67200000D03*
X119980000Y-68000000D03*
X119980000Y-68800000D03*
X122520000Y-68800000D03*
X122520000Y-68000000D03*
X122520000Y-67200000D03*
X122520000Y-66400000D03*
X122520000Y-65600000D03*
X122520000Y-64800000D03*
X122520000Y-64000000D03*
X122520000Y-63200000D03*
%TD*%
D18*
%TO.C,R14*%
X107500000Y-78430000D03*
X107500000Y-77570000D03*
%TD*%
D14*
%TO.C,C2*%
X237500000Y-77420000D03*
X237500000Y-76580000D03*
%TD*%
D10*
%TO.C,C17*%
X82500000Y-80500000D03*
X82500000Y-78500000D03*
%TD*%
D22*
%TO.C,F4*%
X182900000Y-55000000D03*
X186600000Y-55000000D03*
%TD*%
D10*
%TO.C,C12*%
X104500000Y-68500000D03*
X104500000Y-66500000D03*
%TD*%
D11*
%TO.C,R23*%
X124270000Y-55000000D03*
X127230000Y-55000000D03*
%TD*%
D18*
%TO.C,R25*%
X136250000Y-69430000D03*
X136250000Y-68570000D03*
%TD*%
D14*
%TO.C,C5*%
X100500000Y-57420000D03*
X100500000Y-56580000D03*
%TD*%
D22*
%TO.C,F8*%
X272900000Y-55000000D03*
X276600000Y-55000000D03*
%TD*%
D18*
%TO.C,R8*%
X100500000Y-53930000D03*
X100500000Y-53070000D03*
%TD*%
%TO.C,R41*%
X226250000Y-69430000D03*
X226250000Y-68570000D03*
%TD*%
D13*
%TO.C,R42*%
X236320000Y-84000000D03*
X237180000Y-84000000D03*
%TD*%
D18*
%TO.C,R9*%
X98500000Y-74930000D03*
X98500000Y-74070000D03*
%TD*%
D10*
%TO.C,C20*%
X101500000Y-89000000D03*
X101500000Y-87000000D03*
%TD*%
D18*
%TO.C,R21*%
X113750000Y-69430000D03*
X113750000Y-68570000D03*
%TD*%
D10*
%TO.C,C8*%
X82500000Y-55000000D03*
X82500000Y-53000000D03*
%TD*%
D13*
%TO.C,R18*%
X66570000Y-70500000D03*
X67430000Y-70500000D03*
%TD*%
D18*
%TO.C,R36*%
X203750000Y-63430000D03*
X203750000Y-62570000D03*
%TD*%
D12*
%TO.C,LED5*%
X185450000Y-91000000D03*
X187050000Y-91000000D03*
%TD*%
D10*
%TO.C,C25*%
X151250000Y-67000000D03*
X151250000Y-65000000D03*
%TD*%
%TO.C,C29*%
X241250000Y-67000000D03*
X241250000Y-65000000D03*
%TD*%
D23*
%TO.C,L2*%
X89620000Y-87500000D03*
X96380000Y-87500000D03*
%TD*%
D12*
%TO.C,LED8*%
X252950000Y-91000000D03*
X254550000Y-91000000D03*
%TD*%
D19*
%TO.C,USB5*%
X187480000Y-63200000D03*
X187480000Y-64000000D03*
X187480000Y-64800000D03*
X187480000Y-65600000D03*
X187480000Y-66400000D03*
X187480000Y-67200000D03*
X187480000Y-68000000D03*
X187480000Y-68800000D03*
X190020000Y-68800000D03*
X190020000Y-68000000D03*
X190020000Y-67200000D03*
X190020000Y-66400000D03*
X190020000Y-65600000D03*
X190020000Y-64800000D03*
X190020000Y-64000000D03*
X190020000Y-63200000D03*
%TD*%
D13*
%TO.C,R4*%
X252070000Y-75000000D03*
X252930000Y-75000000D03*
%TD*%
D10*
%TO.C,C6*%
X82500000Y-64000000D03*
X82500000Y-62000000D03*
%TD*%
D25*
%TO.C,D4*%
X71500000Y-77690000D03*
X71500000Y-70310000D03*
%TD*%
D10*
%TO.C,C27*%
X196250000Y-67000000D03*
X196250000Y-65000000D03*
%TD*%
D12*
%TO.C,LED2*%
X117950000Y-91000000D03*
X119550000Y-91000000D03*
%TD*%
D18*
%TO.C,R49*%
X271250000Y-69430000D03*
X271250000Y-68570000D03*
%TD*%
%TO.C,R37*%
X203750000Y-69430000D03*
X203750000Y-68570000D03*
%TD*%
D11*
%TO.C,R51*%
X281770000Y-55000000D03*
X284730000Y-55000000D03*
%TD*%
D25*
%TO.C,D3*%
X78000000Y-77690000D03*
X78000000Y-70310000D03*
%TD*%
D18*
%TO.C,R5*%
X98500000Y-53930000D03*
X98500000Y-53070000D03*
%TD*%
D10*
%TO.C,C11*%
X104500000Y-64000000D03*
X104500000Y-62000000D03*
%TD*%
D22*
%TO.C,F5*%
X205400000Y-55000000D03*
X209100000Y-55000000D03*
%TD*%
D14*
%TO.C,C15*%
X100500000Y-78420000D03*
X100500000Y-77580000D03*
%TD*%
D18*
%TO.C,R33*%
X181250000Y-69430000D03*
X181250000Y-68570000D03*
%TD*%
D26*
%TO.C,U5*%
X62000000Y-65000000D03*
X63000000Y-65000000D03*
X64000000Y-65000000D03*
X65000000Y-65000000D03*
X66000000Y-65000000D03*
X66000000Y-59000000D03*
X65000000Y-59000000D03*
X64000000Y-59000000D03*
X63000000Y-59000000D03*
X62000000Y-59000000D03*
D27*
X64000000Y-62000000D03*
%TD*%
D18*
%TO.C,R24*%
X136250000Y-63430000D03*
X136250000Y-62570000D03*
%TD*%
D22*
%TO.C,F1*%
X115400000Y-55000000D03*
X119100000Y-55000000D03*
%TD*%
D12*
%TO.C,LED1*%
X63200000Y-70500000D03*
X64800000Y-70500000D03*
%TD*%
D19*
%TO.C,USB7*%
X232480000Y-63200000D03*
X232480000Y-64000000D03*
X232480000Y-64800000D03*
X232480000Y-65600000D03*
X232480000Y-66400000D03*
X232480000Y-67200000D03*
X232480000Y-68000000D03*
X232480000Y-68800000D03*
X235020000Y-68800000D03*
X235020000Y-68000000D03*
X235020000Y-67200000D03*
X235020000Y-66400000D03*
X235020000Y-65600000D03*
X235020000Y-64800000D03*
X235020000Y-64000000D03*
X235020000Y-63200000D03*
%TD*%
D12*
%TO.C,LED6*%
X207950000Y-91000000D03*
X209550000Y-91000000D03*
%TD*%
D18*
%TO.C,R29*%
X158750000Y-69430000D03*
X158750000Y-68570000D03*
%TD*%
%TO.C,R12*%
X100500000Y-74930000D03*
X100500000Y-74070000D03*
%TD*%
D14*
%TO.C,C1*%
X147500000Y-77420000D03*
X147500000Y-76580000D03*
%TD*%
D13*
%TO.C,R46*%
X258820000Y-84000000D03*
X259680000Y-84000000D03*
%TD*%
D10*
%TO.C,C10*%
X101500000Y-68500000D03*
X101500000Y-66500000D03*
%TD*%
D13*
%TO.C,R38*%
X213820000Y-84000000D03*
X214680000Y-84000000D03*
%TD*%
D10*
%TO.C,C16*%
X82500000Y-85000000D03*
X82500000Y-83000000D03*
%TD*%
%TO.C,C24*%
X128750000Y-67000000D03*
X128750000Y-65000000D03*
%TD*%
D19*
%TO.C,USB8*%
X254980000Y-63200000D03*
X254980000Y-64000000D03*
X254980000Y-64800000D03*
X254980000Y-65600000D03*
X254980000Y-66400000D03*
X254980000Y-67200000D03*
X254980000Y-68000000D03*
X254980000Y-68800000D03*
X257520000Y-68800000D03*
X257520000Y-68000000D03*
X257520000Y-67200000D03*
X257520000Y-66400000D03*
X257520000Y-65600000D03*
X257520000Y-64800000D03*
X257520000Y-64000000D03*
X257520000Y-63200000D03*
%TD*%
D16*
%TO.C,U1*%
X151190000Y-79620000D03*
X152460000Y-79620000D03*
X153730000Y-79620000D03*
X155000000Y-79620000D03*
X156270000Y-79620000D03*
X157540000Y-79620000D03*
X158810000Y-79620000D03*
X158810000Y-74380000D03*
X157540000Y-74380000D03*
X156270000Y-74380000D03*
X155000000Y-74380000D03*
X153730000Y-74380000D03*
X152460000Y-74380000D03*
X151190000Y-74380000D03*
%TD*%
D10*
%TO.C,C30*%
X263750000Y-67000000D03*
X263750000Y-65000000D03*
%TD*%
%TO.C,C26*%
X173750000Y-67000000D03*
X173750000Y-65000000D03*
%TD*%
D28*
%TO.C,C23*%
X68800000Y-56000000D03*
X70200000Y-56000000D03*
%TD*%
D14*
%TO.C,C13*%
X85500000Y-83420000D03*
X85500000Y-82580000D03*
%TD*%
D13*
%TO.C,R1*%
X162070000Y-78000000D03*
X162930000Y-78000000D03*
%TD*%
%TO.C,R17*%
X63570000Y-67500000D03*
X64430000Y-67500000D03*
%TD*%
D18*
%TO.C,R11*%
X103000000Y-78430000D03*
X103000000Y-77570000D03*
%TD*%
D11*
%TO.C,R35*%
X191770000Y-55000000D03*
X194730000Y-55000000D03*
%TD*%
D18*
%TO.C,R6*%
X103000000Y-53930000D03*
X103000000Y-53070000D03*
%TD*%
%TO.C,R7*%
X103000000Y-57430000D03*
X103000000Y-56570000D03*
%TD*%
%TO.C,R28*%
X158750000Y-63430000D03*
X158750000Y-62570000D03*
%TD*%
D24*
%TO.C,D1*%
X94000000Y-59360000D03*
X94000000Y-54640000D03*
%TD*%
M02*
