M48
; DRILL file KiCad 10.0.4 date 2026-07-22T10:23:12
; FORMAT={-:-/ absolute / metric / decimal}
; #@! TF.CreationDate,2026-07-22T10:23:12-07:00
; #@! TF.GenerationSoftware,Kicad,Pcbnew,10.0.4
; #@! TF.FileFunction,MixedPlating,1,2
FMAT,2
METRIC
; #@! TA.AperFunction,Plated,PTH,ViaDrill
T1C0.250
; #@! TA.AperFunction,Plated,PTH,ViaDrill
T2C0.300
; #@! TA.AperFunction,Plated,PTH,ComponentDrill
T3C0.300
; #@! TA.AperFunction,Plated,PTH,ViaDrill
T4C0.400
; #@! TA.AperFunction,Plated,PTH,ViaDrill
T5C0.500
; #@! TA.AperFunction,Plated,PTH,ComponentDrill
T6C0.600
; #@! TA.AperFunction,Plated,PTH,ComponentDrill
T7C0.700
; #@! TA.AperFunction,Plated,PTH,ComponentDrill
T8C1.000
; #@! TA.AperFunction,NonPlated,NPTH,ComponentDrill
T9C3.200
%
G90
G05
T1
X57.5Y-58.7
X57.5Y-59.7
X57.5Y-64.3
X57.5Y-65.3
X61.4Y-64.0
X61.95Y-65.05
X62.3Y-58.85
X63.0Y-60.05
X63.55Y-56.0
X64.7Y-70.4
X67.75Y-68.2
X68.2Y-56.0
T2
X64.0Y-62.0
X64.5Y-67.4
X70.2Y-56.0
X77.0Y-87.9
X82.2Y-62.3
X82.5Y-74.0
X82.5Y-78.5
X82.5Y-83.0
X82.7Y-52.8
X82.7Y-57.3
X87.37Y-54.23
X87.37Y-75.23
X90.801Y-59.747
X91.545Y-75.23
X91.656Y-79.858
X91.975Y-53.882
X92.392Y-55.602
X92.437Y-82.142
X94.0Y-75.64
X94.2Y-54.8
X95.511Y-77.443
X97.321Y-57.293
X97.495Y-75.637
X97.602Y-53.719
X97.63Y-54.608
X97.789Y-57.964
X97.8Y-77.6
X98.5Y-56.58
X98.598Y-79.181
X99.294Y-73.994
X99.453Y-57.378
X99.5Y-74.932
X99.5Y-78.352
X99.953Y-54.682
X100.5Y-56.58
X100.5Y-77.58
X101.0Y-74.1
X101.1Y-82.9
X101.2Y-53.2
X101.5Y-62.0
X101.5Y-66.5
X101.5Y-87.0
X101.8Y-55.5
X102.206Y-74.07
X103.154Y-55.13
X103.2Y-77.3
X103.352Y-58.224
X103.775Y-78.855
X103.92Y-52.433
X104.1Y-82.9
X104.5Y-62.0
X104.5Y-87.0
X104.8Y-66.2
X107.3Y-56.4
X107.4Y-77.5
X108.49Y-73.396
X108.49Y-78.432
X117.95Y-84.0
X117.95Y-89.1
X119.053Y-69.911
X119.55Y-84.0
X119.55Y-89.1
X119.98Y-63.2
X120.4Y-69.3
X121.599Y-67.09
X122.52Y-63.2
X122.52Y-68.8
X128.75Y-65.0
X140.45Y-84.0
X140.45Y-89.1
X141.15Y-60.9
X142.05Y-84.0
X142.05Y-89.1
X142.48Y-63.2
X142.48Y-68.8
X143.85Y-60.9
X144.8Y-69.0
X145.02Y-63.2
X147.5Y-76.58
X150.103Y-73.008
X150.103Y-86.187
X151.25Y-65.0
X152.291Y-72.84
X153.343Y-75.862
X153.343Y-81.126
X153.73Y-74.38
X158.689Y-82.698
X161.929Y-70.188
X162.4Y-78.9
X162.95Y-84.0
X162.95Y-89.1
X164.55Y-84.0
X164.55Y-89.1
X164.98Y-63.2
X164.98Y-68.8
X167.52Y-63.2
X167.52Y-68.8
X169.914Y-67.19
X173.75Y-65.0
X182.032Y-63.467
X184.83Y-70.999
X185.45Y-84.0
X185.45Y-89.1
X186.482Y-64.935
X187.05Y-84.0
X187.05Y-89.1
X187.48Y-63.2
X187.8Y-69.0
X188.628Y-67.2
X190.02Y-63.2
X190.02Y-68.8
X196.25Y-65.0
X202.975Y-63.43
X207.415Y-69.43
X207.95Y-84.0
X207.95Y-89.1
X208.958Y-64.911
X209.55Y-84.0
X209.55Y-89.1
X209.98Y-63.2
X209.98Y-68.8
X210.923Y-67.29
X212.52Y-63.2
X212.52Y-68.8
X218.75Y-65.0
X229.682Y-69.43
X230.45Y-84.0
X230.45Y-89.1
X232.05Y-84.0
X232.05Y-89.1
X232.48Y-63.2
X232.48Y-68.8
X235.02Y-63.2
X235.02Y-68.8
X235.951Y-66.561
X237.5Y-76.58
X241.25Y-65.0
X243.73Y-74.38
X249.021Y-75.926
X249.021Y-78.087
X249.5Y-70.6
X249.7Y-71.3
X249.7Y-78.9
X250.058Y-77.267
X250.2Y-79.4
X250.3Y-73.9
X250.4Y-71.35
X250.7Y-79.9
X250.95Y-73.85
X251.2Y-74.5
X251.3Y-55.4
X251.45Y-56.1
X251.7Y-80.75
X251.9Y-74.4
X252.0Y-55.7
X252.3Y-67.35
X252.6Y-55.1
X252.95Y-75.95
X252.95Y-84.0
X252.95Y-89.1
X253.037Y-70.999
X253.7Y-78.0
X254.55Y-84.0
X254.55Y-89.1
X254.98Y-63.2
X255.5Y-69.3
X256.617Y-67.2
X257.52Y-63.2
X257.52Y-68.8
X263.75Y-65.0
X273.149Y-63.43
X275.45Y-84.0
X275.45Y-89.1
X276.389Y-70.999
X277.05Y-84.0
X277.05Y-89.1
X277.48Y-63.2
X277.8Y-69.2
X278.401Y-64.8
X278.934Y-67.09
X280.02Y-63.2
X280.02Y-68.8
X286.25Y-65.0
T3
X87.5Y-56.5
X87.5Y-57.5
X87.5Y-77.5
X87.5Y-78.5
X88.5Y-56.5
X88.5Y-57.5
X88.5Y-77.5
X88.5Y-78.5
T4
X103.7Y-90.6
X104.5Y-90.6
X128.75Y-68.385
X128.75Y-85.458
X143.537Y-68.0
X154.815Y-59.137
X154.815Y-67.826
X156.27Y-81.242
X157.639Y-59.29
X157.639Y-72.758
X210.4Y-90.6
X211.2Y-90.6
X220.027Y-67.0
X241.645Y-82.715
X246.27Y-81.242
X246.482Y-59.29
X246.482Y-67.826
X247.518Y-76.023
X247.681Y-62.57
X250.287Y-68.239
T5
X79.125Y-84.488
X81.493Y-51.493
X82.5Y-65.451
X83.89Y-55.0
X84.003Y-70.999
X84.413Y-62.77
X85.896Y-76.962
X88.031Y-61.547
X91.6Y-78.533
X104.478Y-76.018
X105.523Y-54.419
X116.434Y-79.44
X116.434Y-87.0
X143.623Y-84.257
X160.668Y-74.225
X160.668Y-85.218
X160.668Y-87.88
X161.668Y-57.342
X164.198Y-78.328
X183.761Y-65.59
X251.065Y-75.328
X251.159Y-81.362
X251.907Y-55.0
X256.25Y-79.94
X275.243Y-65.0
T7
X56.3Y-59.11
X56.3Y-64.89
T9
X53.0Y-53.0
X53.0Y-72.0
X53.0Y-94.0
X172.4Y-94.0
X177.0Y-59.0
X287.0Y-59.0
X287.0Y-94.0
T6
X52.92Y-57.68G85X52.32Y-57.68
G05
X52.92Y-66.32G85X52.32Y-66.32
G05
X57.28Y-57.68G85X56.38Y-57.68
G05
X57.28Y-66.32G85X56.38Y-66.32
G05
X120.65Y-62.02G85X121.85Y-62.02
G05
X120.65Y-69.98G85X121.85Y-69.98
G05
X143.15Y-62.02G85X144.35Y-62.02
G05
X143.15Y-69.98G85X144.35Y-69.98
G05
X165.65Y-62.02G85X166.85Y-62.02
G05
X165.65Y-69.98G85X166.85Y-69.98
G05
X188.15Y-62.02G85X189.35Y-62.02
G05
X188.15Y-69.98G85X189.35Y-69.98
G05
X210.65Y-62.02G85X211.85Y-62.02
G05
X210.65Y-69.98G85X211.85Y-69.98
G05
X233.15Y-62.02G85X234.35Y-62.02
G05
X233.15Y-69.98G85X234.35Y-69.98
G05
X255.65Y-62.02G85X256.85Y-62.02
G05
X255.65Y-69.98G85X256.85Y-69.98
G05
X278.15Y-62.02G85X279.35Y-62.02
G05
X278.15Y-69.98G85X279.35Y-69.98
G05
T8
X58.0Y-80.5G85X58.0Y-82.8
G05
X59.85Y-86.35G85X62.15Y-86.35
G05
X64.0Y-82.9G85X64.0Y-80.4
G05
M30
