%TF.GenerationSoftware,KiCad,Pcbnew,10.0.4*%
%TF.CreationDate,2026-07-04T11:09:29-07:00*%
%TF.ProjectId,default,64656661-756c-4742-9e6b-696361645f70,rev?*%
%TF.SameCoordinates,Original*%
%TF.FileFunction,Drillmap*%
%TF.FilePolarity,Positive*%
%FSLAX45Y45*%
G04 Gerber Fmt 4.5, Leading zero omitted, Abs format (unit mm)*
G04 Created by KiCad (PCBNEW 10.0.4) date 2026-07-04 11:09:29*
%MOMM*%
%LPD*%
G01*
G04 APERTURE LIST*
%ADD10C,0.100000*%
%ADD11C,0.200000*%
%ADD12C,0.320000*%
G04 APERTURE END LIST*
D10*
X5000000Y-5000000D02*
X29000000Y-5000000D01*
X5000000Y-9700000D02*
X5000000Y-5000000D01*
X29000000Y-5000000D02*
X29000000Y-9700000D01*
X29000000Y-9700000D02*
X5000000Y-9700000D01*
D11*
D10*
X5562500Y-6262500D02*
X5587500Y-6287500D01*
X5587500Y-6262500D02*
X5562500Y-6287500D01*
X5562500Y-6362500D02*
X5587500Y-6387500D01*
X5587500Y-6362500D02*
X5562500Y-6387500D01*
X5777500Y-6162500D02*
X5802500Y-6187500D01*
X5802500Y-6162500D02*
X5777500Y-6187500D01*
X5777500Y-6262500D02*
X5802500Y-6287500D01*
X5802500Y-6262500D02*
X5777500Y-6287500D01*
X6647500Y-7177500D02*
X6672500Y-7202500D01*
X6672500Y-7177500D02*
X6647500Y-7202500D01*
X6662500Y-6602500D02*
X6687500Y-6627500D01*
X6687500Y-6602500D02*
X6662500Y-6627500D01*
X5265000Y-5870000D02*
G75*
G02*
X5235000Y-5870000I-15000J0D01*
G01*
X5235000Y-5870000D02*
G75*
G02*
X5265000Y-5870000I15000J0D01*
G01*
X5265000Y-6530000D02*
G75*
G02*
X5235000Y-6530000I-15000J0D01*
G01*
X5235000Y-6530000D02*
G75*
G02*
X5265000Y-6530000I15000J0D01*
G01*
X5790000Y-6390000D02*
G75*
G02*
X5760000Y-6390000I-15000J0D01*
G01*
X5760000Y-6390000D02*
G75*
G02*
X5790000Y-6390000I15000J0D01*
G01*
X5890000Y-6415000D02*
G75*
G02*
X5860000Y-6415000I-15000J0D01*
G01*
X5860000Y-6415000D02*
G75*
G02*
X5890000Y-6415000I15000J0D01*
G01*
X5920000Y-6260000D02*
G75*
G02*
X5890000Y-6260000I-15000J0D01*
G01*
X5890000Y-6260000D02*
G75*
G02*
X5920000Y-6260000I15000J0D01*
G01*
X5990000Y-6335000D02*
G75*
G02*
X5960000Y-6335000I-15000J0D01*
G01*
X5960000Y-6335000D02*
G75*
G02*
X5990000Y-6335000I15000J0D01*
G01*
X6110000Y-6970000D02*
G75*
G02*
X6080000Y-6970000I-15000J0D01*
G01*
X6080000Y-6970000D02*
G75*
G02*
X6110000Y-6970000I15000J0D01*
G01*
X6140000Y-6410000D02*
G75*
G02*
X6110000Y-6410000I-15000J0D01*
G01*
X6110000Y-6410000D02*
G75*
G02*
X6140000Y-6410000I15000J0D01*
G01*
X6145000Y-6720000D02*
G75*
G02*
X6115000Y-6720000I-15000J0D01*
G01*
X6115000Y-6720000D02*
G75*
G02*
X6145000Y-6720000I15000J0D01*
G01*
X6155000Y-6170000D02*
G75*
G02*
X6125000Y-6170000I-15000J0D01*
G01*
X6125000Y-6170000D02*
G75*
G02*
X6155000Y-6170000I15000J0D01*
G01*
X6235000Y-6570000D02*
G75*
G02*
X6205000Y-6570000I-15000J0D01*
G01*
X6205000Y-6570000D02*
G75*
G02*
X6235000Y-6570000I15000J0D01*
G01*
X6240000Y-6500000D02*
G75*
G02*
X6210000Y-6500000I-15000J0D01*
G01*
X6210000Y-6500000D02*
G75*
G02*
X6240000Y-6500000I15000J0D01*
G01*
X6290000Y-6685000D02*
G75*
G02*
X6260000Y-6685000I-15000J0D01*
G01*
X6260000Y-6685000D02*
G75*
G02*
X6290000Y-6685000I15000J0D01*
G01*
X6415000Y-5675000D02*
G75*
G02*
X6385000Y-5675000I-15000J0D01*
G01*
X6385000Y-5675000D02*
G75*
G02*
X6415000Y-5675000I15000J0D01*
G01*
X6415000Y-5805000D02*
G75*
G02*
X6385000Y-5805000I-15000J0D01*
G01*
X6385000Y-5805000D02*
G75*
G02*
X6415000Y-5805000I15000J0D01*
G01*
X6415000Y-6200000D02*
G75*
G02*
X6385000Y-6200000I-15000J0D01*
G01*
X6385000Y-6200000D02*
G75*
G02*
X6415000Y-6200000I15000J0D01*
G01*
X6465000Y-6740000D02*
G75*
G02*
X6435000Y-6740000I-15000J0D01*
G01*
X6435000Y-6740000D02*
G75*
G02*
X6465000Y-6740000I15000J0D01*
G01*
X6485000Y-7040000D02*
G75*
G02*
X6455000Y-7040000I-15000J0D01*
G01*
X6455000Y-7040000D02*
G75*
G02*
X6485000Y-7040000I15000J0D01*
G01*
X6520000Y-6355000D02*
G75*
G02*
X6490000Y-6355000I-15000J0D01*
G01*
X6490000Y-6355000D02*
G75*
G02*
X6520000Y-6355000I15000J0D01*
G01*
X6710000Y-6080000D02*
G75*
G02*
X6680000Y-6080000I-15000J0D01*
G01*
X6680000Y-6080000D02*
G75*
G02*
X6710000Y-6080000I15000J0D01*
G01*
X7035000Y-5600000D02*
G75*
G02*
X7005000Y-5600000I-15000J0D01*
G01*
X7005000Y-5600000D02*
G75*
G02*
X7035000Y-5600000I15000J0D01*
G01*
X7715000Y-8790000D02*
G75*
G02*
X7685000Y-8790000I-15000J0D01*
G01*
X7685000Y-8790000D02*
G75*
G02*
X7715000Y-8790000I15000J0D01*
G01*
X8235000Y-6230000D02*
G75*
G02*
X8205000Y-6230000I-15000J0D01*
G01*
X8205000Y-6230000D02*
G75*
G02*
X8235000Y-6230000I15000J0D01*
G01*
X8265000Y-7400000D02*
G75*
G02*
X8235000Y-7400000I-15000J0D01*
G01*
X8235000Y-7400000D02*
G75*
G02*
X8265000Y-7400000I15000J0D01*
G01*
X8265000Y-7850000D02*
G75*
G02*
X8235000Y-7850000I-15000J0D01*
G01*
X8235000Y-7850000D02*
G75*
G02*
X8265000Y-7850000I15000J0D01*
G01*
X8265000Y-8300000D02*
G75*
G02*
X8235000Y-8300000I-15000J0D01*
G01*
X8235000Y-8300000D02*
G75*
G02*
X8265000Y-8300000I15000J0D01*
G01*
X8285000Y-5280000D02*
G75*
G02*
X8255000Y-5280000I-15000J0D01*
G01*
X8255000Y-5280000D02*
G75*
G02*
X8285000Y-5280000I15000J0D01*
G01*
X8285000Y-5730000D02*
G75*
G02*
X8255000Y-5730000I-15000J0D01*
G01*
X8255000Y-5730000D02*
G75*
G02*
X8285000Y-5730000I15000J0D01*
G01*
X8752000Y-5423000D02*
G75*
G02*
X8722000Y-5423000I-15000J0D01*
G01*
X8722000Y-5423000D02*
G75*
G02*
X8752000Y-5423000I15000J0D01*
G01*
X8752000Y-7523000D02*
G75*
G02*
X8722000Y-7523000I-15000J0D01*
G01*
X8722000Y-7523000D02*
G75*
G02*
X8752000Y-7523000I15000J0D01*
G01*
X9095100Y-5974750D02*
G75*
G02*
X9065100Y-5974750I-15000J0D01*
G01*
X9065100Y-5974750D02*
G75*
G02*
X9095100Y-5974750I15000J0D01*
G01*
X9169460Y-7523000D02*
G75*
G02*
X9139460Y-7523000I-15000J0D01*
G01*
X9139460Y-7523000D02*
G75*
G02*
X9169460Y-7523000I15000J0D01*
G01*
X9180560Y-7985800D02*
G75*
G02*
X9150560Y-7985800I-15000J0D01*
G01*
X9150560Y-7985800D02*
G75*
G02*
X9180560Y-7985800I15000J0D01*
G01*
X9212500Y-5388200D02*
G75*
G02*
X9182500Y-5388200I-15000J0D01*
G01*
X9182500Y-5388200D02*
G75*
G02*
X9212500Y-5388200I15000J0D01*
G01*
X9254220Y-5560170D02*
G75*
G02*
X9224220Y-5560170I-15000J0D01*
G01*
X9224220Y-5560170D02*
G75*
G02*
X9254220Y-5560170I15000J0D01*
G01*
X9258710Y-8214170D02*
G75*
G02*
X9228710Y-8214170I-15000J0D01*
G01*
X9228710Y-8214170D02*
G75*
G02*
X9258710Y-8214170I15000J0D01*
G01*
X9415000Y-7564000D02*
G75*
G02*
X9385000Y-7564000I-15000J0D01*
G01*
X9385000Y-7564000D02*
G75*
G02*
X9415000Y-7564000I15000J0D01*
G01*
X9435000Y-5480000D02*
G75*
G02*
X9405000Y-5480000I-15000J0D01*
G01*
X9405000Y-5480000D02*
G75*
G02*
X9435000Y-5480000I15000J0D01*
G01*
X9566100Y-7744340D02*
G75*
G02*
X9536100Y-7744340I-15000J0D01*
G01*
X9536100Y-7744340D02*
G75*
G02*
X9566100Y-7744340I15000J0D01*
G01*
X9747110Y-5729350D02*
G75*
G02*
X9717110Y-5729350I-15000J0D01*
G01*
X9717110Y-5729350D02*
G75*
G02*
X9747110Y-5729350I15000J0D01*
G01*
X9764470Y-7563690D02*
G75*
G02*
X9734470Y-7563690I-15000J0D01*
G01*
X9734470Y-7563690D02*
G75*
G02*
X9764470Y-7563690I15000J0D01*
G01*
X9775240Y-5371930D02*
G75*
G02*
X9745240Y-5371930I-15000J0D01*
G01*
X9745240Y-5371930D02*
G75*
G02*
X9775240Y-5371930I15000J0D01*
G01*
X9778050Y-5460780D02*
G75*
G02*
X9748050Y-5460780I-15000J0D01*
G01*
X9748050Y-5460780D02*
G75*
G02*
X9778050Y-5460780I15000J0D01*
G01*
X9793900Y-5796390D02*
G75*
G02*
X9763900Y-5796390I-15000J0D01*
G01*
X9763900Y-5796390D02*
G75*
G02*
X9793900Y-5796390I15000J0D01*
G01*
X9795000Y-7760000D02*
G75*
G02*
X9765000Y-7760000I-15000J0D01*
G01*
X9765000Y-7760000D02*
G75*
G02*
X9795000Y-7760000I15000J0D01*
G01*
X9865000Y-5658000D02*
G75*
G02*
X9835000Y-5658000I-15000J0D01*
G01*
X9835000Y-5658000D02*
G75*
G02*
X9865000Y-5658000I15000J0D01*
G01*
X9874840Y-7918090D02*
G75*
G02*
X9844840Y-7918090I-15000J0D01*
G01*
X9844840Y-7918090D02*
G75*
G02*
X9874840Y-7918090I15000J0D01*
G01*
X9944390Y-7399390D02*
G75*
G02*
X9914390Y-7399390I-15000J0D01*
G01*
X9914390Y-7399390D02*
G75*
G02*
X9944390Y-7399390I15000J0D01*
G01*
X9960260Y-5737780D02*
G75*
G02*
X9930260Y-5737780I-15000J0D01*
G01*
X9930260Y-5737780D02*
G75*
G02*
X9960260Y-5737780I15000J0D01*
G01*
X9965000Y-7493230D02*
G75*
G02*
X9935000Y-7493230I-15000J0D01*
G01*
X9935000Y-7493230D02*
G75*
G02*
X9965000Y-7493230I15000J0D01*
G01*
X9965000Y-7835150D02*
G75*
G02*
X9935000Y-7835150I-15000J0D01*
G01*
X9935000Y-7835150D02*
G75*
G02*
X9965000Y-7835150I15000J0D01*
G01*
X10010250Y-5468200D02*
G75*
G02*
X9980250Y-5468200I-15000J0D01*
G01*
X9980250Y-5468200D02*
G75*
G02*
X10010250Y-5468200I15000J0D01*
G01*
X10065000Y-5658000D02*
G75*
G02*
X10035000Y-5658000I-15000J0D01*
G01*
X10035000Y-5658000D02*
G75*
G02*
X10065000Y-5658000I15000J0D01*
G01*
X10065000Y-7758000D02*
G75*
G02*
X10035000Y-7758000I-15000J0D01*
G01*
X10035000Y-7758000D02*
G75*
G02*
X10065000Y-7758000I15000J0D01*
G01*
X10115000Y-7410000D02*
G75*
G02*
X10085000Y-7410000I-15000J0D01*
G01*
X10085000Y-7410000D02*
G75*
G02*
X10115000Y-7410000I15000J0D01*
G01*
X10125000Y-8290000D02*
G75*
G02*
X10095000Y-8290000I-15000J0D01*
G01*
X10095000Y-8290000D02*
G75*
G02*
X10125000Y-8290000I15000J0D01*
G01*
X10135000Y-5320000D02*
G75*
G02*
X10105000Y-5320000I-15000J0D01*
G01*
X10105000Y-5320000D02*
G75*
G02*
X10135000Y-5320000I15000J0D01*
G01*
X10165000Y-6200000D02*
G75*
G02*
X10135000Y-6200000I-15000J0D01*
G01*
X10135000Y-6200000D02*
G75*
G02*
X10165000Y-6200000I15000J0D01*
G01*
X10165000Y-6650000D02*
G75*
G02*
X10135000Y-6650000I-15000J0D01*
G01*
X10135000Y-6650000D02*
G75*
G02*
X10165000Y-6650000I15000J0D01*
G01*
X10165000Y-8700000D02*
G75*
G02*
X10135000Y-8700000I-15000J0D01*
G01*
X10135000Y-8700000D02*
G75*
G02*
X10165000Y-8700000I15000J0D01*
G01*
X10195000Y-5550000D02*
G75*
G02*
X10165000Y-5550000I-15000J0D01*
G01*
X10165000Y-5550000D02*
G75*
G02*
X10195000Y-5550000I15000J0D01*
G01*
X10235640Y-7407000D02*
G75*
G02*
X10205640Y-7407000I-15000J0D01*
G01*
X10205640Y-7407000D02*
G75*
G02*
X10235640Y-7407000I15000J0D01*
G01*
X10330390Y-5513030D02*
G75*
G02*
X10300390Y-5513030I-15000J0D01*
G01*
X10300390Y-5513030D02*
G75*
G02*
X10330390Y-5513030I15000J0D01*
G01*
X10335000Y-7730000D02*
G75*
G02*
X10305000Y-7730000I-15000J0D01*
G01*
X10305000Y-7730000D02*
G75*
G02*
X10335000Y-7730000I15000J0D01*
G01*
X10350240Y-5822420D02*
G75*
G02*
X10320240Y-5822420I-15000J0D01*
G01*
X10320240Y-5822420D02*
G75*
G02*
X10350240Y-5822420I15000J0D01*
G01*
X10392520Y-7885540D02*
G75*
G02*
X10362520Y-7885540I-15000J0D01*
G01*
X10362520Y-7885540D02*
G75*
G02*
X10392520Y-7885540I15000J0D01*
G01*
X10407010Y-5243330D02*
G75*
G02*
X10377010Y-5243330I-15000J0D01*
G01*
X10377010Y-5243330D02*
G75*
G02*
X10407010Y-5243330I15000J0D01*
G01*
X10425000Y-8290000D02*
G75*
G02*
X10395000Y-8290000I-15000J0D01*
G01*
X10395000Y-8290000D02*
G75*
G02*
X10425000Y-8290000I15000J0D01*
G01*
X10465000Y-6200000D02*
G75*
G02*
X10435000Y-6200000I-15000J0D01*
G01*
X10435000Y-6200000D02*
G75*
G02*
X10465000Y-6200000I15000J0D01*
G01*
X10465000Y-8700000D02*
G75*
G02*
X10435000Y-8700000I-15000J0D01*
G01*
X10435000Y-8700000D02*
G75*
G02*
X10465000Y-8700000I15000J0D01*
G01*
X10495000Y-6620000D02*
G75*
G02*
X10465000Y-6620000I-15000J0D01*
G01*
X10465000Y-6620000D02*
G75*
G02*
X10495000Y-6620000I15000J0D01*
G01*
X10745000Y-5640000D02*
G75*
G02*
X10715000Y-5640000I-15000J0D01*
G01*
X10715000Y-5640000D02*
G75*
G02*
X10745000Y-5640000I15000J0D01*
G01*
X10755000Y-7750000D02*
G75*
G02*
X10725000Y-7750000I-15000J0D01*
G01*
X10725000Y-7750000D02*
G75*
G02*
X10755000Y-7750000I15000J0D01*
G01*
X10864000Y-7339620D02*
G75*
G02*
X10834000Y-7339620I-15000J0D01*
G01*
X10834000Y-7339620D02*
G75*
G02*
X10864000Y-7339620I15000J0D01*
G01*
X10864000Y-7843160D02*
G75*
G02*
X10834000Y-7843160I-15000J0D01*
G01*
X10834000Y-7843160D02*
G75*
G02*
X10864000Y-7843160I15000J0D01*
G01*
X11810000Y-8400000D02*
G75*
G02*
X11780000Y-8400000I-15000J0D01*
G01*
X11780000Y-8400000D02*
G75*
G02*
X11810000Y-8400000I15000J0D01*
G01*
X11810000Y-8910000D02*
G75*
G02*
X11780000Y-8910000I-15000J0D01*
G01*
X11780000Y-8910000D02*
G75*
G02*
X11810000Y-8910000I15000J0D01*
G01*
X11920330Y-6991060D02*
G75*
G02*
X11890330Y-6991060I-15000J0D01*
G01*
X11890330Y-6991060D02*
G75*
G02*
X11920330Y-6991060I15000J0D01*
G01*
X11970000Y-8400000D02*
G75*
G02*
X11940000Y-8400000I-15000J0D01*
G01*
X11940000Y-8400000D02*
G75*
G02*
X11970000Y-8400000I15000J0D01*
G01*
X11970000Y-8910000D02*
G75*
G02*
X11940000Y-8910000I-15000J0D01*
G01*
X11940000Y-8910000D02*
G75*
G02*
X11970000Y-8910000I15000J0D01*
G01*
X12013000Y-6320000D02*
G75*
G02*
X11983000Y-6320000I-15000J0D01*
G01*
X11983000Y-6320000D02*
G75*
G02*
X12013000Y-6320000I15000J0D01*
G01*
X12055000Y-6930000D02*
G75*
G02*
X12025000Y-6930000I-15000J0D01*
G01*
X12025000Y-6930000D02*
G75*
G02*
X12055000Y-6930000I15000J0D01*
G01*
X12174850Y-6708970D02*
G75*
G02*
X12144850Y-6708970I-15000J0D01*
G01*
X12144850Y-6708970D02*
G75*
G02*
X12174850Y-6708970I15000J0D01*
G01*
X12267000Y-6320000D02*
G75*
G02*
X12237000Y-6320000I-15000J0D01*
G01*
X12237000Y-6320000D02*
G75*
G02*
X12267000Y-6320000I15000J0D01*
G01*
X12267000Y-6880000D02*
G75*
G02*
X12237000Y-6880000I-15000J0D01*
G01*
X12237000Y-6880000D02*
G75*
G02*
X12267000Y-6880000I15000J0D01*
G01*
X12890000Y-6500000D02*
G75*
G02*
X12860000Y-6500000I-15000J0D01*
G01*
X12860000Y-6500000D02*
G75*
G02*
X12890000Y-6500000I15000J0D01*
G01*
X14060000Y-8400000D02*
G75*
G02*
X14030000Y-8400000I-15000J0D01*
G01*
X14030000Y-8400000D02*
G75*
G02*
X14060000Y-8400000I15000J0D01*
G01*
X14060000Y-8910000D02*
G75*
G02*
X14030000Y-8910000I-15000J0D01*
G01*
X14030000Y-8910000D02*
G75*
G02*
X14060000Y-8910000I15000J0D01*
G01*
X14130000Y-6090000D02*
G75*
G02*
X14100000Y-6090000I-15000J0D01*
G01*
X14100000Y-6090000D02*
G75*
G02*
X14130000Y-6090000I15000J0D01*
G01*
X14220000Y-8400000D02*
G75*
G02*
X14190000Y-8400000I-15000J0D01*
G01*
X14190000Y-8400000D02*
G75*
G02*
X14220000Y-8400000I15000J0D01*
G01*
X14220000Y-8910000D02*
G75*
G02*
X14190000Y-8910000I-15000J0D01*
G01*
X14190000Y-8910000D02*
G75*
G02*
X14220000Y-8910000I15000J0D01*
G01*
X14263000Y-6320000D02*
G75*
G02*
X14233000Y-6320000I-15000J0D01*
G01*
X14233000Y-6320000D02*
G75*
G02*
X14263000Y-6320000I15000J0D01*
G01*
X14263000Y-6880000D02*
G75*
G02*
X14233000Y-6880000I-15000J0D01*
G01*
X14233000Y-6880000D02*
G75*
G02*
X14263000Y-6880000I15000J0D01*
G01*
X14400000Y-6090000D02*
G75*
G02*
X14370000Y-6090000I-15000J0D01*
G01*
X14370000Y-6090000D02*
G75*
G02*
X14400000Y-6090000I15000J0D01*
G01*
X14495000Y-6900000D02*
G75*
G02*
X14465000Y-6900000I-15000J0D01*
G01*
X14465000Y-6900000D02*
G75*
G02*
X14495000Y-6900000I15000J0D01*
G01*
X14517000Y-6320000D02*
G75*
G02*
X14487000Y-6320000I-15000J0D01*
G01*
X14487000Y-6320000D02*
G75*
G02*
X14517000Y-6320000I15000J0D01*
G01*
X14765000Y-7658000D02*
G75*
G02*
X14735000Y-7658000I-15000J0D01*
G01*
X14735000Y-7658000D02*
G75*
G02*
X14765000Y-7658000I15000J0D01*
G01*
X15025340Y-7300830D02*
G75*
G02*
X14995340Y-7300830I-15000J0D01*
G01*
X14995340Y-7300830D02*
G75*
G02*
X15025340Y-7300830I15000J0D01*
G01*
X15025340Y-8618680D02*
G75*
G02*
X14995340Y-8618680I-15000J0D01*
G01*
X14995340Y-8618680D02*
G75*
G02*
X15025340Y-8618680I15000J0D01*
G01*
X15140000Y-6500000D02*
G75*
G02*
X15110000Y-6500000I-15000J0D01*
G01*
X15110000Y-6500000D02*
G75*
G02*
X15140000Y-6500000I15000J0D01*
G01*
X15244130Y-7283960D02*
G75*
G02*
X15214130Y-7283960I-15000J0D01*
G01*
X15214130Y-7283960D02*
G75*
G02*
X15244130Y-7283960I15000J0D01*
G01*
X15349250Y-7586220D02*
G75*
G02*
X15319250Y-7586220I-15000J0D01*
G01*
X15319250Y-7586220D02*
G75*
G02*
X15349250Y-7586220I15000J0D01*
G01*
X15349250Y-8112590D02*
G75*
G02*
X15319250Y-8112590I-15000J0D01*
G01*
X15319250Y-8112590D02*
G75*
G02*
X15349250Y-8112590I15000J0D01*
G01*
X15388000Y-7438000D02*
G75*
G02*
X15358000Y-7438000I-15000J0D01*
G01*
X15358000Y-7438000D02*
G75*
G02*
X15388000Y-7438000I15000J0D01*
G01*
X15883910Y-8269810D02*
G75*
G02*
X15853910Y-8269810I-15000J0D01*
G01*
X15853910Y-8269810D02*
G75*
G02*
X15883910Y-8269810I15000J0D01*
G01*
X16207870Y-7018770D02*
G75*
G02*
X16177870Y-7018770I-15000J0D01*
G01*
X16177870Y-7018770D02*
G75*
G02*
X16207870Y-7018770I15000J0D01*
G01*
X16255000Y-7890000D02*
G75*
G02*
X16225000Y-7890000I-15000J0D01*
G01*
X16225000Y-7890000D02*
G75*
G02*
X16255000Y-7890000I15000J0D01*
G01*
X16310000Y-8400000D02*
G75*
G02*
X16280000Y-8400000I-15000J0D01*
G01*
X16280000Y-8400000D02*
G75*
G02*
X16310000Y-8400000I15000J0D01*
G01*
X16310000Y-8910000D02*
G75*
G02*
X16280000Y-8910000I-15000J0D01*
G01*
X16280000Y-8910000D02*
G75*
G02*
X16310000Y-8910000I15000J0D01*
G01*
X16470000Y-8400000D02*
G75*
G02*
X16440000Y-8400000I-15000J0D01*
G01*
X16440000Y-8400000D02*
G75*
G02*
X16470000Y-8400000I15000J0D01*
G01*
X16470000Y-8910000D02*
G75*
G02*
X16440000Y-8910000I-15000J0D01*
G01*
X16440000Y-8910000D02*
G75*
G02*
X16470000Y-8910000I15000J0D01*
G01*
X16513000Y-6320000D02*
G75*
G02*
X16483000Y-6320000I-15000J0D01*
G01*
X16483000Y-6320000D02*
G75*
G02*
X16513000Y-6320000I15000J0D01*
G01*
X16513000Y-6880000D02*
G75*
G02*
X16483000Y-6880000I-15000J0D01*
G01*
X16483000Y-6880000D02*
G75*
G02*
X16513000Y-6880000I15000J0D01*
G01*
X16767000Y-6320000D02*
G75*
G02*
X16737000Y-6320000I-15000J0D01*
G01*
X16737000Y-6320000D02*
G75*
G02*
X16767000Y-6320000I15000J0D01*
G01*
X16767000Y-6880000D02*
G75*
G02*
X16737000Y-6880000I-15000J0D01*
G01*
X16737000Y-6880000D02*
G75*
G02*
X16767000Y-6880000I15000J0D01*
G01*
X17006380Y-6718970D02*
G75*
G02*
X16976380Y-6718970I-15000J0D01*
G01*
X16976380Y-6718970D02*
G75*
G02*
X17006380Y-6718970I15000J0D01*
G01*
X17390000Y-6500000D02*
G75*
G02*
X17360000Y-6500000I-15000J0D01*
G01*
X17360000Y-6500000D02*
G75*
G02*
X17390000Y-6500000I15000J0D01*
G01*
X18218230Y-6346720D02*
G75*
G02*
X18188230Y-6346720I-15000J0D01*
G01*
X18188230Y-6346720D02*
G75*
G02*
X18218230Y-6346720I15000J0D01*
G01*
X18498030Y-7099950D02*
G75*
G02*
X18468030Y-7099950I-15000J0D01*
G01*
X18468030Y-7099950D02*
G75*
G02*
X18498030Y-7099950I15000J0D01*
G01*
X18560000Y-8400000D02*
G75*
G02*
X18530000Y-8400000I-15000J0D01*
G01*
X18530000Y-8400000D02*
G75*
G02*
X18560000Y-8400000I15000J0D01*
G01*
X18560000Y-8910000D02*
G75*
G02*
X18530000Y-8910000I-15000J0D01*
G01*
X18530000Y-8910000D02*
G75*
G02*
X18560000Y-8910000I15000J0D01*
G01*
X18663180Y-6493530D02*
G75*
G02*
X18633180Y-6493530I-15000J0D01*
G01*
X18633180Y-6493530D02*
G75*
G02*
X18663180Y-6493530I15000J0D01*
G01*
X18720000Y-8400000D02*
G75*
G02*
X18690000Y-8400000I-15000J0D01*
G01*
X18690000Y-8400000D02*
G75*
G02*
X18720000Y-8400000I15000J0D01*
G01*
X18720000Y-8910000D02*
G75*
G02*
X18690000Y-8910000I-15000J0D01*
G01*
X18690000Y-8910000D02*
G75*
G02*
X18720000Y-8910000I15000J0D01*
G01*
X18763000Y-6320000D02*
G75*
G02*
X18733000Y-6320000I-15000J0D01*
G01*
X18733000Y-6320000D02*
G75*
G02*
X18763000Y-6320000I15000J0D01*
G01*
X18795000Y-6900000D02*
G75*
G02*
X18765000Y-6900000I-15000J0D01*
G01*
X18765000Y-6900000D02*
G75*
G02*
X18795000Y-6900000I15000J0D01*
G01*
X18877820Y-6720000D02*
G75*
G02*
X18847820Y-6720000I-15000J0D01*
G01*
X18847820Y-6720000D02*
G75*
G02*
X18877820Y-6720000I15000J0D01*
G01*
X19017000Y-6320000D02*
G75*
G02*
X18987000Y-6320000I-15000J0D01*
G01*
X18987000Y-6320000D02*
G75*
G02*
X19017000Y-6320000I15000J0D01*
G01*
X19017000Y-6880000D02*
G75*
G02*
X18987000Y-6880000I-15000J0D01*
G01*
X18987000Y-6880000D02*
G75*
G02*
X19017000Y-6880000I15000J0D01*
G01*
X19640000Y-6500000D02*
G75*
G02*
X19610000Y-6500000I-15000J0D01*
G01*
X19610000Y-6500000D02*
G75*
G02*
X19640000Y-6500000I15000J0D01*
G01*
X20312490Y-6343000D02*
G75*
G02*
X20282490Y-6343000I-15000J0D01*
G01*
X20282490Y-6343000D02*
G75*
G02*
X20312490Y-6343000I15000J0D01*
G01*
X20756450Y-6943000D02*
G75*
G02*
X20726450Y-6943000I-15000J0D01*
G01*
X20726450Y-6943000D02*
G75*
G02*
X20756450Y-6943000I15000J0D01*
G01*
X20810000Y-8400000D02*
G75*
G02*
X20780000Y-8400000I-15000J0D01*
G01*
X20780000Y-8400000D02*
G75*
G02*
X20810000Y-8400000I15000J0D01*
G01*
X20810000Y-8910000D02*
G75*
G02*
X20780000Y-8910000I-15000J0D01*
G01*
X20780000Y-8910000D02*
G75*
G02*
X20810000Y-8910000I15000J0D01*
G01*
X20910770Y-6491110D02*
G75*
G02*
X20880770Y-6491110I-15000J0D01*
G01*
X20880770Y-6491110D02*
G75*
G02*
X20910770Y-6491110I15000J0D01*
G01*
X20970000Y-8400000D02*
G75*
G02*
X20940000Y-8400000I-15000J0D01*
G01*
X20940000Y-8400000D02*
G75*
G02*
X20970000Y-8400000I15000J0D01*
G01*
X20970000Y-8910000D02*
G75*
G02*
X20940000Y-8910000I-15000J0D01*
G01*
X20940000Y-8910000D02*
G75*
G02*
X20970000Y-8910000I15000J0D01*
G01*
X21013000Y-6320000D02*
G75*
G02*
X20983000Y-6320000I-15000J0D01*
G01*
X20983000Y-6320000D02*
G75*
G02*
X21013000Y-6320000I15000J0D01*
G01*
X21013000Y-6880000D02*
G75*
G02*
X20983000Y-6880000I-15000J0D01*
G01*
X20983000Y-6880000D02*
G75*
G02*
X21013000Y-6880000I15000J0D01*
G01*
X21107290Y-6728970D02*
G75*
G02*
X21077290Y-6728970I-15000J0D01*
G01*
X21077290Y-6728970D02*
G75*
G02*
X21107290Y-6728970I15000J0D01*
G01*
X21267000Y-6320000D02*
G75*
G02*
X21237000Y-6320000I-15000J0D01*
G01*
X21237000Y-6320000D02*
G75*
G02*
X21267000Y-6320000I15000J0D01*
G01*
X21267000Y-6880000D02*
G75*
G02*
X21237000Y-6880000I-15000J0D01*
G01*
X21237000Y-6880000D02*
G75*
G02*
X21267000Y-6880000I15000J0D01*
G01*
X21890000Y-6500000D02*
G75*
G02*
X21860000Y-6500000I-15000J0D01*
G01*
X21860000Y-6500000D02*
G75*
G02*
X21890000Y-6500000I15000J0D01*
G01*
X22983220Y-6943000D02*
G75*
G02*
X22953220Y-6943000I-15000J0D01*
G01*
X22953220Y-6943000D02*
G75*
G02*
X22983220Y-6943000I15000J0D01*
G01*
X23060000Y-8400000D02*
G75*
G02*
X23030000Y-8400000I-15000J0D01*
G01*
X23030000Y-8400000D02*
G75*
G02*
X23060000Y-8400000I15000J0D01*
G01*
X23060000Y-8910000D02*
G75*
G02*
X23030000Y-8910000I-15000J0D01*
G01*
X23030000Y-8910000D02*
G75*
G02*
X23060000Y-8910000I15000J0D01*
G01*
X23220000Y-8400000D02*
G75*
G02*
X23190000Y-8400000I-15000J0D01*
G01*
X23190000Y-8400000D02*
G75*
G02*
X23220000Y-8400000I15000J0D01*
G01*
X23220000Y-8910000D02*
G75*
G02*
X23190000Y-8910000I-15000J0D01*
G01*
X23190000Y-8910000D02*
G75*
G02*
X23220000Y-8910000I15000J0D01*
G01*
X23263000Y-6320000D02*
G75*
G02*
X23233000Y-6320000I-15000J0D01*
G01*
X23233000Y-6320000D02*
G75*
G02*
X23263000Y-6320000I15000J0D01*
G01*
X23263000Y-6880000D02*
G75*
G02*
X23233000Y-6880000I-15000J0D01*
G01*
X23233000Y-6880000D02*
G75*
G02*
X23263000Y-6880000I15000J0D01*
G01*
X23517000Y-6320000D02*
G75*
G02*
X23487000Y-6320000I-15000J0D01*
G01*
X23487000Y-6320000D02*
G75*
G02*
X23517000Y-6320000I15000J0D01*
G01*
X23517000Y-6880000D02*
G75*
G02*
X23487000Y-6880000I-15000J0D01*
G01*
X23487000Y-6880000D02*
G75*
G02*
X23517000Y-6880000I15000J0D01*
G01*
X23610130Y-6656110D02*
G75*
G02*
X23580130Y-6656110I-15000J0D01*
G01*
X23580130Y-6656110D02*
G75*
G02*
X23610130Y-6656110I15000J0D01*
G01*
X23765000Y-7658000D02*
G75*
G02*
X23735000Y-7658000I-15000J0D01*
G01*
X23735000Y-7658000D02*
G75*
G02*
X23765000Y-7658000I15000J0D01*
G01*
X24140000Y-6500000D02*
G75*
G02*
X24110000Y-6500000I-15000J0D01*
G01*
X24110000Y-6500000D02*
G75*
G02*
X24140000Y-6500000I15000J0D01*
G01*
X24388000Y-7438000D02*
G75*
G02*
X24358000Y-7438000I-15000J0D01*
G01*
X24358000Y-7438000D02*
G75*
G02*
X24388000Y-7438000I15000J0D01*
G01*
X24917140Y-7592570D02*
G75*
G02*
X24887140Y-7592570I-15000J0D01*
G01*
X24887140Y-7592570D02*
G75*
G02*
X24917140Y-7592570I15000J0D01*
G01*
X24917140Y-7808660D02*
G75*
G02*
X24887140Y-7808660I-15000J0D01*
G01*
X24887140Y-7808660D02*
G75*
G02*
X24917140Y-7808660I15000J0D01*
G01*
X24965000Y-7060000D02*
G75*
G02*
X24935000Y-7060000I-15000J0D01*
G01*
X24935000Y-7060000D02*
G75*
G02*
X24965000Y-7060000I15000J0D01*
G01*
X24985000Y-7130000D02*
G75*
G02*
X24955000Y-7130000I-15000J0D01*
G01*
X24955000Y-7130000D02*
G75*
G02*
X24985000Y-7130000I15000J0D01*
G01*
X24985000Y-7890000D02*
G75*
G02*
X24955000Y-7890000I-15000J0D01*
G01*
X24955000Y-7890000D02*
G75*
G02*
X24985000Y-7890000I15000J0D01*
G01*
X25020760Y-7726700D02*
G75*
G02*
X24990760Y-7726700I-15000J0D01*
G01*
X24990760Y-7726700D02*
G75*
G02*
X25020760Y-7726700I15000J0D01*
G01*
X25035000Y-7940000D02*
G75*
G02*
X25005000Y-7940000I-15000J0D01*
G01*
X25005000Y-7940000D02*
G75*
G02*
X25035000Y-7940000I15000J0D01*
G01*
X25045000Y-7390000D02*
G75*
G02*
X25015000Y-7390000I-15000J0D01*
G01*
X25015000Y-7390000D02*
G75*
G02*
X25045000Y-7390000I15000J0D01*
G01*
X25055000Y-7135000D02*
G75*
G02*
X25025000Y-7135000I-15000J0D01*
G01*
X25025000Y-7135000D02*
G75*
G02*
X25055000Y-7135000I15000J0D01*
G01*
X25085000Y-7990000D02*
G75*
G02*
X25055000Y-7990000I-15000J0D01*
G01*
X25055000Y-7990000D02*
G75*
G02*
X25085000Y-7990000I15000J0D01*
G01*
X25110000Y-7385000D02*
G75*
G02*
X25080000Y-7385000I-15000J0D01*
G01*
X25080000Y-7385000D02*
G75*
G02*
X25110000Y-7385000I15000J0D01*
G01*
X25135000Y-7450000D02*
G75*
G02*
X25105000Y-7450000I-15000J0D01*
G01*
X25105000Y-7450000D02*
G75*
G02*
X25135000Y-7450000I15000J0D01*
G01*
X25145000Y-5540000D02*
G75*
G02*
X25115000Y-5540000I-15000J0D01*
G01*
X25115000Y-5540000D02*
G75*
G02*
X25145000Y-5540000I15000J0D01*
G01*
X25160000Y-5610000D02*
G75*
G02*
X25130000Y-5610000I-15000J0D01*
G01*
X25130000Y-5610000D02*
G75*
G02*
X25160000Y-5610000I15000J0D01*
G01*
X25185000Y-8075000D02*
G75*
G02*
X25155000Y-8075000I-15000J0D01*
G01*
X25155000Y-8075000D02*
G75*
G02*
X25185000Y-8075000I15000J0D01*
G01*
X25205000Y-7440000D02*
G75*
G02*
X25175000Y-7440000I-15000J0D01*
G01*
X25175000Y-7440000D02*
G75*
G02*
X25205000Y-7440000I15000J0D01*
G01*
X25215000Y-5570000D02*
G75*
G02*
X25185000Y-5570000I-15000J0D01*
G01*
X25185000Y-5570000D02*
G75*
G02*
X25215000Y-5570000I15000J0D01*
G01*
X25245000Y-6735000D02*
G75*
G02*
X25215000Y-6735000I-15000J0D01*
G01*
X25215000Y-6735000D02*
G75*
G02*
X25245000Y-6735000I15000J0D01*
G01*
X25275000Y-5510000D02*
G75*
G02*
X25245000Y-5510000I-15000J0D01*
G01*
X25245000Y-5510000D02*
G75*
G02*
X25275000Y-5510000I15000J0D01*
G01*
X25310000Y-7595000D02*
G75*
G02*
X25280000Y-7595000I-15000J0D01*
G01*
X25280000Y-7595000D02*
G75*
G02*
X25310000Y-7595000I15000J0D01*
G01*
X25310000Y-8400000D02*
G75*
G02*
X25280000Y-8400000I-15000J0D01*
G01*
X25280000Y-8400000D02*
G75*
G02*
X25310000Y-8400000I15000J0D01*
G01*
X25310000Y-8910000D02*
G75*
G02*
X25280000Y-8910000I-15000J0D01*
G01*
X25280000Y-8910000D02*
G75*
G02*
X25310000Y-8910000I15000J0D01*
G01*
X25318680Y-7099950D02*
G75*
G02*
X25288680Y-7099950I-15000J0D01*
G01*
X25288680Y-7099950D02*
G75*
G02*
X25318680Y-7099950I15000J0D01*
G01*
X25385000Y-7800000D02*
G75*
G02*
X25355000Y-7800000I-15000J0D01*
G01*
X25355000Y-7800000D02*
G75*
G02*
X25385000Y-7800000I15000J0D01*
G01*
X25470000Y-8400000D02*
G75*
G02*
X25440000Y-8400000I-15000J0D01*
G01*
X25440000Y-8400000D02*
G75*
G02*
X25470000Y-8400000I15000J0D01*
G01*
X25470000Y-8910000D02*
G75*
G02*
X25440000Y-8910000I-15000J0D01*
G01*
X25440000Y-8910000D02*
G75*
G02*
X25470000Y-8910000I15000J0D01*
G01*
X25513000Y-6320000D02*
G75*
G02*
X25483000Y-6320000I-15000J0D01*
G01*
X25483000Y-6320000D02*
G75*
G02*
X25513000Y-6320000I15000J0D01*
G01*
X25565000Y-6930000D02*
G75*
G02*
X25535000Y-6930000I-15000J0D01*
G01*
X25535000Y-6930000D02*
G75*
G02*
X25565000Y-6930000I15000J0D01*
G01*
X25676730Y-6720000D02*
G75*
G02*
X25646730Y-6720000I-15000J0D01*
G01*
X25646730Y-6720000D02*
G75*
G02*
X25676730Y-6720000I15000J0D01*
G01*
X25767000Y-6320000D02*
G75*
G02*
X25737000Y-6320000I-15000J0D01*
G01*
X25737000Y-6320000D02*
G75*
G02*
X25767000Y-6320000I15000J0D01*
G01*
X25767000Y-6880000D02*
G75*
G02*
X25737000Y-6880000I-15000J0D01*
G01*
X25737000Y-6880000D02*
G75*
G02*
X25767000Y-6880000I15000J0D01*
G01*
X26390000Y-6500000D02*
G75*
G02*
X26360000Y-6500000I-15000J0D01*
G01*
X26360000Y-6500000D02*
G75*
G02*
X26390000Y-6500000I15000J0D01*
G01*
X27329860Y-6343000D02*
G75*
G02*
X27299860Y-6343000I-15000J0D01*
G01*
X27299860Y-6343000D02*
G75*
G02*
X27329860Y-6343000I15000J0D01*
G01*
X27560000Y-8400000D02*
G75*
G02*
X27530000Y-8400000I-15000J0D01*
G01*
X27530000Y-8400000D02*
G75*
G02*
X27560000Y-8400000I15000J0D01*
G01*
X27560000Y-8910000D02*
G75*
G02*
X27530000Y-8910000I-15000J0D01*
G01*
X27530000Y-8910000D02*
G75*
G02*
X27560000Y-8910000I15000J0D01*
G01*
X27653900Y-7099950D02*
G75*
G02*
X27623900Y-7099950I-15000J0D01*
G01*
X27623900Y-7099950D02*
G75*
G02*
X27653900Y-7099950I15000J0D01*
G01*
X27720000Y-8400000D02*
G75*
G02*
X27690000Y-8400000I-15000J0D01*
G01*
X27690000Y-8400000D02*
G75*
G02*
X27720000Y-8400000I15000J0D01*
G01*
X27720000Y-8910000D02*
G75*
G02*
X27690000Y-8910000I-15000J0D01*
G01*
X27690000Y-8910000D02*
G75*
G02*
X27720000Y-8910000I15000J0D01*
G01*
X27763000Y-6320000D02*
G75*
G02*
X27733000Y-6320000I-15000J0D01*
G01*
X27733000Y-6320000D02*
G75*
G02*
X27763000Y-6320000I15000J0D01*
G01*
X27795000Y-6920000D02*
G75*
G02*
X27765000Y-6920000I-15000J0D01*
G01*
X27765000Y-6920000D02*
G75*
G02*
X27795000Y-6920000I15000J0D01*
G01*
X27855130Y-6480000D02*
G75*
G02*
X27825130Y-6480000I-15000J0D01*
G01*
X27825130Y-6480000D02*
G75*
G02*
X27855130Y-6480000I15000J0D01*
G01*
X27908430Y-6708970D02*
G75*
G02*
X27878430Y-6708970I-15000J0D01*
G01*
X27878430Y-6708970D02*
G75*
G02*
X27908430Y-6708970I15000J0D01*
G01*
X28017000Y-6320000D02*
G75*
G02*
X27987000Y-6320000I-15000J0D01*
G01*
X27987000Y-6320000D02*
G75*
G02*
X28017000Y-6320000I15000J0D01*
G01*
X28017000Y-6880000D02*
G75*
G02*
X27987000Y-6880000I-15000J0D01*
G01*
X27987000Y-6880000D02*
G75*
G02*
X28017000Y-6880000I15000J0D01*
G01*
X28640000Y-6500000D02*
G75*
G02*
X28610000Y-6500000I-15000J0D01*
G01*
X28610000Y-6500000D02*
G75*
G02*
X28640000Y-6500000I15000J0D01*
G01*
X8750000Y-5635000D02*
X8750000Y-5665000D01*
X8735000Y-5650000D02*
X8765000Y-5650000D01*
X8750000Y-5735000D02*
X8750000Y-5765000D01*
X8735000Y-5750000D02*
X8765000Y-5750000D01*
X8750000Y-7735000D02*
X8750000Y-7765000D01*
X8735000Y-7750000D02*
X8765000Y-7750000D01*
X8750000Y-7835000D02*
X8750000Y-7865000D01*
X8735000Y-7850000D02*
X8765000Y-7850000D01*
X8850000Y-5635000D02*
X8850000Y-5665000D01*
X8835000Y-5650000D02*
X8865000Y-5650000D01*
X8850000Y-5735000D02*
X8850000Y-5765000D01*
X8835000Y-5750000D02*
X8865000Y-5750000D01*
X8850000Y-7735000D02*
X8850000Y-7765000D01*
X8835000Y-7750000D02*
X8865000Y-7750000D01*
X8850000Y-7835000D02*
X8850000Y-7865000D01*
X8835000Y-7850000D02*
X8865000Y-7850000D01*
X5164142Y-5654142D02*
X5164142Y-5625858D01*
X5135858Y-5625858D01*
X5135858Y-5654142D01*
X5164142Y-5654142D01*
X6314142Y-5654142D02*
X6314142Y-5625858D01*
X6285858Y-5625858D01*
X6285858Y-5654142D01*
X6314142Y-5654142D01*
X10384142Y-9074142D02*
X10384142Y-9045858D01*
X10355858Y-9045858D01*
X10355858Y-9074142D01*
X10384142Y-9074142D01*
X10464142Y-9074142D02*
X10464142Y-9045858D01*
X10435858Y-9045858D01*
X10435858Y-9074142D01*
X10464142Y-9074142D01*
X12889142Y-6852612D02*
X12889142Y-6824328D01*
X12860858Y-6824328D01*
X12860858Y-6852612D01*
X12889142Y-6852612D01*
X12889142Y-8559962D02*
X12889142Y-8531678D01*
X12860858Y-8531678D01*
X12860858Y-8559962D01*
X12889142Y-8559962D01*
X14367882Y-6814142D02*
X14367882Y-6785858D01*
X14339598Y-6785858D01*
X14339598Y-6814142D01*
X14367882Y-6814142D01*
X15495642Y-5927862D02*
X15495642Y-5899578D01*
X15467358Y-5899578D01*
X15467358Y-5927862D01*
X15495642Y-5927862D01*
X15495642Y-6796722D02*
X15495642Y-6768438D01*
X15467358Y-6768438D01*
X15467358Y-6796722D01*
X15495642Y-6796722D01*
X15641142Y-8138312D02*
X15641142Y-8110028D01*
X15612858Y-8110028D01*
X15612858Y-8138312D01*
X15641142Y-8138312D01*
X15778042Y-5943142D02*
X15778042Y-5914858D01*
X15749758Y-5914858D01*
X15749758Y-5943142D01*
X15778042Y-5943142D01*
X15778042Y-7289972D02*
X15778042Y-7261688D01*
X15749758Y-7261688D01*
X15749758Y-7289972D01*
X15778042Y-7289972D01*
X21054142Y-9074142D02*
X21054142Y-9045858D01*
X21025858Y-9045858D01*
X21025858Y-9074142D01*
X21054142Y-9074142D01*
X21134142Y-9074142D02*
X21134142Y-9045858D01*
X21105858Y-9045858D01*
X21105858Y-9074142D01*
X21134142Y-9074142D01*
X22016812Y-6714142D02*
X22016812Y-6685858D01*
X21988528Y-6685858D01*
X21988528Y-6714142D01*
X22016812Y-6714142D01*
X24178692Y-8285692D02*
X24178692Y-8257408D01*
X24150408Y-8257408D01*
X24150408Y-8285692D01*
X24178692Y-8285692D01*
X24641142Y-8138312D02*
X24641142Y-8110028D01*
X24612858Y-8110028D01*
X24612858Y-8138312D01*
X24641142Y-8138312D01*
X24662362Y-5943142D02*
X24662362Y-5914858D01*
X24634078Y-5914858D01*
X24634078Y-5943142D01*
X24662362Y-5943142D01*
X24662362Y-6796722D02*
X24662362Y-6768438D01*
X24634078Y-6768438D01*
X24634078Y-6796722D01*
X24662362Y-6796722D01*
X24765962Y-7616492D02*
X24765962Y-7588208D01*
X24737678Y-7588208D01*
X24737678Y-7616492D01*
X24765962Y-7616492D01*
X24782252Y-6271142D02*
X24782252Y-6242858D01*
X24753968Y-6242858D01*
X24753968Y-6271142D01*
X24782252Y-6271142D01*
X25042842Y-6838082D02*
X25042842Y-6809798D01*
X25014558Y-6809798D01*
X25014558Y-6838082D01*
X25042842Y-6838082D01*
X7912460Y-8473790D02*
X7937460Y-8448790D01*
X7912460Y-8423790D01*
X7887460Y-8448790D01*
X7912460Y-8473790D01*
X8149290Y-5174330D02*
X8174290Y-5149330D01*
X8149290Y-5124330D01*
X8124290Y-5149330D01*
X8149290Y-5174330D01*
X8250000Y-6570070D02*
X8275000Y-6545070D01*
X8250000Y-6520070D01*
X8225000Y-6545070D01*
X8250000Y-6570070D01*
X8389020Y-5525000D02*
X8414020Y-5500000D01*
X8389020Y-5475000D01*
X8364020Y-5500000D01*
X8389020Y-5525000D01*
X8400330Y-7124950D02*
X8425330Y-7099950D01*
X8400330Y-7074950D01*
X8375330Y-7099950D01*
X8400330Y-7124950D01*
X8441340Y-6302020D02*
X8466340Y-6277020D01*
X8441340Y-6252020D01*
X8416340Y-6277020D01*
X8441340Y-6302020D01*
X8589580Y-7721210D02*
X8614580Y-7696210D01*
X8589580Y-7671210D01*
X8564580Y-7696210D01*
X8589580Y-7721210D01*
X8803080Y-6179670D02*
X8828080Y-6154670D01*
X8803080Y-6129670D01*
X8778080Y-6154670D01*
X8803080Y-6179670D01*
X9160030Y-7878330D02*
X9185030Y-7853330D01*
X9160030Y-7828330D01*
X9135030Y-7853330D01*
X9160030Y-7878330D01*
X10447840Y-7626770D02*
X10472840Y-7601770D01*
X10447840Y-7576770D01*
X10422840Y-7601770D01*
X10447840Y-7626770D01*
X10552300Y-5466900D02*
X10577300Y-5441900D01*
X10552300Y-5416900D01*
X10527300Y-5441900D01*
X10552300Y-5466900D01*
X11643380Y-7968970D02*
X11668380Y-7943970D01*
X11643380Y-7918970D01*
X11618380Y-7943970D01*
X11643380Y-7968970D01*
X11643380Y-8725000D02*
X11668380Y-8700000D01*
X11643380Y-8675000D01*
X11618380Y-8700000D01*
X11643380Y-8725000D01*
X14362300Y-8450650D02*
X14387300Y-8425650D01*
X14362300Y-8400650D01*
X14337300Y-8425650D01*
X14362300Y-8450650D01*
X16066840Y-7447480D02*
X16091840Y-7422480D01*
X16066840Y-7397480D01*
X16041840Y-7422480D01*
X16066840Y-7447480D01*
X16066840Y-8546840D02*
X16091840Y-8521840D01*
X16066840Y-8496840D01*
X16041840Y-8521840D01*
X16066840Y-8546840D01*
X16066840Y-8812990D02*
X16091840Y-8787990D01*
X16066840Y-8762990D01*
X16041840Y-8787990D01*
X16066840Y-8812990D01*
X16166800Y-5759210D02*
X16191800Y-5734210D01*
X16166800Y-5709210D01*
X16141800Y-5734210D01*
X16166800Y-5759210D01*
X16419830Y-7857850D02*
X16444830Y-7832850D01*
X16419830Y-7807850D01*
X16394830Y-7832850D01*
X16419830Y-7857850D01*
X18376120Y-6583970D02*
X18401120Y-6558970D01*
X18376120Y-6533970D01*
X18351120Y-6558970D01*
X18376120Y-6583970D01*
X25106550Y-7557850D02*
X25131550Y-7532850D01*
X25106550Y-7507850D01*
X25081550Y-7532850D01*
X25106550Y-7557850D01*
X25115930Y-8161170D02*
X25140930Y-8136170D01*
X25115930Y-8111170D01*
X25090930Y-8136170D01*
X25115930Y-8161170D01*
X25190670Y-5525000D02*
X25215670Y-5500000D01*
X25190670Y-5475000D01*
X25165670Y-5500000D01*
X25190670Y-5525000D01*
X25625000Y-8019020D02*
X25650000Y-7994020D01*
X25625000Y-7969020D01*
X25600000Y-7994020D01*
X25625000Y-8019020D01*
X27524250Y-6525000D02*
X27549250Y-6500000D01*
X27524250Y-6475000D01*
X27499250Y-6500000D01*
X27524250Y-6525000D01*
X5287000Y-5738000D02*
X5347000Y-5798000D01*
X5347000Y-5738000D02*
X5287000Y-5798000D01*
X5347000Y-5768000D02*
G75*
G02*
X5287000Y-5768000I-30000J0D01*
G01*
X5287000Y-5768000D02*
G75*
G02*
X5347000Y-5768000I30000J0D01*
G01*
X5271999Y-5798000D02*
X5362001Y-5798000D01*
X5362001Y-5738000D02*
G75*
G02*
X5362001Y-5798000I0J-30000D01*
G01*
X5362001Y-5738000D02*
X5271999Y-5738000D01*
X5271999Y-5738000D02*
G75*
G03*
X5271999Y-5798000I0J-30000D01*
G01*
X5287000Y-6602000D02*
X5347000Y-6662000D01*
X5347000Y-6602000D02*
X5287000Y-6662000D01*
X5347000Y-6632000D02*
G75*
G02*
X5287000Y-6632000I-30000J0D01*
G01*
X5287000Y-6632000D02*
G75*
G02*
X5347000Y-6632000I30000J0D01*
G01*
X5272000Y-6662000D02*
X5362000Y-6662000D01*
X5362000Y-6602000D02*
G75*
G02*
X5362000Y-6662000I0J-30000D01*
G01*
X5362000Y-6602000D02*
X5272000Y-6602000D01*
X5272000Y-6602000D02*
G75*
G03*
X5272000Y-6662000I0J-30000D01*
G01*
X5708000Y-5738000D02*
X5768000Y-5798000D01*
X5768000Y-5738000D02*
X5708000Y-5798000D01*
X5768000Y-5768000D02*
G75*
G02*
X5708000Y-5768000I-30000J0D01*
G01*
X5708000Y-5768000D02*
G75*
G02*
X5768000Y-5768000I30000J0D01*
G01*
X5708000Y-5798000D02*
X5768000Y-5798000D01*
X5768000Y-5738000D02*
G75*
G02*
X5768000Y-5798000I0J-30000D01*
G01*
X5768000Y-5738000D02*
X5708000Y-5738000D01*
X5708000Y-5738000D02*
G75*
G03*
X5708000Y-5798000I0J-30000D01*
G01*
X5708000Y-6602000D02*
X5768000Y-6662000D01*
X5768000Y-6602000D02*
X5708000Y-6662000D01*
X5768000Y-6632000D02*
G75*
G02*
X5708000Y-6632000I-30000J0D01*
G01*
X5708000Y-6632000D02*
G75*
G02*
X5768000Y-6632000I30000J0D01*
G01*
X5708000Y-6662000D02*
X5768000Y-6662000D01*
X5768000Y-6602000D02*
G75*
G02*
X5768000Y-6662000I0J-30000D01*
G01*
X5768000Y-6602000D02*
X5708000Y-6602000D01*
X5708000Y-6602000D02*
G75*
G03*
X5708000Y-6662000I0J-30000D01*
G01*
X12095000Y-6172000D02*
X12155000Y-6232000D01*
X12155000Y-6172000D02*
X12095000Y-6232000D01*
X12155000Y-6202000D02*
G75*
G02*
X12095000Y-6202000I-30000J0D01*
G01*
X12095000Y-6202000D02*
G75*
G02*
X12155000Y-6202000I30000J0D01*
G01*
X12065000Y-6232000D02*
X12185000Y-6232000D01*
X12185000Y-6172000D02*
G75*
G02*
X12185000Y-6232000I0J-30000D01*
G01*
X12185000Y-6172000D02*
X12065000Y-6172000D01*
X12065000Y-6172000D02*
G75*
G03*
X12065000Y-6232000I0J-30000D01*
G01*
X12095000Y-6968000D02*
X12155000Y-7028000D01*
X12155000Y-6968000D02*
X12095000Y-7028000D01*
X12155000Y-6998000D02*
G75*
G02*
X12095000Y-6998000I-30000J0D01*
G01*
X12095000Y-6998000D02*
G75*
G02*
X12155000Y-6998000I30000J0D01*
G01*
X12065000Y-7028000D02*
X12185000Y-7028000D01*
X12185000Y-6968000D02*
G75*
G02*
X12185000Y-7028000I0J-30000D01*
G01*
X12185000Y-6968000D02*
X12065000Y-6968000D01*
X12065000Y-6968000D02*
G75*
G03*
X12065000Y-7028000I0J-30000D01*
G01*
X14345000Y-6172000D02*
X14405000Y-6232000D01*
X14405000Y-6172000D02*
X14345000Y-6232000D01*
X14405000Y-6202000D02*
G75*
G02*
X14345000Y-6202000I-30000J0D01*
G01*
X14345000Y-6202000D02*
G75*
G02*
X14405000Y-6202000I30000J0D01*
G01*
X14315000Y-6232000D02*
X14435000Y-6232000D01*
X14435000Y-6172000D02*
G75*
G02*
X14435000Y-6232000I0J-30000D01*
G01*
X14435000Y-6172000D02*
X14315000Y-6172000D01*
X14315000Y-6172000D02*
G75*
G03*
X14315000Y-6232000I0J-30000D01*
G01*
X14345000Y-6968000D02*
X14405000Y-7028000D01*
X14405000Y-6968000D02*
X14345000Y-7028000D01*
X14405000Y-6998000D02*
G75*
G02*
X14345000Y-6998000I-30000J0D01*
G01*
X14345000Y-6998000D02*
G75*
G02*
X14405000Y-6998000I30000J0D01*
G01*
X14315000Y-7028000D02*
X14435000Y-7028000D01*
X14435000Y-6968000D02*
G75*
G02*
X14435000Y-7028000I0J-30000D01*
G01*
X14435000Y-6968000D02*
X14315000Y-6968000D01*
X14315000Y-6968000D02*
G75*
G03*
X14315000Y-7028000I0J-30000D01*
G01*
X16595000Y-6172000D02*
X16655000Y-6232000D01*
X16655000Y-6172000D02*
X16595000Y-6232000D01*
X16655000Y-6202000D02*
G75*
G02*
X16595000Y-6202000I-30000J0D01*
G01*
X16595000Y-6202000D02*
G75*
G02*
X16655000Y-6202000I30000J0D01*
G01*
X16565000Y-6232000D02*
X16685000Y-6232000D01*
X16685000Y-6172000D02*
G75*
G02*
X16685000Y-6232000I0J-30000D01*
G01*
X16685000Y-6172000D02*
X16565000Y-6172000D01*
X16565000Y-6172000D02*
G75*
G03*
X16565000Y-6232000I0J-30000D01*
G01*
X16595000Y-6968000D02*
X16655000Y-7028000D01*
X16655000Y-6968000D02*
X16595000Y-7028000D01*
X16655000Y-6998000D02*
G75*
G02*
X16595000Y-6998000I-30000J0D01*
G01*
X16595000Y-6998000D02*
G75*
G02*
X16655000Y-6998000I30000J0D01*
G01*
X16565000Y-7028000D02*
X16685000Y-7028000D01*
X16685000Y-6968000D02*
G75*
G02*
X16685000Y-7028000I0J-30000D01*
G01*
X16685000Y-6968000D02*
X16565000Y-6968000D01*
X16565000Y-6968000D02*
G75*
G03*
X16565000Y-7028000I0J-30000D01*
G01*
X18845000Y-6172000D02*
X18905000Y-6232000D01*
X18905000Y-6172000D02*
X18845000Y-6232000D01*
X18905000Y-6202000D02*
G75*
G02*
X18845000Y-6202000I-30000J0D01*
G01*
X18845000Y-6202000D02*
G75*
G02*
X18905000Y-6202000I30000J0D01*
G01*
X18815000Y-6232000D02*
X18935000Y-6232000D01*
X18935000Y-6172000D02*
G75*
G02*
X18935000Y-6232000I0J-30000D01*
G01*
X18935000Y-6172000D02*
X18815000Y-6172000D01*
X18815000Y-6172000D02*
G75*
G03*
X18815000Y-6232000I0J-30000D01*
G01*
X18845000Y-6968000D02*
X18905000Y-7028000D01*
X18905000Y-6968000D02*
X18845000Y-7028000D01*
X18905000Y-6998000D02*
G75*
G02*
X18845000Y-6998000I-30000J0D01*
G01*
X18845000Y-6998000D02*
G75*
G02*
X18905000Y-6998000I30000J0D01*
G01*
X18815000Y-7028000D02*
X18935000Y-7028000D01*
X18935000Y-6968000D02*
G75*
G02*
X18935000Y-7028000I0J-30000D01*
G01*
X18935000Y-6968000D02*
X18815000Y-6968000D01*
X18815000Y-6968000D02*
G75*
G03*
X18815000Y-7028000I0J-30000D01*
G01*
X21095000Y-6172000D02*
X21155000Y-6232000D01*
X21155000Y-6172000D02*
X21095000Y-6232000D01*
X21155000Y-6202000D02*
G75*
G02*
X21095000Y-6202000I-30000J0D01*
G01*
X21095000Y-6202000D02*
G75*
G02*
X21155000Y-6202000I30000J0D01*
G01*
X21065000Y-6232000D02*
X21185000Y-6232000D01*
X21185000Y-6172000D02*
G75*
G02*
X21185000Y-6232000I0J-30000D01*
G01*
X21185000Y-6172000D02*
X21065000Y-6172000D01*
X21065000Y-6172000D02*
G75*
G03*
X21065000Y-6232000I0J-30000D01*
G01*
X21095000Y-6968000D02*
X21155000Y-7028000D01*
X21155000Y-6968000D02*
X21095000Y-7028000D01*
X21155000Y-6998000D02*
G75*
G02*
X21095000Y-6998000I-30000J0D01*
G01*
X21095000Y-6998000D02*
G75*
G02*
X21155000Y-6998000I30000J0D01*
G01*
X21065000Y-7028000D02*
X21185000Y-7028000D01*
X21185000Y-6968000D02*
G75*
G02*
X21185000Y-7028000I0J-30000D01*
G01*
X21185000Y-6968000D02*
X21065000Y-6968000D01*
X21065000Y-6968000D02*
G75*
G03*
X21065000Y-7028000I0J-30000D01*
G01*
X23345000Y-6172000D02*
X23405000Y-6232000D01*
X23405000Y-6172000D02*
X23345000Y-6232000D01*
X23405000Y-6202000D02*
G75*
G02*
X23345000Y-6202000I-30000J0D01*
G01*
X23345000Y-6202000D02*
G75*
G02*
X23405000Y-6202000I30000J0D01*
G01*
X23315000Y-6232000D02*
X23435000Y-6232000D01*
X23435000Y-6172000D02*
G75*
G02*
X23435000Y-6232000I0J-30000D01*
G01*
X23435000Y-6172000D02*
X23315000Y-6172000D01*
X23315000Y-6172000D02*
G75*
G03*
X23315000Y-6232000I0J-30000D01*
G01*
X23345000Y-6968000D02*
X23405000Y-7028000D01*
X23405000Y-6968000D02*
X23345000Y-7028000D01*
X23405000Y-6998000D02*
G75*
G02*
X23345000Y-6998000I-30000J0D01*
G01*
X23345000Y-6998000D02*
G75*
G02*
X23405000Y-6998000I30000J0D01*
G01*
X23315000Y-7028000D02*
X23435000Y-7028000D01*
X23435000Y-6968000D02*
G75*
G02*
X23435000Y-7028000I0J-30000D01*
G01*
X23435000Y-6968000D02*
X23315000Y-6968000D01*
X23315000Y-6968000D02*
G75*
G03*
X23315000Y-7028000I0J-30000D01*
G01*
X25595000Y-6172000D02*
X25655000Y-6232000D01*
X25655000Y-6172000D02*
X25595000Y-6232000D01*
X25655000Y-6202000D02*
G75*
G02*
X25595000Y-6202000I-30000J0D01*
G01*
X25595000Y-6202000D02*
G75*
G02*
X25655000Y-6202000I30000J0D01*
G01*
X25565000Y-6232000D02*
X25685000Y-6232000D01*
X25685000Y-6172000D02*
G75*
G02*
X25685000Y-6232000I0J-30000D01*
G01*
X25685000Y-6172000D02*
X25565000Y-6172000D01*
X25565000Y-6172000D02*
G75*
G03*
X25565000Y-6232000I0J-30000D01*
G01*
X25595000Y-6968000D02*
X25655000Y-7028000D01*
X25655000Y-6968000D02*
X25595000Y-7028000D01*
X25655000Y-6998000D02*
G75*
G02*
X25595000Y-6998000I-30000J0D01*
G01*
X25595000Y-6998000D02*
G75*
G02*
X25655000Y-6998000I30000J0D01*
G01*
X25565000Y-7028000D02*
X25685000Y-7028000D01*
X25685000Y-6968000D02*
G75*
G02*
X25685000Y-7028000I0J-30000D01*
G01*
X25685000Y-6968000D02*
X25565000Y-6968000D01*
X25565000Y-6968000D02*
G75*
G03*
X25565000Y-7028000I0J-30000D01*
G01*
X27845000Y-6172000D02*
X27905000Y-6232000D01*
X27905000Y-6172000D02*
X27845000Y-6232000D01*
X27905000Y-6202000D02*
G75*
G02*
X27845000Y-6202000I-30000J0D01*
G01*
X27845000Y-6202000D02*
G75*
G02*
X27905000Y-6202000I30000J0D01*
G01*
X27815000Y-6232000D02*
X27935000Y-6232000D01*
X27935000Y-6172000D02*
G75*
G02*
X27935000Y-6232000I0J-30000D01*
G01*
X27935000Y-6172000D02*
X27815000Y-6172000D01*
X27815000Y-6172000D02*
G75*
G03*
X27815000Y-6232000I0J-30000D01*
G01*
X27845000Y-6968000D02*
X27905000Y-7028000D01*
X27905000Y-6968000D02*
X27845000Y-7028000D01*
X27905000Y-6998000D02*
G75*
G02*
X27845000Y-6998000I-30000J0D01*
G01*
X27845000Y-6998000D02*
G75*
G02*
X27905000Y-6998000I30000J0D01*
G01*
X27815000Y-7028000D02*
X27935000Y-7028000D01*
X27935000Y-6968000D02*
G75*
G02*
X27935000Y-7028000I0J-30000D01*
G01*
X27935000Y-6968000D02*
X27815000Y-6968000D01*
X27815000Y-6968000D02*
G75*
G03*
X27815000Y-7028000I0J-30000D01*
G01*
X5335000Y-5876000D02*
X5405000Y-5946000D01*
X5405000Y-5876000D02*
X5335000Y-5946000D01*
X5370000Y-5876000D02*
X5370000Y-5946000D01*
X5335000Y-5911000D02*
X5405000Y-5911000D01*
X5335000Y-6454000D02*
X5405000Y-6524000D01*
X5405000Y-6454000D02*
X5335000Y-6524000D01*
X5370000Y-6454000D02*
X5370000Y-6524000D01*
X5335000Y-6489000D02*
X5405000Y-6489000D01*
X5750000Y-8115000D02*
X5850000Y-8215000D01*
X5850000Y-8115000D02*
X5750000Y-8215000D01*
X5835356Y-8200356D02*
X5835356Y-8129644D01*
X5764644Y-8129644D01*
X5764644Y-8200356D01*
X5835356Y-8200356D01*
X5750000Y-8050001D02*
X5750000Y-8279998D01*
X5850000Y-8279998D02*
G75*
G02*
X5750000Y-8279998I-50000J0D01*
G01*
X5850000Y-8279998D02*
X5850000Y-8050001D01*
X5850000Y-8050001D02*
G75*
G03*
X5750000Y-8050001I-50000J0D01*
G01*
X6050000Y-8585000D02*
X6150000Y-8685000D01*
X6150000Y-8585000D02*
X6050000Y-8685000D01*
X6135356Y-8670356D02*
X6135356Y-8599644D01*
X6064644Y-8599644D01*
X6064644Y-8670356D01*
X6135356Y-8670356D01*
X5985001Y-8685000D02*
X6214998Y-8685000D01*
X6214998Y-8585000D02*
G75*
G02*
X6214998Y-8685000I0J-50000D01*
G01*
X6214998Y-8585000D02*
X5985001Y-8585000D01*
X5985001Y-8585000D02*
G75*
G03*
X5985001Y-8685000I0J-50000D01*
G01*
X6350000Y-8115000D02*
X6450000Y-8215000D01*
X6450000Y-8115000D02*
X6350000Y-8215000D01*
X6435356Y-8200356D02*
X6435356Y-8129644D01*
X6364644Y-8129644D01*
X6364644Y-8200356D01*
X6435356Y-8200356D01*
X6450000Y-8290000D02*
X6450000Y-8040000D01*
X6350000Y-8040000D02*
G75*
G02*
X6450000Y-8040000I50000J0D01*
G01*
X6350000Y-8040000D02*
X6350000Y-8290000D01*
X6350000Y-8290000D02*
G75*
G03*
X6450000Y-8290000I50000J0D01*
G01*
D12*
X5140000Y-5140000D02*
X5460000Y-5460000D01*
X5460000Y-5140000D02*
X5140000Y-5460000D01*
X5300000Y-5460000D02*
X5460000Y-5300000D01*
X5300000Y-5140000D01*
X5140000Y-5300000D01*
X5300000Y-5460000D01*
X5140000Y-7040000D02*
X5460000Y-7360000D01*
X5460000Y-7040000D02*
X5140000Y-7360000D01*
X5300000Y-7360000D02*
X5460000Y-7200000D01*
X5300000Y-7040000D01*
X5140000Y-7200000D01*
X5300000Y-7360000D01*
X5140000Y-9240000D02*
X5460000Y-9560000D01*
X5460000Y-9240000D02*
X5140000Y-9560000D01*
X5300000Y-9560000D02*
X5460000Y-9400000D01*
X5300000Y-9240000D01*
X5140000Y-9400000D01*
X5300000Y-9560000D01*
X17080000Y-9240000D02*
X17400000Y-9560000D01*
X17400000Y-9240000D02*
X17080000Y-9560000D01*
X17240000Y-9560000D02*
X17400000Y-9400000D01*
X17240000Y-9240000D01*
X17080000Y-9400000D01*
X17240000Y-9560000D01*
X17540000Y-5740000D02*
X17860000Y-6060000D01*
X17860000Y-5740000D02*
X17540000Y-6060000D01*
X17700000Y-6060000D02*
X17860000Y-5900000D01*
X17700000Y-5740000D01*
X17540000Y-5900000D01*
X17700000Y-6060000D01*
X28540000Y-5740000D02*
X28860000Y-6060000D01*
X28860000Y-5740000D02*
X28540000Y-6060000D01*
X28700000Y-6060000D02*
X28860000Y-5900000D01*
X28700000Y-5740000D01*
X28540000Y-5900000D01*
X28700000Y-6060000D01*
X28540000Y-9240000D02*
X28860000Y-9560000D01*
X28860000Y-9240000D02*
X28540000Y-9560000D01*
X28700000Y-9560000D02*
X28860000Y-9400000D01*
X28700000Y-9240000D01*
X28540000Y-9400000D01*
X28700000Y-9560000D01*
D11*
X5255777Y-10016484D02*
X5255777Y-9816484D01*
X5255777Y-9816484D02*
X5303396Y-9816484D01*
X5303396Y-9816484D02*
X5331967Y-9826008D01*
X5331967Y-9826008D02*
X5351015Y-9845055D01*
X5351015Y-9845055D02*
X5360539Y-9864103D01*
X5360539Y-9864103D02*
X5370063Y-9902198D01*
X5370063Y-9902198D02*
X5370063Y-9930770D01*
X5370063Y-9930770D02*
X5360539Y-9968865D01*
X5360539Y-9968865D02*
X5351015Y-9987912D01*
X5351015Y-9987912D02*
X5331967Y-10006960D01*
X5331967Y-10006960D02*
X5303396Y-10016484D01*
X5303396Y-10016484D02*
X5255777Y-10016484D01*
X5455777Y-10016484D02*
X5455777Y-9883150D01*
X5455777Y-9921246D02*
X5465301Y-9902198D01*
X5465301Y-9902198D02*
X5474824Y-9892674D01*
X5474824Y-9892674D02*
X5493872Y-9883150D01*
X5493872Y-9883150D02*
X5512920Y-9883150D01*
X5579586Y-10016484D02*
X5579586Y-9883150D01*
X5579586Y-9816484D02*
X5570063Y-9826008D01*
X5570063Y-9826008D02*
X5579586Y-9835531D01*
X5579586Y-9835531D02*
X5589110Y-9826008D01*
X5589110Y-9826008D02*
X5579586Y-9816484D01*
X5579586Y-9816484D02*
X5579586Y-9835531D01*
X5703396Y-10016484D02*
X5684348Y-10006960D01*
X5684348Y-10006960D02*
X5674824Y-9987912D01*
X5674824Y-9987912D02*
X5674824Y-9816484D01*
X5808158Y-10016484D02*
X5789110Y-10006960D01*
X5789110Y-10006960D02*
X5779586Y-9987912D01*
X5779586Y-9987912D02*
X5779586Y-9816484D01*
X6036729Y-10016484D02*
X6036729Y-9816484D01*
X6036729Y-9816484D02*
X6103396Y-9959341D01*
X6103396Y-9959341D02*
X6170062Y-9816484D01*
X6170062Y-9816484D02*
X6170062Y-10016484D01*
X6351015Y-10016484D02*
X6351015Y-9911722D01*
X6351015Y-9911722D02*
X6341491Y-9892674D01*
X6341491Y-9892674D02*
X6322443Y-9883150D01*
X6322443Y-9883150D02*
X6284348Y-9883150D01*
X6284348Y-9883150D02*
X6265301Y-9892674D01*
X6351015Y-10006960D02*
X6331967Y-10016484D01*
X6331967Y-10016484D02*
X6284348Y-10016484D01*
X6284348Y-10016484D02*
X6265301Y-10006960D01*
X6265301Y-10006960D02*
X6255777Y-9987912D01*
X6255777Y-9987912D02*
X6255777Y-9968865D01*
X6255777Y-9968865D02*
X6265301Y-9949817D01*
X6265301Y-9949817D02*
X6284348Y-9940293D01*
X6284348Y-9940293D02*
X6331967Y-9940293D01*
X6331967Y-9940293D02*
X6351015Y-9930770D01*
X6446253Y-9883150D02*
X6446253Y-10083150D01*
X6446253Y-9892674D02*
X6465301Y-9883150D01*
X6465301Y-9883150D02*
X6503396Y-9883150D01*
X6503396Y-9883150D02*
X6522443Y-9892674D01*
X6522443Y-9892674D02*
X6531967Y-9902198D01*
X6531967Y-9902198D02*
X6541491Y-9921246D01*
X6541491Y-9921246D02*
X6541491Y-9978389D01*
X6541491Y-9978389D02*
X6531967Y-9997436D01*
X6531967Y-9997436D02*
X6522443Y-10006960D01*
X6522443Y-10006960D02*
X6503396Y-10016484D01*
X6503396Y-10016484D02*
X6465301Y-10016484D01*
X6465301Y-10016484D02*
X6446253Y-10006960D01*
X6627205Y-9997436D02*
X6636729Y-10006960D01*
X6636729Y-10006960D02*
X6627205Y-10016484D01*
X6627205Y-10016484D02*
X6617682Y-10006960D01*
X6617682Y-10006960D02*
X6627205Y-9997436D01*
X6627205Y-9997436D02*
X6627205Y-10016484D01*
X6627205Y-9892674D02*
X6636729Y-9902198D01*
X6636729Y-9902198D02*
X6627205Y-9911722D01*
X6627205Y-9911722D02*
X6617682Y-9902198D01*
X6617682Y-9902198D02*
X6627205Y-9892674D01*
X6627205Y-9892674D02*
X6627205Y-9911722D01*
D10*
X4970000Y-10332500D02*
X4995000Y-10357500D01*
X4995000Y-10332500D02*
X4970000Y-10357500D01*
D11*
X5293872Y-10236484D02*
X5312920Y-10236484D01*
X5312920Y-10236484D02*
X5331967Y-10246008D01*
X5331967Y-10246008D02*
X5341491Y-10255531D01*
X5341491Y-10255531D02*
X5351015Y-10274579D01*
X5351015Y-10274579D02*
X5360539Y-10312674D01*
X5360539Y-10312674D02*
X5360539Y-10360293D01*
X5360539Y-10360293D02*
X5351015Y-10398389D01*
X5351015Y-10398389D02*
X5341491Y-10417436D01*
X5341491Y-10417436D02*
X5331967Y-10426960D01*
X5331967Y-10426960D02*
X5312920Y-10436484D01*
X5312920Y-10436484D02*
X5293872Y-10436484D01*
X5293872Y-10436484D02*
X5274824Y-10426960D01*
X5274824Y-10426960D02*
X5265301Y-10417436D01*
X5265301Y-10417436D02*
X5255777Y-10398389D01*
X5255777Y-10398389D02*
X5246253Y-10360293D01*
X5246253Y-10360293D02*
X5246253Y-10312674D01*
X5246253Y-10312674D02*
X5255777Y-10274579D01*
X5255777Y-10274579D02*
X5265301Y-10255531D01*
X5265301Y-10255531D02*
X5274824Y-10246008D01*
X5274824Y-10246008D02*
X5293872Y-10236484D01*
X5446253Y-10417436D02*
X5455777Y-10426960D01*
X5455777Y-10426960D02*
X5446253Y-10436484D01*
X5446253Y-10436484D02*
X5436729Y-10426960D01*
X5436729Y-10426960D02*
X5446253Y-10417436D01*
X5446253Y-10417436D02*
X5446253Y-10436484D01*
X5531967Y-10255531D02*
X5541491Y-10246008D01*
X5541491Y-10246008D02*
X5560539Y-10236484D01*
X5560539Y-10236484D02*
X5608158Y-10236484D01*
X5608158Y-10236484D02*
X5627205Y-10246008D01*
X5627205Y-10246008D02*
X5636729Y-10255531D01*
X5636729Y-10255531D02*
X5646253Y-10274579D01*
X5646253Y-10274579D02*
X5646253Y-10293627D01*
X5646253Y-10293627D02*
X5636729Y-10322198D01*
X5636729Y-10322198D02*
X5522444Y-10436484D01*
X5522444Y-10436484D02*
X5646253Y-10436484D01*
X5827205Y-10236484D02*
X5731967Y-10236484D01*
X5731967Y-10236484D02*
X5722443Y-10331722D01*
X5722443Y-10331722D02*
X5731967Y-10322198D01*
X5731967Y-10322198D02*
X5751015Y-10312674D01*
X5751015Y-10312674D02*
X5798634Y-10312674D01*
X5798634Y-10312674D02*
X5817682Y-10322198D01*
X5817682Y-10322198D02*
X5827205Y-10331722D01*
X5827205Y-10331722D02*
X5836729Y-10350770D01*
X5836729Y-10350770D02*
X5836729Y-10398389D01*
X5836729Y-10398389D02*
X5827205Y-10417436D01*
X5827205Y-10417436D02*
X5817682Y-10426960D01*
X5817682Y-10426960D02*
X5798634Y-10436484D01*
X5798634Y-10436484D02*
X5751015Y-10436484D01*
X5751015Y-10436484D02*
X5731967Y-10426960D01*
X5731967Y-10426960D02*
X5722443Y-10417436D01*
X5960539Y-10236484D02*
X5979586Y-10236484D01*
X5979586Y-10236484D02*
X5998634Y-10246008D01*
X5998634Y-10246008D02*
X6008158Y-10255531D01*
X6008158Y-10255531D02*
X6017682Y-10274579D01*
X6017682Y-10274579D02*
X6027205Y-10312674D01*
X6027205Y-10312674D02*
X6027205Y-10360293D01*
X6027205Y-10360293D02*
X6017682Y-10398389D01*
X6017682Y-10398389D02*
X6008158Y-10417436D01*
X6008158Y-10417436D02*
X5998634Y-10426960D01*
X5998634Y-10426960D02*
X5979586Y-10436484D01*
X5979586Y-10436484D02*
X5960539Y-10436484D01*
X5960539Y-10436484D02*
X5941491Y-10426960D01*
X5941491Y-10426960D02*
X5931967Y-10417436D01*
X5931967Y-10417436D02*
X5922443Y-10398389D01*
X5922443Y-10398389D02*
X5912920Y-10360293D01*
X5912920Y-10360293D02*
X5912920Y-10312674D01*
X5912920Y-10312674D02*
X5922443Y-10274579D01*
X5922443Y-10274579D02*
X5931967Y-10255531D01*
X5931967Y-10255531D02*
X5941491Y-10246008D01*
X5941491Y-10246008D02*
X5960539Y-10236484D01*
X6112920Y-10436484D02*
X6112920Y-10303150D01*
X6112920Y-10322198D02*
X6122443Y-10312674D01*
X6122443Y-10312674D02*
X6141491Y-10303150D01*
X6141491Y-10303150D02*
X6170063Y-10303150D01*
X6170063Y-10303150D02*
X6189110Y-10312674D01*
X6189110Y-10312674D02*
X6198634Y-10331722D01*
X6198634Y-10331722D02*
X6198634Y-10436484D01*
X6198634Y-10331722D02*
X6208158Y-10312674D01*
X6208158Y-10312674D02*
X6227205Y-10303150D01*
X6227205Y-10303150D02*
X6255777Y-10303150D01*
X6255777Y-10303150D02*
X6274824Y-10312674D01*
X6274824Y-10312674D02*
X6284348Y-10331722D01*
X6284348Y-10331722D02*
X6284348Y-10436484D01*
X6379586Y-10436484D02*
X6379586Y-10303150D01*
X6379586Y-10322198D02*
X6389110Y-10312674D01*
X6389110Y-10312674D02*
X6408158Y-10303150D01*
X6408158Y-10303150D02*
X6436729Y-10303150D01*
X6436729Y-10303150D02*
X6455777Y-10312674D01*
X6455777Y-10312674D02*
X6465301Y-10331722D01*
X6465301Y-10331722D02*
X6465301Y-10436484D01*
X6465301Y-10331722D02*
X6474824Y-10312674D01*
X6474824Y-10312674D02*
X6493872Y-10303150D01*
X6493872Y-10303150D02*
X6522443Y-10303150D01*
X6522443Y-10303150D02*
X6541491Y-10312674D01*
X6541491Y-10312674D02*
X6551015Y-10331722D01*
X6551015Y-10331722D02*
X6551015Y-10436484D01*
X6941491Y-10226960D02*
X6770063Y-10484103D01*
X7198634Y-10236484D02*
X7217682Y-10236484D01*
X7217682Y-10236484D02*
X7236729Y-10246008D01*
X7236729Y-10246008D02*
X7246253Y-10255531D01*
X7246253Y-10255531D02*
X7255777Y-10274579D01*
X7255777Y-10274579D02*
X7265301Y-10312674D01*
X7265301Y-10312674D02*
X7265301Y-10360293D01*
X7265301Y-10360293D02*
X7255777Y-10398389D01*
X7255777Y-10398389D02*
X7246253Y-10417436D01*
X7246253Y-10417436D02*
X7236729Y-10426960D01*
X7236729Y-10426960D02*
X7217682Y-10436484D01*
X7217682Y-10436484D02*
X7198634Y-10436484D01*
X7198634Y-10436484D02*
X7179586Y-10426960D01*
X7179586Y-10426960D02*
X7170063Y-10417436D01*
X7170063Y-10417436D02*
X7160539Y-10398389D01*
X7160539Y-10398389D02*
X7151015Y-10360293D01*
X7151015Y-10360293D02*
X7151015Y-10312674D01*
X7151015Y-10312674D02*
X7160539Y-10274579D01*
X7160539Y-10274579D02*
X7170063Y-10255531D01*
X7170063Y-10255531D02*
X7179586Y-10246008D01*
X7179586Y-10246008D02*
X7198634Y-10236484D01*
X7351015Y-10417436D02*
X7360539Y-10426960D01*
X7360539Y-10426960D02*
X7351015Y-10436484D01*
X7351015Y-10436484D02*
X7341491Y-10426960D01*
X7341491Y-10426960D02*
X7351015Y-10417436D01*
X7351015Y-10417436D02*
X7351015Y-10436484D01*
X7484348Y-10236484D02*
X7503396Y-10236484D01*
X7503396Y-10236484D02*
X7522444Y-10246008D01*
X7522444Y-10246008D02*
X7531967Y-10255531D01*
X7531967Y-10255531D02*
X7541491Y-10274579D01*
X7541491Y-10274579D02*
X7551015Y-10312674D01*
X7551015Y-10312674D02*
X7551015Y-10360293D01*
X7551015Y-10360293D02*
X7541491Y-10398389D01*
X7541491Y-10398389D02*
X7531967Y-10417436D01*
X7531967Y-10417436D02*
X7522444Y-10426960D01*
X7522444Y-10426960D02*
X7503396Y-10436484D01*
X7503396Y-10436484D02*
X7484348Y-10436484D01*
X7484348Y-10436484D02*
X7465301Y-10426960D01*
X7465301Y-10426960D02*
X7455777Y-10417436D01*
X7455777Y-10417436D02*
X7446253Y-10398389D01*
X7446253Y-10398389D02*
X7436729Y-10360293D01*
X7436729Y-10360293D02*
X7436729Y-10312674D01*
X7436729Y-10312674D02*
X7446253Y-10274579D01*
X7446253Y-10274579D02*
X7455777Y-10255531D01*
X7455777Y-10255531D02*
X7465301Y-10246008D01*
X7465301Y-10246008D02*
X7484348Y-10236484D01*
X7674825Y-10236484D02*
X7693872Y-10236484D01*
X7693872Y-10236484D02*
X7712920Y-10246008D01*
X7712920Y-10246008D02*
X7722444Y-10255531D01*
X7722444Y-10255531D02*
X7731967Y-10274579D01*
X7731967Y-10274579D02*
X7741491Y-10312674D01*
X7741491Y-10312674D02*
X7741491Y-10360293D01*
X7741491Y-10360293D02*
X7731967Y-10398389D01*
X7731967Y-10398389D02*
X7722444Y-10417436D01*
X7722444Y-10417436D02*
X7712920Y-10426960D01*
X7712920Y-10426960D02*
X7693872Y-10436484D01*
X7693872Y-10436484D02*
X7674825Y-10436484D01*
X7674825Y-10436484D02*
X7655777Y-10426960D01*
X7655777Y-10426960D02*
X7646253Y-10417436D01*
X7646253Y-10417436D02*
X7636729Y-10398389D01*
X7636729Y-10398389D02*
X7627206Y-10360293D01*
X7627206Y-10360293D02*
X7627206Y-10312674D01*
X7627206Y-10312674D02*
X7636729Y-10274579D01*
X7636729Y-10274579D02*
X7646253Y-10255531D01*
X7646253Y-10255531D02*
X7655777Y-10246008D01*
X7655777Y-10246008D02*
X7674825Y-10236484D01*
X7836729Y-10436484D02*
X7874825Y-10436484D01*
X7874825Y-10436484D02*
X7893872Y-10426960D01*
X7893872Y-10426960D02*
X7903396Y-10417436D01*
X7903396Y-10417436D02*
X7922444Y-10388865D01*
X7922444Y-10388865D02*
X7931967Y-10350770D01*
X7931967Y-10350770D02*
X7931967Y-10274579D01*
X7931967Y-10274579D02*
X7922444Y-10255531D01*
X7922444Y-10255531D02*
X7912920Y-10246008D01*
X7912920Y-10246008D02*
X7893872Y-10236484D01*
X7893872Y-10236484D02*
X7855777Y-10236484D01*
X7855777Y-10236484D02*
X7836729Y-10246008D01*
X7836729Y-10246008D02*
X7827206Y-10255531D01*
X7827206Y-10255531D02*
X7817682Y-10274579D01*
X7817682Y-10274579D02*
X7817682Y-10322198D01*
X7817682Y-10322198D02*
X7827206Y-10341246D01*
X7827206Y-10341246D02*
X7836729Y-10350770D01*
X7836729Y-10350770D02*
X7855777Y-10360293D01*
X7855777Y-10360293D02*
X7893872Y-10360293D01*
X7893872Y-10360293D02*
X7912920Y-10350770D01*
X7912920Y-10350770D02*
X7922444Y-10341246D01*
X7922444Y-10341246D02*
X7931967Y-10322198D01*
X8046253Y-10322198D02*
X8027206Y-10312674D01*
X8027206Y-10312674D02*
X8017682Y-10303150D01*
X8017682Y-10303150D02*
X8008158Y-10284103D01*
X8008158Y-10284103D02*
X8008158Y-10274579D01*
X8008158Y-10274579D02*
X8017682Y-10255531D01*
X8017682Y-10255531D02*
X8027206Y-10246008D01*
X8027206Y-10246008D02*
X8046253Y-10236484D01*
X8046253Y-10236484D02*
X8084348Y-10236484D01*
X8084348Y-10236484D02*
X8103396Y-10246008D01*
X8103396Y-10246008D02*
X8112920Y-10255531D01*
X8112920Y-10255531D02*
X8122444Y-10274579D01*
X8122444Y-10274579D02*
X8122444Y-10284103D01*
X8122444Y-10284103D02*
X8112920Y-10303150D01*
X8112920Y-10303150D02*
X8103396Y-10312674D01*
X8103396Y-10312674D02*
X8084348Y-10322198D01*
X8084348Y-10322198D02*
X8046253Y-10322198D01*
X8046253Y-10322198D02*
X8027206Y-10331722D01*
X8027206Y-10331722D02*
X8017682Y-10341246D01*
X8017682Y-10341246D02*
X8008158Y-10360293D01*
X8008158Y-10360293D02*
X8008158Y-10398389D01*
X8008158Y-10398389D02*
X8017682Y-10417436D01*
X8017682Y-10417436D02*
X8027206Y-10426960D01*
X8027206Y-10426960D02*
X8046253Y-10436484D01*
X8046253Y-10436484D02*
X8084348Y-10436484D01*
X8084348Y-10436484D02*
X8103396Y-10426960D01*
X8103396Y-10426960D02*
X8112920Y-10417436D01*
X8112920Y-10417436D02*
X8122444Y-10398389D01*
X8122444Y-10398389D02*
X8122444Y-10360293D01*
X8122444Y-10360293D02*
X8112920Y-10341246D01*
X8112920Y-10341246D02*
X8103396Y-10331722D01*
X8103396Y-10331722D02*
X8084348Y-10322198D01*
X8198634Y-10236484D02*
X8198634Y-10274579D01*
X8274825Y-10236484D02*
X8274825Y-10274579D01*
X8570063Y-10512674D02*
X8560539Y-10503150D01*
X8560539Y-10503150D02*
X8541491Y-10474579D01*
X8541491Y-10474579D02*
X8531968Y-10455531D01*
X8531968Y-10455531D02*
X8522444Y-10426960D01*
X8522444Y-10426960D02*
X8512920Y-10379341D01*
X8512920Y-10379341D02*
X8512920Y-10341246D01*
X8512920Y-10341246D02*
X8522444Y-10293627D01*
X8522444Y-10293627D02*
X8531968Y-10265055D01*
X8531968Y-10265055D02*
X8541491Y-10246008D01*
X8541491Y-10246008D02*
X8560539Y-10217436D01*
X8560539Y-10217436D02*
X8570063Y-10207912D01*
X8731968Y-10236484D02*
X8693872Y-10236484D01*
X8693872Y-10236484D02*
X8674825Y-10246008D01*
X8674825Y-10246008D02*
X8665301Y-10255531D01*
X8665301Y-10255531D02*
X8646253Y-10284103D01*
X8646253Y-10284103D02*
X8636730Y-10322198D01*
X8636730Y-10322198D02*
X8636730Y-10398389D01*
X8636730Y-10398389D02*
X8646253Y-10417436D01*
X8646253Y-10417436D02*
X8655777Y-10426960D01*
X8655777Y-10426960D02*
X8674825Y-10436484D01*
X8674825Y-10436484D02*
X8712920Y-10436484D01*
X8712920Y-10436484D02*
X8731968Y-10426960D01*
X8731968Y-10426960D02*
X8741491Y-10417436D01*
X8741491Y-10417436D02*
X8751015Y-10398389D01*
X8751015Y-10398389D02*
X8751015Y-10350770D01*
X8751015Y-10350770D02*
X8741491Y-10331722D01*
X8741491Y-10331722D02*
X8731968Y-10322198D01*
X8731968Y-10322198D02*
X8712920Y-10312674D01*
X8712920Y-10312674D02*
X8674825Y-10312674D01*
X8674825Y-10312674D02*
X8655777Y-10322198D01*
X8655777Y-10322198D02*
X8646253Y-10331722D01*
X8646253Y-10331722D02*
X8636730Y-10350770D01*
X8989111Y-10436484D02*
X8989111Y-10236484D01*
X9074825Y-10436484D02*
X9074825Y-10331722D01*
X9074825Y-10331722D02*
X9065301Y-10312674D01*
X9065301Y-10312674D02*
X9046253Y-10303150D01*
X9046253Y-10303150D02*
X9017682Y-10303150D01*
X9017682Y-10303150D02*
X8998634Y-10312674D01*
X8998634Y-10312674D02*
X8989111Y-10322198D01*
X9198634Y-10436484D02*
X9179587Y-10426960D01*
X9179587Y-10426960D02*
X9170063Y-10417436D01*
X9170063Y-10417436D02*
X9160539Y-10398389D01*
X9160539Y-10398389D02*
X9160539Y-10341246D01*
X9160539Y-10341246D02*
X9170063Y-10322198D01*
X9170063Y-10322198D02*
X9179587Y-10312674D01*
X9179587Y-10312674D02*
X9198634Y-10303150D01*
X9198634Y-10303150D02*
X9227206Y-10303150D01*
X9227206Y-10303150D02*
X9246253Y-10312674D01*
X9246253Y-10312674D02*
X9255777Y-10322198D01*
X9255777Y-10322198D02*
X9265301Y-10341246D01*
X9265301Y-10341246D02*
X9265301Y-10398389D01*
X9265301Y-10398389D02*
X9255777Y-10417436D01*
X9255777Y-10417436D02*
X9246253Y-10426960D01*
X9246253Y-10426960D02*
X9227206Y-10436484D01*
X9227206Y-10436484D02*
X9198634Y-10436484D01*
X9379587Y-10436484D02*
X9360539Y-10426960D01*
X9360539Y-10426960D02*
X9351015Y-10407912D01*
X9351015Y-10407912D02*
X9351015Y-10236484D01*
X9531968Y-10426960D02*
X9512920Y-10436484D01*
X9512920Y-10436484D02*
X9474825Y-10436484D01*
X9474825Y-10436484D02*
X9455777Y-10426960D01*
X9455777Y-10426960D02*
X9446253Y-10407912D01*
X9446253Y-10407912D02*
X9446253Y-10331722D01*
X9446253Y-10331722D02*
X9455777Y-10312674D01*
X9455777Y-10312674D02*
X9474825Y-10303150D01*
X9474825Y-10303150D02*
X9512920Y-10303150D01*
X9512920Y-10303150D02*
X9531968Y-10312674D01*
X9531968Y-10312674D02*
X9541492Y-10331722D01*
X9541492Y-10331722D02*
X9541492Y-10350770D01*
X9541492Y-10350770D02*
X9446253Y-10369817D01*
X9617682Y-10426960D02*
X9636730Y-10436484D01*
X9636730Y-10436484D02*
X9674825Y-10436484D01*
X9674825Y-10436484D02*
X9693873Y-10426960D01*
X9693873Y-10426960D02*
X9703396Y-10407912D01*
X9703396Y-10407912D02*
X9703396Y-10398389D01*
X9703396Y-10398389D02*
X9693873Y-10379341D01*
X9693873Y-10379341D02*
X9674825Y-10369817D01*
X9674825Y-10369817D02*
X9646253Y-10369817D01*
X9646253Y-10369817D02*
X9627206Y-10360293D01*
X9627206Y-10360293D02*
X9617682Y-10341246D01*
X9617682Y-10341246D02*
X9617682Y-10331722D01*
X9617682Y-10331722D02*
X9627206Y-10312674D01*
X9627206Y-10312674D02*
X9646253Y-10303150D01*
X9646253Y-10303150D02*
X9674825Y-10303150D01*
X9674825Y-10303150D02*
X9693873Y-10312674D01*
X9770063Y-10512674D02*
X9779587Y-10503150D01*
X9779587Y-10503150D02*
X9798634Y-10474579D01*
X9798634Y-10474579D02*
X9808158Y-10455531D01*
X9808158Y-10455531D02*
X9817682Y-10426960D01*
X9817682Y-10426960D02*
X9827206Y-10379341D01*
X9827206Y-10379341D02*
X9827206Y-10341246D01*
X9827206Y-10341246D02*
X9817682Y-10293627D01*
X9817682Y-10293627D02*
X9808158Y-10265055D01*
X9808158Y-10265055D02*
X9798634Y-10246008D01*
X9798634Y-10246008D02*
X9779587Y-10217436D01*
X9779587Y-10217436D02*
X9770063Y-10207912D01*
D10*
X4995000Y-10609000D02*
G75*
G02*
X4965000Y-10609000I-15000J0D01*
G01*
X4965000Y-10609000D02*
G75*
G02*
X4995000Y-10609000I15000J0D01*
G01*
D11*
X5293872Y-10500484D02*
X5312920Y-10500484D01*
X5312920Y-10500484D02*
X5331967Y-10510008D01*
X5331967Y-10510008D02*
X5341491Y-10519531D01*
X5341491Y-10519531D02*
X5351015Y-10538579D01*
X5351015Y-10538579D02*
X5360539Y-10576674D01*
X5360539Y-10576674D02*
X5360539Y-10624293D01*
X5360539Y-10624293D02*
X5351015Y-10662389D01*
X5351015Y-10662389D02*
X5341491Y-10681436D01*
X5341491Y-10681436D02*
X5331967Y-10690960D01*
X5331967Y-10690960D02*
X5312920Y-10700484D01*
X5312920Y-10700484D02*
X5293872Y-10700484D01*
X5293872Y-10700484D02*
X5274824Y-10690960D01*
X5274824Y-10690960D02*
X5265301Y-10681436D01*
X5265301Y-10681436D02*
X5255777Y-10662389D01*
X5255777Y-10662389D02*
X5246253Y-10624293D01*
X5246253Y-10624293D02*
X5246253Y-10576674D01*
X5246253Y-10576674D02*
X5255777Y-10538579D01*
X5255777Y-10538579D02*
X5265301Y-10519531D01*
X5265301Y-10519531D02*
X5274824Y-10510008D01*
X5274824Y-10510008D02*
X5293872Y-10500484D01*
X5446253Y-10681436D02*
X5455777Y-10690960D01*
X5455777Y-10690960D02*
X5446253Y-10700484D01*
X5446253Y-10700484D02*
X5436729Y-10690960D01*
X5436729Y-10690960D02*
X5446253Y-10681436D01*
X5446253Y-10681436D02*
X5446253Y-10700484D01*
X5522444Y-10500484D02*
X5646253Y-10500484D01*
X5646253Y-10500484D02*
X5579586Y-10576674D01*
X5579586Y-10576674D02*
X5608158Y-10576674D01*
X5608158Y-10576674D02*
X5627205Y-10586198D01*
X5627205Y-10586198D02*
X5636729Y-10595722D01*
X5636729Y-10595722D02*
X5646253Y-10614770D01*
X5646253Y-10614770D02*
X5646253Y-10662389D01*
X5646253Y-10662389D02*
X5636729Y-10681436D01*
X5636729Y-10681436D02*
X5627205Y-10690960D01*
X5627205Y-10690960D02*
X5608158Y-10700484D01*
X5608158Y-10700484D02*
X5551015Y-10700484D01*
X5551015Y-10700484D02*
X5531967Y-10690960D01*
X5531967Y-10690960D02*
X5522444Y-10681436D01*
X5770062Y-10500484D02*
X5789110Y-10500484D01*
X5789110Y-10500484D02*
X5808158Y-10510008D01*
X5808158Y-10510008D02*
X5817682Y-10519531D01*
X5817682Y-10519531D02*
X5827205Y-10538579D01*
X5827205Y-10538579D02*
X5836729Y-10576674D01*
X5836729Y-10576674D02*
X5836729Y-10624293D01*
X5836729Y-10624293D02*
X5827205Y-10662389D01*
X5827205Y-10662389D02*
X5817682Y-10681436D01*
X5817682Y-10681436D02*
X5808158Y-10690960D01*
X5808158Y-10690960D02*
X5789110Y-10700484D01*
X5789110Y-10700484D02*
X5770062Y-10700484D01*
X5770062Y-10700484D02*
X5751015Y-10690960D01*
X5751015Y-10690960D02*
X5741491Y-10681436D01*
X5741491Y-10681436D02*
X5731967Y-10662389D01*
X5731967Y-10662389D02*
X5722443Y-10624293D01*
X5722443Y-10624293D02*
X5722443Y-10576674D01*
X5722443Y-10576674D02*
X5731967Y-10538579D01*
X5731967Y-10538579D02*
X5741491Y-10519531D01*
X5741491Y-10519531D02*
X5751015Y-10510008D01*
X5751015Y-10510008D02*
X5770062Y-10500484D01*
X5960539Y-10500484D02*
X5979586Y-10500484D01*
X5979586Y-10500484D02*
X5998634Y-10510008D01*
X5998634Y-10510008D02*
X6008158Y-10519531D01*
X6008158Y-10519531D02*
X6017682Y-10538579D01*
X6017682Y-10538579D02*
X6027205Y-10576674D01*
X6027205Y-10576674D02*
X6027205Y-10624293D01*
X6027205Y-10624293D02*
X6017682Y-10662389D01*
X6017682Y-10662389D02*
X6008158Y-10681436D01*
X6008158Y-10681436D02*
X5998634Y-10690960D01*
X5998634Y-10690960D02*
X5979586Y-10700484D01*
X5979586Y-10700484D02*
X5960539Y-10700484D01*
X5960539Y-10700484D02*
X5941491Y-10690960D01*
X5941491Y-10690960D02*
X5931967Y-10681436D01*
X5931967Y-10681436D02*
X5922443Y-10662389D01*
X5922443Y-10662389D02*
X5912920Y-10624293D01*
X5912920Y-10624293D02*
X5912920Y-10576674D01*
X5912920Y-10576674D02*
X5922443Y-10538579D01*
X5922443Y-10538579D02*
X5931967Y-10519531D01*
X5931967Y-10519531D02*
X5941491Y-10510008D01*
X5941491Y-10510008D02*
X5960539Y-10500484D01*
X6112920Y-10700484D02*
X6112920Y-10567150D01*
X6112920Y-10586198D02*
X6122443Y-10576674D01*
X6122443Y-10576674D02*
X6141491Y-10567150D01*
X6141491Y-10567150D02*
X6170063Y-10567150D01*
X6170063Y-10567150D02*
X6189110Y-10576674D01*
X6189110Y-10576674D02*
X6198634Y-10595722D01*
X6198634Y-10595722D02*
X6198634Y-10700484D01*
X6198634Y-10595722D02*
X6208158Y-10576674D01*
X6208158Y-10576674D02*
X6227205Y-10567150D01*
X6227205Y-10567150D02*
X6255777Y-10567150D01*
X6255777Y-10567150D02*
X6274824Y-10576674D01*
X6274824Y-10576674D02*
X6284348Y-10595722D01*
X6284348Y-10595722D02*
X6284348Y-10700484D01*
X6379586Y-10700484D02*
X6379586Y-10567150D01*
X6379586Y-10586198D02*
X6389110Y-10576674D01*
X6389110Y-10576674D02*
X6408158Y-10567150D01*
X6408158Y-10567150D02*
X6436729Y-10567150D01*
X6436729Y-10567150D02*
X6455777Y-10576674D01*
X6455777Y-10576674D02*
X6465301Y-10595722D01*
X6465301Y-10595722D02*
X6465301Y-10700484D01*
X6465301Y-10595722D02*
X6474824Y-10576674D01*
X6474824Y-10576674D02*
X6493872Y-10567150D01*
X6493872Y-10567150D02*
X6522443Y-10567150D01*
X6522443Y-10567150D02*
X6541491Y-10576674D01*
X6541491Y-10576674D02*
X6551015Y-10595722D01*
X6551015Y-10595722D02*
X6551015Y-10700484D01*
X6941491Y-10490960D02*
X6770063Y-10748103D01*
X7198634Y-10500484D02*
X7217682Y-10500484D01*
X7217682Y-10500484D02*
X7236729Y-10510008D01*
X7236729Y-10510008D02*
X7246253Y-10519531D01*
X7246253Y-10519531D02*
X7255777Y-10538579D01*
X7255777Y-10538579D02*
X7265301Y-10576674D01*
X7265301Y-10576674D02*
X7265301Y-10624293D01*
X7265301Y-10624293D02*
X7255777Y-10662389D01*
X7255777Y-10662389D02*
X7246253Y-10681436D01*
X7246253Y-10681436D02*
X7236729Y-10690960D01*
X7236729Y-10690960D02*
X7217682Y-10700484D01*
X7217682Y-10700484D02*
X7198634Y-10700484D01*
X7198634Y-10700484D02*
X7179586Y-10690960D01*
X7179586Y-10690960D02*
X7170063Y-10681436D01*
X7170063Y-10681436D02*
X7160539Y-10662389D01*
X7160539Y-10662389D02*
X7151015Y-10624293D01*
X7151015Y-10624293D02*
X7151015Y-10576674D01*
X7151015Y-10576674D02*
X7160539Y-10538579D01*
X7160539Y-10538579D02*
X7170063Y-10519531D01*
X7170063Y-10519531D02*
X7179586Y-10510008D01*
X7179586Y-10510008D02*
X7198634Y-10500484D01*
X7351015Y-10681436D02*
X7360539Y-10690960D01*
X7360539Y-10690960D02*
X7351015Y-10700484D01*
X7351015Y-10700484D02*
X7341491Y-10690960D01*
X7341491Y-10690960D02*
X7351015Y-10681436D01*
X7351015Y-10681436D02*
X7351015Y-10700484D01*
X7484348Y-10500484D02*
X7503396Y-10500484D01*
X7503396Y-10500484D02*
X7522444Y-10510008D01*
X7522444Y-10510008D02*
X7531967Y-10519531D01*
X7531967Y-10519531D02*
X7541491Y-10538579D01*
X7541491Y-10538579D02*
X7551015Y-10576674D01*
X7551015Y-10576674D02*
X7551015Y-10624293D01*
X7551015Y-10624293D02*
X7541491Y-10662389D01*
X7541491Y-10662389D02*
X7531967Y-10681436D01*
X7531967Y-10681436D02*
X7522444Y-10690960D01*
X7522444Y-10690960D02*
X7503396Y-10700484D01*
X7503396Y-10700484D02*
X7484348Y-10700484D01*
X7484348Y-10700484D02*
X7465301Y-10690960D01*
X7465301Y-10690960D02*
X7455777Y-10681436D01*
X7455777Y-10681436D02*
X7446253Y-10662389D01*
X7446253Y-10662389D02*
X7436729Y-10624293D01*
X7436729Y-10624293D02*
X7436729Y-10576674D01*
X7436729Y-10576674D02*
X7446253Y-10538579D01*
X7446253Y-10538579D02*
X7455777Y-10519531D01*
X7455777Y-10519531D02*
X7465301Y-10510008D01*
X7465301Y-10510008D02*
X7484348Y-10500484D01*
X7741491Y-10700484D02*
X7627206Y-10700484D01*
X7684348Y-10700484D02*
X7684348Y-10500484D01*
X7684348Y-10500484D02*
X7665301Y-10529055D01*
X7665301Y-10529055D02*
X7646253Y-10548103D01*
X7646253Y-10548103D02*
X7627206Y-10557627D01*
X7931967Y-10700484D02*
X7817682Y-10700484D01*
X7874825Y-10700484D02*
X7874825Y-10500484D01*
X7874825Y-10500484D02*
X7855777Y-10529055D01*
X7855777Y-10529055D02*
X7836729Y-10548103D01*
X7836729Y-10548103D02*
X7817682Y-10557627D01*
X8046253Y-10586198D02*
X8027206Y-10576674D01*
X8027206Y-10576674D02*
X8017682Y-10567150D01*
X8017682Y-10567150D02*
X8008158Y-10548103D01*
X8008158Y-10548103D02*
X8008158Y-10538579D01*
X8008158Y-10538579D02*
X8017682Y-10519531D01*
X8017682Y-10519531D02*
X8027206Y-10510008D01*
X8027206Y-10510008D02*
X8046253Y-10500484D01*
X8046253Y-10500484D02*
X8084348Y-10500484D01*
X8084348Y-10500484D02*
X8103396Y-10510008D01*
X8103396Y-10510008D02*
X8112920Y-10519531D01*
X8112920Y-10519531D02*
X8122444Y-10538579D01*
X8122444Y-10538579D02*
X8122444Y-10548103D01*
X8122444Y-10548103D02*
X8112920Y-10567150D01*
X8112920Y-10567150D02*
X8103396Y-10576674D01*
X8103396Y-10576674D02*
X8084348Y-10586198D01*
X8084348Y-10586198D02*
X8046253Y-10586198D01*
X8046253Y-10586198D02*
X8027206Y-10595722D01*
X8027206Y-10595722D02*
X8017682Y-10605246D01*
X8017682Y-10605246D02*
X8008158Y-10624293D01*
X8008158Y-10624293D02*
X8008158Y-10662389D01*
X8008158Y-10662389D02*
X8017682Y-10681436D01*
X8017682Y-10681436D02*
X8027206Y-10690960D01*
X8027206Y-10690960D02*
X8046253Y-10700484D01*
X8046253Y-10700484D02*
X8084348Y-10700484D01*
X8084348Y-10700484D02*
X8103396Y-10690960D01*
X8103396Y-10690960D02*
X8112920Y-10681436D01*
X8112920Y-10681436D02*
X8122444Y-10662389D01*
X8122444Y-10662389D02*
X8122444Y-10624293D01*
X8122444Y-10624293D02*
X8112920Y-10605246D01*
X8112920Y-10605246D02*
X8103396Y-10595722D01*
X8103396Y-10595722D02*
X8084348Y-10586198D01*
X8198634Y-10500484D02*
X8198634Y-10538579D01*
X8274825Y-10500484D02*
X8274825Y-10538579D01*
X8570063Y-10776674D02*
X8560539Y-10767150D01*
X8560539Y-10767150D02*
X8541491Y-10738579D01*
X8541491Y-10738579D02*
X8531968Y-10719531D01*
X8531968Y-10719531D02*
X8522444Y-10690960D01*
X8522444Y-10690960D02*
X8512920Y-10643341D01*
X8512920Y-10643341D02*
X8512920Y-10605246D01*
X8512920Y-10605246D02*
X8522444Y-10557627D01*
X8522444Y-10557627D02*
X8531968Y-10529055D01*
X8531968Y-10529055D02*
X8541491Y-10510008D01*
X8541491Y-10510008D02*
X8560539Y-10481436D01*
X8560539Y-10481436D02*
X8570063Y-10471912D01*
X8636730Y-10519531D02*
X8646253Y-10510008D01*
X8646253Y-10510008D02*
X8665301Y-10500484D01*
X8665301Y-10500484D02*
X8712920Y-10500484D01*
X8712920Y-10500484D02*
X8731968Y-10510008D01*
X8731968Y-10510008D02*
X8741491Y-10519531D01*
X8741491Y-10519531D02*
X8751015Y-10538579D01*
X8751015Y-10538579D02*
X8751015Y-10557627D01*
X8751015Y-10557627D02*
X8741491Y-10586198D01*
X8741491Y-10586198D02*
X8627206Y-10700484D01*
X8627206Y-10700484D02*
X8751015Y-10700484D01*
X8874825Y-10500484D02*
X8893872Y-10500484D01*
X8893872Y-10500484D02*
X8912920Y-10510008D01*
X8912920Y-10510008D02*
X8922444Y-10519531D01*
X8922444Y-10519531D02*
X8931968Y-10538579D01*
X8931968Y-10538579D02*
X8941491Y-10576674D01*
X8941491Y-10576674D02*
X8941491Y-10624293D01*
X8941491Y-10624293D02*
X8931968Y-10662389D01*
X8931968Y-10662389D02*
X8922444Y-10681436D01*
X8922444Y-10681436D02*
X8912920Y-10690960D01*
X8912920Y-10690960D02*
X8893872Y-10700484D01*
X8893872Y-10700484D02*
X8874825Y-10700484D01*
X8874825Y-10700484D02*
X8855777Y-10690960D01*
X8855777Y-10690960D02*
X8846253Y-10681436D01*
X8846253Y-10681436D02*
X8836730Y-10662389D01*
X8836730Y-10662389D02*
X8827206Y-10624293D01*
X8827206Y-10624293D02*
X8827206Y-10576674D01*
X8827206Y-10576674D02*
X8836730Y-10538579D01*
X8836730Y-10538579D02*
X8846253Y-10519531D01*
X8846253Y-10519531D02*
X8855777Y-10510008D01*
X8855777Y-10510008D02*
X8874825Y-10500484D01*
X9131968Y-10700484D02*
X9017682Y-10700484D01*
X9074825Y-10700484D02*
X9074825Y-10500484D01*
X9074825Y-10500484D02*
X9055777Y-10529055D01*
X9055777Y-10529055D02*
X9036730Y-10548103D01*
X9036730Y-10548103D02*
X9017682Y-10557627D01*
X9370063Y-10700484D02*
X9370063Y-10500484D01*
X9455777Y-10700484D02*
X9455777Y-10595722D01*
X9455777Y-10595722D02*
X9446253Y-10576674D01*
X9446253Y-10576674D02*
X9427206Y-10567150D01*
X9427206Y-10567150D02*
X9398634Y-10567150D01*
X9398634Y-10567150D02*
X9379587Y-10576674D01*
X9379587Y-10576674D02*
X9370063Y-10586198D01*
X9579587Y-10700484D02*
X9560539Y-10690960D01*
X9560539Y-10690960D02*
X9551015Y-10681436D01*
X9551015Y-10681436D02*
X9541492Y-10662389D01*
X9541492Y-10662389D02*
X9541492Y-10605246D01*
X9541492Y-10605246D02*
X9551015Y-10586198D01*
X9551015Y-10586198D02*
X9560539Y-10576674D01*
X9560539Y-10576674D02*
X9579587Y-10567150D01*
X9579587Y-10567150D02*
X9608158Y-10567150D01*
X9608158Y-10567150D02*
X9627206Y-10576674D01*
X9627206Y-10576674D02*
X9636730Y-10586198D01*
X9636730Y-10586198D02*
X9646253Y-10605246D01*
X9646253Y-10605246D02*
X9646253Y-10662389D01*
X9646253Y-10662389D02*
X9636730Y-10681436D01*
X9636730Y-10681436D02*
X9627206Y-10690960D01*
X9627206Y-10690960D02*
X9608158Y-10700484D01*
X9608158Y-10700484D02*
X9579587Y-10700484D01*
X9760539Y-10700484D02*
X9741492Y-10690960D01*
X9741492Y-10690960D02*
X9731968Y-10671912D01*
X9731968Y-10671912D02*
X9731968Y-10500484D01*
X9912920Y-10690960D02*
X9893873Y-10700484D01*
X9893873Y-10700484D02*
X9855777Y-10700484D01*
X9855777Y-10700484D02*
X9836730Y-10690960D01*
X9836730Y-10690960D02*
X9827206Y-10671912D01*
X9827206Y-10671912D02*
X9827206Y-10595722D01*
X9827206Y-10595722D02*
X9836730Y-10576674D01*
X9836730Y-10576674D02*
X9855777Y-10567150D01*
X9855777Y-10567150D02*
X9893873Y-10567150D01*
X9893873Y-10567150D02*
X9912920Y-10576674D01*
X9912920Y-10576674D02*
X9922444Y-10595722D01*
X9922444Y-10595722D02*
X9922444Y-10614770D01*
X9922444Y-10614770D02*
X9827206Y-10633817D01*
X9998634Y-10690960D02*
X10017682Y-10700484D01*
X10017682Y-10700484D02*
X10055777Y-10700484D01*
X10055777Y-10700484D02*
X10074825Y-10690960D01*
X10074825Y-10690960D02*
X10084349Y-10671912D01*
X10084349Y-10671912D02*
X10084349Y-10662389D01*
X10084349Y-10662389D02*
X10074825Y-10643341D01*
X10074825Y-10643341D02*
X10055777Y-10633817D01*
X10055777Y-10633817D02*
X10027206Y-10633817D01*
X10027206Y-10633817D02*
X10008158Y-10624293D01*
X10008158Y-10624293D02*
X9998634Y-10605246D01*
X9998634Y-10605246D02*
X9998634Y-10595722D01*
X9998634Y-10595722D02*
X10008158Y-10576674D01*
X10008158Y-10576674D02*
X10027206Y-10567150D01*
X10027206Y-10567150D02*
X10055777Y-10567150D01*
X10055777Y-10567150D02*
X10074825Y-10576674D01*
X10151015Y-10776674D02*
X10160539Y-10767150D01*
X10160539Y-10767150D02*
X10179587Y-10738579D01*
X10179587Y-10738579D02*
X10189111Y-10719531D01*
X10189111Y-10719531D02*
X10198634Y-10690960D01*
X10198634Y-10690960D02*
X10208158Y-10643341D01*
X10208158Y-10643341D02*
X10208158Y-10605246D01*
X10208158Y-10605246D02*
X10198634Y-10557627D01*
X10198634Y-10557627D02*
X10189111Y-10529055D01*
X10189111Y-10529055D02*
X10179587Y-10510008D01*
X10179587Y-10510008D02*
X10160539Y-10481436D01*
X10160539Y-10481436D02*
X10151015Y-10471912D01*
D10*
X4980000Y-10858000D02*
X4980000Y-10888000D01*
X4965000Y-10873000D02*
X4995000Y-10873000D01*
D11*
X5293872Y-10764484D02*
X5312920Y-10764484D01*
X5312920Y-10764484D02*
X5331967Y-10774008D01*
X5331967Y-10774008D02*
X5341491Y-10783531D01*
X5341491Y-10783531D02*
X5351015Y-10802579D01*
X5351015Y-10802579D02*
X5360539Y-10840674D01*
X5360539Y-10840674D02*
X5360539Y-10888293D01*
X5360539Y-10888293D02*
X5351015Y-10926389D01*
X5351015Y-10926389D02*
X5341491Y-10945436D01*
X5341491Y-10945436D02*
X5331967Y-10954960D01*
X5331967Y-10954960D02*
X5312920Y-10964484D01*
X5312920Y-10964484D02*
X5293872Y-10964484D01*
X5293872Y-10964484D02*
X5274824Y-10954960D01*
X5274824Y-10954960D02*
X5265301Y-10945436D01*
X5265301Y-10945436D02*
X5255777Y-10926389D01*
X5255777Y-10926389D02*
X5246253Y-10888293D01*
X5246253Y-10888293D02*
X5246253Y-10840674D01*
X5246253Y-10840674D02*
X5255777Y-10802579D01*
X5255777Y-10802579D02*
X5265301Y-10783531D01*
X5265301Y-10783531D02*
X5274824Y-10774008D01*
X5274824Y-10774008D02*
X5293872Y-10764484D01*
X5446253Y-10945436D02*
X5455777Y-10954960D01*
X5455777Y-10954960D02*
X5446253Y-10964484D01*
X5446253Y-10964484D02*
X5436729Y-10954960D01*
X5436729Y-10954960D02*
X5446253Y-10945436D01*
X5446253Y-10945436D02*
X5446253Y-10964484D01*
X5522444Y-10764484D02*
X5646253Y-10764484D01*
X5646253Y-10764484D02*
X5579586Y-10840674D01*
X5579586Y-10840674D02*
X5608158Y-10840674D01*
X5608158Y-10840674D02*
X5627205Y-10850198D01*
X5627205Y-10850198D02*
X5636729Y-10859722D01*
X5636729Y-10859722D02*
X5646253Y-10878770D01*
X5646253Y-10878770D02*
X5646253Y-10926389D01*
X5646253Y-10926389D02*
X5636729Y-10945436D01*
X5636729Y-10945436D02*
X5627205Y-10954960D01*
X5627205Y-10954960D02*
X5608158Y-10964484D01*
X5608158Y-10964484D02*
X5551015Y-10964484D01*
X5551015Y-10964484D02*
X5531967Y-10954960D01*
X5531967Y-10954960D02*
X5522444Y-10945436D01*
X5770062Y-10764484D02*
X5789110Y-10764484D01*
X5789110Y-10764484D02*
X5808158Y-10774008D01*
X5808158Y-10774008D02*
X5817682Y-10783531D01*
X5817682Y-10783531D02*
X5827205Y-10802579D01*
X5827205Y-10802579D02*
X5836729Y-10840674D01*
X5836729Y-10840674D02*
X5836729Y-10888293D01*
X5836729Y-10888293D02*
X5827205Y-10926389D01*
X5827205Y-10926389D02*
X5817682Y-10945436D01*
X5817682Y-10945436D02*
X5808158Y-10954960D01*
X5808158Y-10954960D02*
X5789110Y-10964484D01*
X5789110Y-10964484D02*
X5770062Y-10964484D01*
X5770062Y-10964484D02*
X5751015Y-10954960D01*
X5751015Y-10954960D02*
X5741491Y-10945436D01*
X5741491Y-10945436D02*
X5731967Y-10926389D01*
X5731967Y-10926389D02*
X5722443Y-10888293D01*
X5722443Y-10888293D02*
X5722443Y-10840674D01*
X5722443Y-10840674D02*
X5731967Y-10802579D01*
X5731967Y-10802579D02*
X5741491Y-10783531D01*
X5741491Y-10783531D02*
X5751015Y-10774008D01*
X5751015Y-10774008D02*
X5770062Y-10764484D01*
X5960539Y-10764484D02*
X5979586Y-10764484D01*
X5979586Y-10764484D02*
X5998634Y-10774008D01*
X5998634Y-10774008D02*
X6008158Y-10783531D01*
X6008158Y-10783531D02*
X6017682Y-10802579D01*
X6017682Y-10802579D02*
X6027205Y-10840674D01*
X6027205Y-10840674D02*
X6027205Y-10888293D01*
X6027205Y-10888293D02*
X6017682Y-10926389D01*
X6017682Y-10926389D02*
X6008158Y-10945436D01*
X6008158Y-10945436D02*
X5998634Y-10954960D01*
X5998634Y-10954960D02*
X5979586Y-10964484D01*
X5979586Y-10964484D02*
X5960539Y-10964484D01*
X5960539Y-10964484D02*
X5941491Y-10954960D01*
X5941491Y-10954960D02*
X5931967Y-10945436D01*
X5931967Y-10945436D02*
X5922443Y-10926389D01*
X5922443Y-10926389D02*
X5912920Y-10888293D01*
X5912920Y-10888293D02*
X5912920Y-10840674D01*
X5912920Y-10840674D02*
X5922443Y-10802579D01*
X5922443Y-10802579D02*
X5931967Y-10783531D01*
X5931967Y-10783531D02*
X5941491Y-10774008D01*
X5941491Y-10774008D02*
X5960539Y-10764484D01*
X6112920Y-10964484D02*
X6112920Y-10831150D01*
X6112920Y-10850198D02*
X6122443Y-10840674D01*
X6122443Y-10840674D02*
X6141491Y-10831150D01*
X6141491Y-10831150D02*
X6170063Y-10831150D01*
X6170063Y-10831150D02*
X6189110Y-10840674D01*
X6189110Y-10840674D02*
X6198634Y-10859722D01*
X6198634Y-10859722D02*
X6198634Y-10964484D01*
X6198634Y-10859722D02*
X6208158Y-10840674D01*
X6208158Y-10840674D02*
X6227205Y-10831150D01*
X6227205Y-10831150D02*
X6255777Y-10831150D01*
X6255777Y-10831150D02*
X6274824Y-10840674D01*
X6274824Y-10840674D02*
X6284348Y-10859722D01*
X6284348Y-10859722D02*
X6284348Y-10964484D01*
X6379586Y-10964484D02*
X6379586Y-10831150D01*
X6379586Y-10850198D02*
X6389110Y-10840674D01*
X6389110Y-10840674D02*
X6408158Y-10831150D01*
X6408158Y-10831150D02*
X6436729Y-10831150D01*
X6436729Y-10831150D02*
X6455777Y-10840674D01*
X6455777Y-10840674D02*
X6465301Y-10859722D01*
X6465301Y-10859722D02*
X6465301Y-10964484D01*
X6465301Y-10859722D02*
X6474824Y-10840674D01*
X6474824Y-10840674D02*
X6493872Y-10831150D01*
X6493872Y-10831150D02*
X6522443Y-10831150D01*
X6522443Y-10831150D02*
X6541491Y-10840674D01*
X6541491Y-10840674D02*
X6551015Y-10859722D01*
X6551015Y-10859722D02*
X6551015Y-10964484D01*
X6941491Y-10754960D02*
X6770063Y-11012103D01*
X7198634Y-10764484D02*
X7217682Y-10764484D01*
X7217682Y-10764484D02*
X7236729Y-10774008D01*
X7236729Y-10774008D02*
X7246253Y-10783531D01*
X7246253Y-10783531D02*
X7255777Y-10802579D01*
X7255777Y-10802579D02*
X7265301Y-10840674D01*
X7265301Y-10840674D02*
X7265301Y-10888293D01*
X7265301Y-10888293D02*
X7255777Y-10926389D01*
X7255777Y-10926389D02*
X7246253Y-10945436D01*
X7246253Y-10945436D02*
X7236729Y-10954960D01*
X7236729Y-10954960D02*
X7217682Y-10964484D01*
X7217682Y-10964484D02*
X7198634Y-10964484D01*
X7198634Y-10964484D02*
X7179586Y-10954960D01*
X7179586Y-10954960D02*
X7170063Y-10945436D01*
X7170063Y-10945436D02*
X7160539Y-10926389D01*
X7160539Y-10926389D02*
X7151015Y-10888293D01*
X7151015Y-10888293D02*
X7151015Y-10840674D01*
X7151015Y-10840674D02*
X7160539Y-10802579D01*
X7160539Y-10802579D02*
X7170063Y-10783531D01*
X7170063Y-10783531D02*
X7179586Y-10774008D01*
X7179586Y-10774008D02*
X7198634Y-10764484D01*
X7351015Y-10945436D02*
X7360539Y-10954960D01*
X7360539Y-10954960D02*
X7351015Y-10964484D01*
X7351015Y-10964484D02*
X7341491Y-10954960D01*
X7341491Y-10954960D02*
X7351015Y-10945436D01*
X7351015Y-10945436D02*
X7351015Y-10964484D01*
X7484348Y-10764484D02*
X7503396Y-10764484D01*
X7503396Y-10764484D02*
X7522444Y-10774008D01*
X7522444Y-10774008D02*
X7531967Y-10783531D01*
X7531967Y-10783531D02*
X7541491Y-10802579D01*
X7541491Y-10802579D02*
X7551015Y-10840674D01*
X7551015Y-10840674D02*
X7551015Y-10888293D01*
X7551015Y-10888293D02*
X7541491Y-10926389D01*
X7541491Y-10926389D02*
X7531967Y-10945436D01*
X7531967Y-10945436D02*
X7522444Y-10954960D01*
X7522444Y-10954960D02*
X7503396Y-10964484D01*
X7503396Y-10964484D02*
X7484348Y-10964484D01*
X7484348Y-10964484D02*
X7465301Y-10954960D01*
X7465301Y-10954960D02*
X7455777Y-10945436D01*
X7455777Y-10945436D02*
X7446253Y-10926389D01*
X7446253Y-10926389D02*
X7436729Y-10888293D01*
X7436729Y-10888293D02*
X7436729Y-10840674D01*
X7436729Y-10840674D02*
X7446253Y-10802579D01*
X7446253Y-10802579D02*
X7455777Y-10783531D01*
X7455777Y-10783531D02*
X7465301Y-10774008D01*
X7465301Y-10774008D02*
X7484348Y-10764484D01*
X7741491Y-10964484D02*
X7627206Y-10964484D01*
X7684348Y-10964484D02*
X7684348Y-10764484D01*
X7684348Y-10764484D02*
X7665301Y-10793055D01*
X7665301Y-10793055D02*
X7646253Y-10812103D01*
X7646253Y-10812103D02*
X7627206Y-10821627D01*
X7931967Y-10964484D02*
X7817682Y-10964484D01*
X7874825Y-10964484D02*
X7874825Y-10764484D01*
X7874825Y-10764484D02*
X7855777Y-10793055D01*
X7855777Y-10793055D02*
X7836729Y-10812103D01*
X7836729Y-10812103D02*
X7817682Y-10821627D01*
X8046253Y-10850198D02*
X8027206Y-10840674D01*
X8027206Y-10840674D02*
X8017682Y-10831150D01*
X8017682Y-10831150D02*
X8008158Y-10812103D01*
X8008158Y-10812103D02*
X8008158Y-10802579D01*
X8008158Y-10802579D02*
X8017682Y-10783531D01*
X8017682Y-10783531D02*
X8027206Y-10774008D01*
X8027206Y-10774008D02*
X8046253Y-10764484D01*
X8046253Y-10764484D02*
X8084348Y-10764484D01*
X8084348Y-10764484D02*
X8103396Y-10774008D01*
X8103396Y-10774008D02*
X8112920Y-10783531D01*
X8112920Y-10783531D02*
X8122444Y-10802579D01*
X8122444Y-10802579D02*
X8122444Y-10812103D01*
X8122444Y-10812103D02*
X8112920Y-10831150D01*
X8112920Y-10831150D02*
X8103396Y-10840674D01*
X8103396Y-10840674D02*
X8084348Y-10850198D01*
X8084348Y-10850198D02*
X8046253Y-10850198D01*
X8046253Y-10850198D02*
X8027206Y-10859722D01*
X8027206Y-10859722D02*
X8017682Y-10869246D01*
X8017682Y-10869246D02*
X8008158Y-10888293D01*
X8008158Y-10888293D02*
X8008158Y-10926389D01*
X8008158Y-10926389D02*
X8017682Y-10945436D01*
X8017682Y-10945436D02*
X8027206Y-10954960D01*
X8027206Y-10954960D02*
X8046253Y-10964484D01*
X8046253Y-10964484D02*
X8084348Y-10964484D01*
X8084348Y-10964484D02*
X8103396Y-10954960D01*
X8103396Y-10954960D02*
X8112920Y-10945436D01*
X8112920Y-10945436D02*
X8122444Y-10926389D01*
X8122444Y-10926389D02*
X8122444Y-10888293D01*
X8122444Y-10888293D02*
X8112920Y-10869246D01*
X8112920Y-10869246D02*
X8103396Y-10859722D01*
X8103396Y-10859722D02*
X8084348Y-10850198D01*
X8198634Y-10764484D02*
X8198634Y-10802579D01*
X8274825Y-10764484D02*
X8274825Y-10802579D01*
X8570063Y-11040674D02*
X8560539Y-11031150D01*
X8560539Y-11031150D02*
X8541491Y-11002579D01*
X8541491Y-11002579D02*
X8531968Y-10983531D01*
X8531968Y-10983531D02*
X8522444Y-10954960D01*
X8522444Y-10954960D02*
X8512920Y-10907341D01*
X8512920Y-10907341D02*
X8512920Y-10869246D01*
X8512920Y-10869246D02*
X8522444Y-10821627D01*
X8522444Y-10821627D02*
X8531968Y-10793055D01*
X8531968Y-10793055D02*
X8541491Y-10774008D01*
X8541491Y-10774008D02*
X8560539Y-10745436D01*
X8560539Y-10745436D02*
X8570063Y-10735912D01*
X8674825Y-10850198D02*
X8655777Y-10840674D01*
X8655777Y-10840674D02*
X8646253Y-10831150D01*
X8646253Y-10831150D02*
X8636730Y-10812103D01*
X8636730Y-10812103D02*
X8636730Y-10802579D01*
X8636730Y-10802579D02*
X8646253Y-10783531D01*
X8646253Y-10783531D02*
X8655777Y-10774008D01*
X8655777Y-10774008D02*
X8674825Y-10764484D01*
X8674825Y-10764484D02*
X8712920Y-10764484D01*
X8712920Y-10764484D02*
X8731968Y-10774008D01*
X8731968Y-10774008D02*
X8741491Y-10783531D01*
X8741491Y-10783531D02*
X8751015Y-10802579D01*
X8751015Y-10802579D02*
X8751015Y-10812103D01*
X8751015Y-10812103D02*
X8741491Y-10831150D01*
X8741491Y-10831150D02*
X8731968Y-10840674D01*
X8731968Y-10840674D02*
X8712920Y-10850198D01*
X8712920Y-10850198D02*
X8674825Y-10850198D01*
X8674825Y-10850198D02*
X8655777Y-10859722D01*
X8655777Y-10859722D02*
X8646253Y-10869246D01*
X8646253Y-10869246D02*
X8636730Y-10888293D01*
X8636730Y-10888293D02*
X8636730Y-10926389D01*
X8636730Y-10926389D02*
X8646253Y-10945436D01*
X8646253Y-10945436D02*
X8655777Y-10954960D01*
X8655777Y-10954960D02*
X8674825Y-10964484D01*
X8674825Y-10964484D02*
X8712920Y-10964484D01*
X8712920Y-10964484D02*
X8731968Y-10954960D01*
X8731968Y-10954960D02*
X8741491Y-10945436D01*
X8741491Y-10945436D02*
X8751015Y-10926389D01*
X8751015Y-10926389D02*
X8751015Y-10888293D01*
X8751015Y-10888293D02*
X8741491Y-10869246D01*
X8741491Y-10869246D02*
X8731968Y-10859722D01*
X8731968Y-10859722D02*
X8712920Y-10850198D01*
X8989111Y-10964484D02*
X8989111Y-10764484D01*
X9074825Y-10964484D02*
X9074825Y-10859722D01*
X9074825Y-10859722D02*
X9065301Y-10840674D01*
X9065301Y-10840674D02*
X9046253Y-10831150D01*
X9046253Y-10831150D02*
X9017682Y-10831150D01*
X9017682Y-10831150D02*
X8998634Y-10840674D01*
X8998634Y-10840674D02*
X8989111Y-10850198D01*
X9198634Y-10964484D02*
X9179587Y-10954960D01*
X9179587Y-10954960D02*
X9170063Y-10945436D01*
X9170063Y-10945436D02*
X9160539Y-10926389D01*
X9160539Y-10926389D02*
X9160539Y-10869246D01*
X9160539Y-10869246D02*
X9170063Y-10850198D01*
X9170063Y-10850198D02*
X9179587Y-10840674D01*
X9179587Y-10840674D02*
X9198634Y-10831150D01*
X9198634Y-10831150D02*
X9227206Y-10831150D01*
X9227206Y-10831150D02*
X9246253Y-10840674D01*
X9246253Y-10840674D02*
X9255777Y-10850198D01*
X9255777Y-10850198D02*
X9265301Y-10869246D01*
X9265301Y-10869246D02*
X9265301Y-10926389D01*
X9265301Y-10926389D02*
X9255777Y-10945436D01*
X9255777Y-10945436D02*
X9246253Y-10954960D01*
X9246253Y-10954960D02*
X9227206Y-10964484D01*
X9227206Y-10964484D02*
X9198634Y-10964484D01*
X9379587Y-10964484D02*
X9360539Y-10954960D01*
X9360539Y-10954960D02*
X9351015Y-10935912D01*
X9351015Y-10935912D02*
X9351015Y-10764484D01*
X9531968Y-10954960D02*
X9512920Y-10964484D01*
X9512920Y-10964484D02*
X9474825Y-10964484D01*
X9474825Y-10964484D02*
X9455777Y-10954960D01*
X9455777Y-10954960D02*
X9446253Y-10935912D01*
X9446253Y-10935912D02*
X9446253Y-10859722D01*
X9446253Y-10859722D02*
X9455777Y-10840674D01*
X9455777Y-10840674D02*
X9474825Y-10831150D01*
X9474825Y-10831150D02*
X9512920Y-10831150D01*
X9512920Y-10831150D02*
X9531968Y-10840674D01*
X9531968Y-10840674D02*
X9541492Y-10859722D01*
X9541492Y-10859722D02*
X9541492Y-10878770D01*
X9541492Y-10878770D02*
X9446253Y-10897817D01*
X9617682Y-10954960D02*
X9636730Y-10964484D01*
X9636730Y-10964484D02*
X9674825Y-10964484D01*
X9674825Y-10964484D02*
X9693873Y-10954960D01*
X9693873Y-10954960D02*
X9703396Y-10935912D01*
X9703396Y-10935912D02*
X9703396Y-10926389D01*
X9703396Y-10926389D02*
X9693873Y-10907341D01*
X9693873Y-10907341D02*
X9674825Y-10897817D01*
X9674825Y-10897817D02*
X9646253Y-10897817D01*
X9646253Y-10897817D02*
X9627206Y-10888293D01*
X9627206Y-10888293D02*
X9617682Y-10869246D01*
X9617682Y-10869246D02*
X9617682Y-10859722D01*
X9617682Y-10859722D02*
X9627206Y-10840674D01*
X9627206Y-10840674D02*
X9646253Y-10831150D01*
X9646253Y-10831150D02*
X9674825Y-10831150D01*
X9674825Y-10831150D02*
X9693873Y-10840674D01*
X9770063Y-11040674D02*
X9779587Y-11031150D01*
X9779587Y-11031150D02*
X9798634Y-11002579D01*
X9798634Y-11002579D02*
X9808158Y-10983531D01*
X9808158Y-10983531D02*
X9817682Y-10954960D01*
X9817682Y-10954960D02*
X9827206Y-10907341D01*
X9827206Y-10907341D02*
X9827206Y-10869246D01*
X9827206Y-10869246D02*
X9817682Y-10821627D01*
X9817682Y-10821627D02*
X9808158Y-10793055D01*
X9808158Y-10793055D02*
X9798634Y-10774008D01*
X9798634Y-10774008D02*
X9779587Y-10745436D01*
X9779587Y-10745436D02*
X9770063Y-10735912D01*
D10*
X4989142Y-11151142D02*
X4989142Y-11122858D01*
X4960858Y-11122858D01*
X4960858Y-11151142D01*
X4989142Y-11151142D01*
D11*
X5293872Y-11028484D02*
X5312920Y-11028484D01*
X5312920Y-11028484D02*
X5331967Y-11038008D01*
X5331967Y-11038008D02*
X5341491Y-11047531D01*
X5341491Y-11047531D02*
X5351015Y-11066579D01*
X5351015Y-11066579D02*
X5360539Y-11104674D01*
X5360539Y-11104674D02*
X5360539Y-11152293D01*
X5360539Y-11152293D02*
X5351015Y-11190388D01*
X5351015Y-11190388D02*
X5341491Y-11209436D01*
X5341491Y-11209436D02*
X5331967Y-11218960D01*
X5331967Y-11218960D02*
X5312920Y-11228484D01*
X5312920Y-11228484D02*
X5293872Y-11228484D01*
X5293872Y-11228484D02*
X5274824Y-11218960D01*
X5274824Y-11218960D02*
X5265301Y-11209436D01*
X5265301Y-11209436D02*
X5255777Y-11190388D01*
X5255777Y-11190388D02*
X5246253Y-11152293D01*
X5246253Y-11152293D02*
X5246253Y-11104674D01*
X5246253Y-11104674D02*
X5255777Y-11066579D01*
X5255777Y-11066579D02*
X5265301Y-11047531D01*
X5265301Y-11047531D02*
X5274824Y-11038008D01*
X5274824Y-11038008D02*
X5293872Y-11028484D01*
X5446253Y-11209436D02*
X5455777Y-11218960D01*
X5455777Y-11218960D02*
X5446253Y-11228484D01*
X5446253Y-11228484D02*
X5436729Y-11218960D01*
X5436729Y-11218960D02*
X5446253Y-11209436D01*
X5446253Y-11209436D02*
X5446253Y-11228484D01*
X5627205Y-11095150D02*
X5627205Y-11228484D01*
X5579586Y-11018960D02*
X5531967Y-11161817D01*
X5531967Y-11161817D02*
X5655777Y-11161817D01*
X5770062Y-11028484D02*
X5789110Y-11028484D01*
X5789110Y-11028484D02*
X5808158Y-11038008D01*
X5808158Y-11038008D02*
X5817682Y-11047531D01*
X5817682Y-11047531D02*
X5827205Y-11066579D01*
X5827205Y-11066579D02*
X5836729Y-11104674D01*
X5836729Y-11104674D02*
X5836729Y-11152293D01*
X5836729Y-11152293D02*
X5827205Y-11190388D01*
X5827205Y-11190388D02*
X5817682Y-11209436D01*
X5817682Y-11209436D02*
X5808158Y-11218960D01*
X5808158Y-11218960D02*
X5789110Y-11228484D01*
X5789110Y-11228484D02*
X5770062Y-11228484D01*
X5770062Y-11228484D02*
X5751015Y-11218960D01*
X5751015Y-11218960D02*
X5741491Y-11209436D01*
X5741491Y-11209436D02*
X5731967Y-11190388D01*
X5731967Y-11190388D02*
X5722443Y-11152293D01*
X5722443Y-11152293D02*
X5722443Y-11104674D01*
X5722443Y-11104674D02*
X5731967Y-11066579D01*
X5731967Y-11066579D02*
X5741491Y-11047531D01*
X5741491Y-11047531D02*
X5751015Y-11038008D01*
X5751015Y-11038008D02*
X5770062Y-11028484D01*
X5960539Y-11028484D02*
X5979586Y-11028484D01*
X5979586Y-11028484D02*
X5998634Y-11038008D01*
X5998634Y-11038008D02*
X6008158Y-11047531D01*
X6008158Y-11047531D02*
X6017682Y-11066579D01*
X6017682Y-11066579D02*
X6027205Y-11104674D01*
X6027205Y-11104674D02*
X6027205Y-11152293D01*
X6027205Y-11152293D02*
X6017682Y-11190388D01*
X6017682Y-11190388D02*
X6008158Y-11209436D01*
X6008158Y-11209436D02*
X5998634Y-11218960D01*
X5998634Y-11218960D02*
X5979586Y-11228484D01*
X5979586Y-11228484D02*
X5960539Y-11228484D01*
X5960539Y-11228484D02*
X5941491Y-11218960D01*
X5941491Y-11218960D02*
X5931967Y-11209436D01*
X5931967Y-11209436D02*
X5922443Y-11190388D01*
X5922443Y-11190388D02*
X5912920Y-11152293D01*
X5912920Y-11152293D02*
X5912920Y-11104674D01*
X5912920Y-11104674D02*
X5922443Y-11066579D01*
X5922443Y-11066579D02*
X5931967Y-11047531D01*
X5931967Y-11047531D02*
X5941491Y-11038008D01*
X5941491Y-11038008D02*
X5960539Y-11028484D01*
X6112920Y-11228484D02*
X6112920Y-11095150D01*
X6112920Y-11114198D02*
X6122443Y-11104674D01*
X6122443Y-11104674D02*
X6141491Y-11095150D01*
X6141491Y-11095150D02*
X6170063Y-11095150D01*
X6170063Y-11095150D02*
X6189110Y-11104674D01*
X6189110Y-11104674D02*
X6198634Y-11123722D01*
X6198634Y-11123722D02*
X6198634Y-11228484D01*
X6198634Y-11123722D02*
X6208158Y-11104674D01*
X6208158Y-11104674D02*
X6227205Y-11095150D01*
X6227205Y-11095150D02*
X6255777Y-11095150D01*
X6255777Y-11095150D02*
X6274824Y-11104674D01*
X6274824Y-11104674D02*
X6284348Y-11123722D01*
X6284348Y-11123722D02*
X6284348Y-11228484D01*
X6379586Y-11228484D02*
X6379586Y-11095150D01*
X6379586Y-11114198D02*
X6389110Y-11104674D01*
X6389110Y-11104674D02*
X6408158Y-11095150D01*
X6408158Y-11095150D02*
X6436729Y-11095150D01*
X6436729Y-11095150D02*
X6455777Y-11104674D01*
X6455777Y-11104674D02*
X6465301Y-11123722D01*
X6465301Y-11123722D02*
X6465301Y-11228484D01*
X6465301Y-11123722D02*
X6474824Y-11104674D01*
X6474824Y-11104674D02*
X6493872Y-11095150D01*
X6493872Y-11095150D02*
X6522443Y-11095150D01*
X6522443Y-11095150D02*
X6541491Y-11104674D01*
X6541491Y-11104674D02*
X6551015Y-11123722D01*
X6551015Y-11123722D02*
X6551015Y-11228484D01*
X6941491Y-11018960D02*
X6770063Y-11276103D01*
X7198634Y-11028484D02*
X7217682Y-11028484D01*
X7217682Y-11028484D02*
X7236729Y-11038008D01*
X7236729Y-11038008D02*
X7246253Y-11047531D01*
X7246253Y-11047531D02*
X7255777Y-11066579D01*
X7255777Y-11066579D02*
X7265301Y-11104674D01*
X7265301Y-11104674D02*
X7265301Y-11152293D01*
X7265301Y-11152293D02*
X7255777Y-11190388D01*
X7255777Y-11190388D02*
X7246253Y-11209436D01*
X7246253Y-11209436D02*
X7236729Y-11218960D01*
X7236729Y-11218960D02*
X7217682Y-11228484D01*
X7217682Y-11228484D02*
X7198634Y-11228484D01*
X7198634Y-11228484D02*
X7179586Y-11218960D01*
X7179586Y-11218960D02*
X7170063Y-11209436D01*
X7170063Y-11209436D02*
X7160539Y-11190388D01*
X7160539Y-11190388D02*
X7151015Y-11152293D01*
X7151015Y-11152293D02*
X7151015Y-11104674D01*
X7151015Y-11104674D02*
X7160539Y-11066579D01*
X7160539Y-11066579D02*
X7170063Y-11047531D01*
X7170063Y-11047531D02*
X7179586Y-11038008D01*
X7179586Y-11038008D02*
X7198634Y-11028484D01*
X7351015Y-11209436D02*
X7360539Y-11218960D01*
X7360539Y-11218960D02*
X7351015Y-11228484D01*
X7351015Y-11228484D02*
X7341491Y-11218960D01*
X7341491Y-11218960D02*
X7351015Y-11209436D01*
X7351015Y-11209436D02*
X7351015Y-11228484D01*
X7484348Y-11028484D02*
X7503396Y-11028484D01*
X7503396Y-11028484D02*
X7522444Y-11038008D01*
X7522444Y-11038008D02*
X7531967Y-11047531D01*
X7531967Y-11047531D02*
X7541491Y-11066579D01*
X7541491Y-11066579D02*
X7551015Y-11104674D01*
X7551015Y-11104674D02*
X7551015Y-11152293D01*
X7551015Y-11152293D02*
X7541491Y-11190388D01*
X7541491Y-11190388D02*
X7531967Y-11209436D01*
X7531967Y-11209436D02*
X7522444Y-11218960D01*
X7522444Y-11218960D02*
X7503396Y-11228484D01*
X7503396Y-11228484D02*
X7484348Y-11228484D01*
X7484348Y-11228484D02*
X7465301Y-11218960D01*
X7465301Y-11218960D02*
X7455777Y-11209436D01*
X7455777Y-11209436D02*
X7446253Y-11190388D01*
X7446253Y-11190388D02*
X7436729Y-11152293D01*
X7436729Y-11152293D02*
X7436729Y-11104674D01*
X7436729Y-11104674D02*
X7446253Y-11066579D01*
X7446253Y-11066579D02*
X7455777Y-11047531D01*
X7455777Y-11047531D02*
X7465301Y-11038008D01*
X7465301Y-11038008D02*
X7484348Y-11028484D01*
X7741491Y-11228484D02*
X7627206Y-11228484D01*
X7684348Y-11228484D02*
X7684348Y-11028484D01*
X7684348Y-11028484D02*
X7665301Y-11057055D01*
X7665301Y-11057055D02*
X7646253Y-11076103D01*
X7646253Y-11076103D02*
X7627206Y-11085627D01*
X7922444Y-11028484D02*
X7827206Y-11028484D01*
X7827206Y-11028484D02*
X7817682Y-11123722D01*
X7817682Y-11123722D02*
X7827206Y-11114198D01*
X7827206Y-11114198D02*
X7846253Y-11104674D01*
X7846253Y-11104674D02*
X7893872Y-11104674D01*
X7893872Y-11104674D02*
X7912920Y-11114198D01*
X7912920Y-11114198D02*
X7922444Y-11123722D01*
X7922444Y-11123722D02*
X7931967Y-11142770D01*
X7931967Y-11142770D02*
X7931967Y-11190388D01*
X7931967Y-11190388D02*
X7922444Y-11209436D01*
X7922444Y-11209436D02*
X7912920Y-11218960D01*
X7912920Y-11218960D02*
X7893872Y-11228484D01*
X7893872Y-11228484D02*
X7846253Y-11228484D01*
X7846253Y-11228484D02*
X7827206Y-11218960D01*
X7827206Y-11218960D02*
X7817682Y-11209436D01*
X7998634Y-11028484D02*
X8131967Y-11028484D01*
X8131967Y-11028484D02*
X8046253Y-11228484D01*
X8198634Y-11028484D02*
X8198634Y-11066579D01*
X8274825Y-11028484D02*
X8274825Y-11066579D01*
X8570063Y-11304674D02*
X8560539Y-11295150D01*
X8560539Y-11295150D02*
X8541491Y-11266579D01*
X8541491Y-11266579D02*
X8531968Y-11247531D01*
X8531968Y-11247531D02*
X8522444Y-11218960D01*
X8522444Y-11218960D02*
X8512920Y-11171341D01*
X8512920Y-11171341D02*
X8512920Y-11133246D01*
X8512920Y-11133246D02*
X8522444Y-11085627D01*
X8522444Y-11085627D02*
X8531968Y-11057055D01*
X8531968Y-11057055D02*
X8541491Y-11038008D01*
X8541491Y-11038008D02*
X8560539Y-11009436D01*
X8560539Y-11009436D02*
X8570063Y-10999912D01*
X8636730Y-11047531D02*
X8646253Y-11038008D01*
X8646253Y-11038008D02*
X8665301Y-11028484D01*
X8665301Y-11028484D02*
X8712920Y-11028484D01*
X8712920Y-11028484D02*
X8731968Y-11038008D01*
X8731968Y-11038008D02*
X8741491Y-11047531D01*
X8741491Y-11047531D02*
X8751015Y-11066579D01*
X8751015Y-11066579D02*
X8751015Y-11085627D01*
X8751015Y-11085627D02*
X8741491Y-11114198D01*
X8741491Y-11114198D02*
X8627206Y-11228484D01*
X8627206Y-11228484D02*
X8751015Y-11228484D01*
X8827206Y-11047531D02*
X8836730Y-11038008D01*
X8836730Y-11038008D02*
X8855777Y-11028484D01*
X8855777Y-11028484D02*
X8903396Y-11028484D01*
X8903396Y-11028484D02*
X8922444Y-11038008D01*
X8922444Y-11038008D02*
X8931968Y-11047531D01*
X8931968Y-11047531D02*
X8941491Y-11066579D01*
X8941491Y-11066579D02*
X8941491Y-11085627D01*
X8941491Y-11085627D02*
X8931968Y-11114198D01*
X8931968Y-11114198D02*
X8817682Y-11228484D01*
X8817682Y-11228484D02*
X8941491Y-11228484D01*
X9179587Y-11228484D02*
X9179587Y-11028484D01*
X9265301Y-11228484D02*
X9265301Y-11123722D01*
X9265301Y-11123722D02*
X9255777Y-11104674D01*
X9255777Y-11104674D02*
X9236730Y-11095150D01*
X9236730Y-11095150D02*
X9208158Y-11095150D01*
X9208158Y-11095150D02*
X9189111Y-11104674D01*
X9189111Y-11104674D02*
X9179587Y-11114198D01*
X9389111Y-11228484D02*
X9370063Y-11218960D01*
X9370063Y-11218960D02*
X9360539Y-11209436D01*
X9360539Y-11209436D02*
X9351015Y-11190388D01*
X9351015Y-11190388D02*
X9351015Y-11133246D01*
X9351015Y-11133246D02*
X9360539Y-11114198D01*
X9360539Y-11114198D02*
X9370063Y-11104674D01*
X9370063Y-11104674D02*
X9389111Y-11095150D01*
X9389111Y-11095150D02*
X9417682Y-11095150D01*
X9417682Y-11095150D02*
X9436730Y-11104674D01*
X9436730Y-11104674D02*
X9446253Y-11114198D01*
X9446253Y-11114198D02*
X9455777Y-11133246D01*
X9455777Y-11133246D02*
X9455777Y-11190388D01*
X9455777Y-11190388D02*
X9446253Y-11209436D01*
X9446253Y-11209436D02*
X9436730Y-11218960D01*
X9436730Y-11218960D02*
X9417682Y-11228484D01*
X9417682Y-11228484D02*
X9389111Y-11228484D01*
X9570063Y-11228484D02*
X9551015Y-11218960D01*
X9551015Y-11218960D02*
X9541492Y-11199912D01*
X9541492Y-11199912D02*
X9541492Y-11028484D01*
X9722444Y-11218960D02*
X9703396Y-11228484D01*
X9703396Y-11228484D02*
X9665301Y-11228484D01*
X9665301Y-11228484D02*
X9646253Y-11218960D01*
X9646253Y-11218960D02*
X9636730Y-11199912D01*
X9636730Y-11199912D02*
X9636730Y-11123722D01*
X9636730Y-11123722D02*
X9646253Y-11104674D01*
X9646253Y-11104674D02*
X9665301Y-11095150D01*
X9665301Y-11095150D02*
X9703396Y-11095150D01*
X9703396Y-11095150D02*
X9722444Y-11104674D01*
X9722444Y-11104674D02*
X9731968Y-11123722D01*
X9731968Y-11123722D02*
X9731968Y-11142770D01*
X9731968Y-11142770D02*
X9636730Y-11161817D01*
X9808158Y-11218960D02*
X9827206Y-11228484D01*
X9827206Y-11228484D02*
X9865301Y-11228484D01*
X9865301Y-11228484D02*
X9884349Y-11218960D01*
X9884349Y-11218960D02*
X9893873Y-11199912D01*
X9893873Y-11199912D02*
X9893873Y-11190388D01*
X9893873Y-11190388D02*
X9884349Y-11171341D01*
X9884349Y-11171341D02*
X9865301Y-11161817D01*
X9865301Y-11161817D02*
X9836730Y-11161817D01*
X9836730Y-11161817D02*
X9817682Y-11152293D01*
X9817682Y-11152293D02*
X9808158Y-11133246D01*
X9808158Y-11133246D02*
X9808158Y-11123722D01*
X9808158Y-11123722D02*
X9817682Y-11104674D01*
X9817682Y-11104674D02*
X9836730Y-11095150D01*
X9836730Y-11095150D02*
X9865301Y-11095150D01*
X9865301Y-11095150D02*
X9884349Y-11104674D01*
X9960539Y-11304674D02*
X9970063Y-11295150D01*
X9970063Y-11295150D02*
X9989111Y-11266579D01*
X9989111Y-11266579D02*
X9998634Y-11247531D01*
X9998634Y-11247531D02*
X10008158Y-11218960D01*
X10008158Y-11218960D02*
X10017682Y-11171341D01*
X10017682Y-11171341D02*
X10017682Y-11133246D01*
X10017682Y-11133246D02*
X10008158Y-11085627D01*
X10008158Y-11085627D02*
X9998634Y-11057055D01*
X9998634Y-11057055D02*
X9989111Y-11038008D01*
X9989111Y-11038008D02*
X9970063Y-11009436D01*
X9970063Y-11009436D02*
X9960539Y-10999912D01*
D10*
X4970000Y-11426000D02*
X4995000Y-11401000D01*
X4970000Y-11376000D01*
X4945000Y-11401000D01*
X4970000Y-11426000D01*
D11*
X5293872Y-11292484D02*
X5312920Y-11292484D01*
X5312920Y-11292484D02*
X5331967Y-11302008D01*
X5331967Y-11302008D02*
X5341491Y-11311531D01*
X5341491Y-11311531D02*
X5351015Y-11330579D01*
X5351015Y-11330579D02*
X5360539Y-11368674D01*
X5360539Y-11368674D02*
X5360539Y-11416293D01*
X5360539Y-11416293D02*
X5351015Y-11454388D01*
X5351015Y-11454388D02*
X5341491Y-11473436D01*
X5341491Y-11473436D02*
X5331967Y-11482960D01*
X5331967Y-11482960D02*
X5312920Y-11492484D01*
X5312920Y-11492484D02*
X5293872Y-11492484D01*
X5293872Y-11492484D02*
X5274824Y-11482960D01*
X5274824Y-11482960D02*
X5265301Y-11473436D01*
X5265301Y-11473436D02*
X5255777Y-11454388D01*
X5255777Y-11454388D02*
X5246253Y-11416293D01*
X5246253Y-11416293D02*
X5246253Y-11368674D01*
X5246253Y-11368674D02*
X5255777Y-11330579D01*
X5255777Y-11330579D02*
X5265301Y-11311531D01*
X5265301Y-11311531D02*
X5274824Y-11302008D01*
X5274824Y-11302008D02*
X5293872Y-11292484D01*
X5446253Y-11473436D02*
X5455777Y-11482960D01*
X5455777Y-11482960D02*
X5446253Y-11492484D01*
X5446253Y-11492484D02*
X5436729Y-11482960D01*
X5436729Y-11482960D02*
X5446253Y-11473436D01*
X5446253Y-11473436D02*
X5446253Y-11492484D01*
X5636729Y-11292484D02*
X5541491Y-11292484D01*
X5541491Y-11292484D02*
X5531967Y-11387722D01*
X5531967Y-11387722D02*
X5541491Y-11378198D01*
X5541491Y-11378198D02*
X5560539Y-11368674D01*
X5560539Y-11368674D02*
X5608158Y-11368674D01*
X5608158Y-11368674D02*
X5627205Y-11378198D01*
X5627205Y-11378198D02*
X5636729Y-11387722D01*
X5636729Y-11387722D02*
X5646253Y-11406769D01*
X5646253Y-11406769D02*
X5646253Y-11454388D01*
X5646253Y-11454388D02*
X5636729Y-11473436D01*
X5636729Y-11473436D02*
X5627205Y-11482960D01*
X5627205Y-11482960D02*
X5608158Y-11492484D01*
X5608158Y-11492484D02*
X5560539Y-11492484D01*
X5560539Y-11492484D02*
X5541491Y-11482960D01*
X5541491Y-11482960D02*
X5531967Y-11473436D01*
X5770062Y-11292484D02*
X5789110Y-11292484D01*
X5789110Y-11292484D02*
X5808158Y-11302008D01*
X5808158Y-11302008D02*
X5817682Y-11311531D01*
X5817682Y-11311531D02*
X5827205Y-11330579D01*
X5827205Y-11330579D02*
X5836729Y-11368674D01*
X5836729Y-11368674D02*
X5836729Y-11416293D01*
X5836729Y-11416293D02*
X5827205Y-11454388D01*
X5827205Y-11454388D02*
X5817682Y-11473436D01*
X5817682Y-11473436D02*
X5808158Y-11482960D01*
X5808158Y-11482960D02*
X5789110Y-11492484D01*
X5789110Y-11492484D02*
X5770062Y-11492484D01*
X5770062Y-11492484D02*
X5751015Y-11482960D01*
X5751015Y-11482960D02*
X5741491Y-11473436D01*
X5741491Y-11473436D02*
X5731967Y-11454388D01*
X5731967Y-11454388D02*
X5722443Y-11416293D01*
X5722443Y-11416293D02*
X5722443Y-11368674D01*
X5722443Y-11368674D02*
X5731967Y-11330579D01*
X5731967Y-11330579D02*
X5741491Y-11311531D01*
X5741491Y-11311531D02*
X5751015Y-11302008D01*
X5751015Y-11302008D02*
X5770062Y-11292484D01*
X5960539Y-11292484D02*
X5979586Y-11292484D01*
X5979586Y-11292484D02*
X5998634Y-11302008D01*
X5998634Y-11302008D02*
X6008158Y-11311531D01*
X6008158Y-11311531D02*
X6017682Y-11330579D01*
X6017682Y-11330579D02*
X6027205Y-11368674D01*
X6027205Y-11368674D02*
X6027205Y-11416293D01*
X6027205Y-11416293D02*
X6017682Y-11454388D01*
X6017682Y-11454388D02*
X6008158Y-11473436D01*
X6008158Y-11473436D02*
X5998634Y-11482960D01*
X5998634Y-11482960D02*
X5979586Y-11492484D01*
X5979586Y-11492484D02*
X5960539Y-11492484D01*
X5960539Y-11492484D02*
X5941491Y-11482960D01*
X5941491Y-11482960D02*
X5931967Y-11473436D01*
X5931967Y-11473436D02*
X5922443Y-11454388D01*
X5922443Y-11454388D02*
X5912920Y-11416293D01*
X5912920Y-11416293D02*
X5912920Y-11368674D01*
X5912920Y-11368674D02*
X5922443Y-11330579D01*
X5922443Y-11330579D02*
X5931967Y-11311531D01*
X5931967Y-11311531D02*
X5941491Y-11302008D01*
X5941491Y-11302008D02*
X5960539Y-11292484D01*
X6112920Y-11492484D02*
X6112920Y-11359150D01*
X6112920Y-11378198D02*
X6122443Y-11368674D01*
X6122443Y-11368674D02*
X6141491Y-11359150D01*
X6141491Y-11359150D02*
X6170063Y-11359150D01*
X6170063Y-11359150D02*
X6189110Y-11368674D01*
X6189110Y-11368674D02*
X6198634Y-11387722D01*
X6198634Y-11387722D02*
X6198634Y-11492484D01*
X6198634Y-11387722D02*
X6208158Y-11368674D01*
X6208158Y-11368674D02*
X6227205Y-11359150D01*
X6227205Y-11359150D02*
X6255777Y-11359150D01*
X6255777Y-11359150D02*
X6274824Y-11368674D01*
X6274824Y-11368674D02*
X6284348Y-11387722D01*
X6284348Y-11387722D02*
X6284348Y-11492484D01*
X6379586Y-11492484D02*
X6379586Y-11359150D01*
X6379586Y-11378198D02*
X6389110Y-11368674D01*
X6389110Y-11368674D02*
X6408158Y-11359150D01*
X6408158Y-11359150D02*
X6436729Y-11359150D01*
X6436729Y-11359150D02*
X6455777Y-11368674D01*
X6455777Y-11368674D02*
X6465301Y-11387722D01*
X6465301Y-11387722D02*
X6465301Y-11492484D01*
X6465301Y-11387722D02*
X6474824Y-11368674D01*
X6474824Y-11368674D02*
X6493872Y-11359150D01*
X6493872Y-11359150D02*
X6522443Y-11359150D01*
X6522443Y-11359150D02*
X6541491Y-11368674D01*
X6541491Y-11368674D02*
X6551015Y-11387722D01*
X6551015Y-11387722D02*
X6551015Y-11492484D01*
X6941491Y-11282960D02*
X6770063Y-11540103D01*
X7198634Y-11292484D02*
X7217682Y-11292484D01*
X7217682Y-11292484D02*
X7236729Y-11302008D01*
X7236729Y-11302008D02*
X7246253Y-11311531D01*
X7246253Y-11311531D02*
X7255777Y-11330579D01*
X7255777Y-11330579D02*
X7265301Y-11368674D01*
X7265301Y-11368674D02*
X7265301Y-11416293D01*
X7265301Y-11416293D02*
X7255777Y-11454388D01*
X7255777Y-11454388D02*
X7246253Y-11473436D01*
X7246253Y-11473436D02*
X7236729Y-11482960D01*
X7236729Y-11482960D02*
X7217682Y-11492484D01*
X7217682Y-11492484D02*
X7198634Y-11492484D01*
X7198634Y-11492484D02*
X7179586Y-11482960D01*
X7179586Y-11482960D02*
X7170063Y-11473436D01*
X7170063Y-11473436D02*
X7160539Y-11454388D01*
X7160539Y-11454388D02*
X7151015Y-11416293D01*
X7151015Y-11416293D02*
X7151015Y-11368674D01*
X7151015Y-11368674D02*
X7160539Y-11330579D01*
X7160539Y-11330579D02*
X7170063Y-11311531D01*
X7170063Y-11311531D02*
X7179586Y-11302008D01*
X7179586Y-11302008D02*
X7198634Y-11292484D01*
X7351015Y-11473436D02*
X7360539Y-11482960D01*
X7360539Y-11482960D02*
X7351015Y-11492484D01*
X7351015Y-11492484D02*
X7341491Y-11482960D01*
X7341491Y-11482960D02*
X7351015Y-11473436D01*
X7351015Y-11473436D02*
X7351015Y-11492484D01*
X7484348Y-11292484D02*
X7503396Y-11292484D01*
X7503396Y-11292484D02*
X7522444Y-11302008D01*
X7522444Y-11302008D02*
X7531967Y-11311531D01*
X7531967Y-11311531D02*
X7541491Y-11330579D01*
X7541491Y-11330579D02*
X7551015Y-11368674D01*
X7551015Y-11368674D02*
X7551015Y-11416293D01*
X7551015Y-11416293D02*
X7541491Y-11454388D01*
X7541491Y-11454388D02*
X7531967Y-11473436D01*
X7531967Y-11473436D02*
X7522444Y-11482960D01*
X7522444Y-11482960D02*
X7503396Y-11492484D01*
X7503396Y-11492484D02*
X7484348Y-11492484D01*
X7484348Y-11492484D02*
X7465301Y-11482960D01*
X7465301Y-11482960D02*
X7455777Y-11473436D01*
X7455777Y-11473436D02*
X7446253Y-11454388D01*
X7446253Y-11454388D02*
X7436729Y-11416293D01*
X7436729Y-11416293D02*
X7436729Y-11368674D01*
X7436729Y-11368674D02*
X7446253Y-11330579D01*
X7446253Y-11330579D02*
X7455777Y-11311531D01*
X7455777Y-11311531D02*
X7465301Y-11302008D01*
X7465301Y-11302008D02*
X7484348Y-11292484D01*
X7741491Y-11492484D02*
X7627206Y-11492484D01*
X7684348Y-11492484D02*
X7684348Y-11292484D01*
X7684348Y-11292484D02*
X7665301Y-11321055D01*
X7665301Y-11321055D02*
X7646253Y-11340103D01*
X7646253Y-11340103D02*
X7627206Y-11349627D01*
X7836729Y-11492484D02*
X7874825Y-11492484D01*
X7874825Y-11492484D02*
X7893872Y-11482960D01*
X7893872Y-11482960D02*
X7903396Y-11473436D01*
X7903396Y-11473436D02*
X7922444Y-11444865D01*
X7922444Y-11444865D02*
X7931967Y-11406769D01*
X7931967Y-11406769D02*
X7931967Y-11330579D01*
X7931967Y-11330579D02*
X7922444Y-11311531D01*
X7922444Y-11311531D02*
X7912920Y-11302008D01*
X7912920Y-11302008D02*
X7893872Y-11292484D01*
X7893872Y-11292484D02*
X7855777Y-11292484D01*
X7855777Y-11292484D02*
X7836729Y-11302008D01*
X7836729Y-11302008D02*
X7827206Y-11311531D01*
X7827206Y-11311531D02*
X7817682Y-11330579D01*
X7817682Y-11330579D02*
X7817682Y-11378198D01*
X7817682Y-11378198D02*
X7827206Y-11397246D01*
X7827206Y-11397246D02*
X7836729Y-11406769D01*
X7836729Y-11406769D02*
X7855777Y-11416293D01*
X7855777Y-11416293D02*
X7893872Y-11416293D01*
X7893872Y-11416293D02*
X7912920Y-11406769D01*
X7912920Y-11406769D02*
X7922444Y-11397246D01*
X7922444Y-11397246D02*
X7931967Y-11378198D01*
X7998634Y-11292484D02*
X8131967Y-11292484D01*
X8131967Y-11292484D02*
X8046253Y-11492484D01*
X8198634Y-11292484D02*
X8198634Y-11330579D01*
X8274825Y-11292484D02*
X8274825Y-11330579D01*
X8570063Y-11568674D02*
X8560539Y-11559150D01*
X8560539Y-11559150D02*
X8541491Y-11530579D01*
X8541491Y-11530579D02*
X8531968Y-11511531D01*
X8531968Y-11511531D02*
X8522444Y-11482960D01*
X8522444Y-11482960D02*
X8512920Y-11435341D01*
X8512920Y-11435341D02*
X8512920Y-11397246D01*
X8512920Y-11397246D02*
X8522444Y-11349627D01*
X8522444Y-11349627D02*
X8531968Y-11321055D01*
X8531968Y-11321055D02*
X8541491Y-11302008D01*
X8541491Y-11302008D02*
X8560539Y-11273436D01*
X8560539Y-11273436D02*
X8570063Y-11263912D01*
X8636730Y-11311531D02*
X8646253Y-11302008D01*
X8646253Y-11302008D02*
X8665301Y-11292484D01*
X8665301Y-11292484D02*
X8712920Y-11292484D01*
X8712920Y-11292484D02*
X8731968Y-11302008D01*
X8731968Y-11302008D02*
X8741491Y-11311531D01*
X8741491Y-11311531D02*
X8751015Y-11330579D01*
X8751015Y-11330579D02*
X8751015Y-11349627D01*
X8751015Y-11349627D02*
X8741491Y-11378198D01*
X8741491Y-11378198D02*
X8627206Y-11492484D01*
X8627206Y-11492484D02*
X8751015Y-11492484D01*
X8931968Y-11292484D02*
X8836730Y-11292484D01*
X8836730Y-11292484D02*
X8827206Y-11387722D01*
X8827206Y-11387722D02*
X8836730Y-11378198D01*
X8836730Y-11378198D02*
X8855777Y-11368674D01*
X8855777Y-11368674D02*
X8903396Y-11368674D01*
X8903396Y-11368674D02*
X8922444Y-11378198D01*
X8922444Y-11378198D02*
X8931968Y-11387722D01*
X8931968Y-11387722D02*
X8941491Y-11406769D01*
X8941491Y-11406769D02*
X8941491Y-11454388D01*
X8941491Y-11454388D02*
X8931968Y-11473436D01*
X8931968Y-11473436D02*
X8922444Y-11482960D01*
X8922444Y-11482960D02*
X8903396Y-11492484D01*
X8903396Y-11492484D02*
X8855777Y-11492484D01*
X8855777Y-11492484D02*
X8836730Y-11482960D01*
X8836730Y-11482960D02*
X8827206Y-11473436D01*
X9179587Y-11492484D02*
X9179587Y-11292484D01*
X9265301Y-11492484D02*
X9265301Y-11387722D01*
X9265301Y-11387722D02*
X9255777Y-11368674D01*
X9255777Y-11368674D02*
X9236730Y-11359150D01*
X9236730Y-11359150D02*
X9208158Y-11359150D01*
X9208158Y-11359150D02*
X9189111Y-11368674D01*
X9189111Y-11368674D02*
X9179587Y-11378198D01*
X9389111Y-11492484D02*
X9370063Y-11482960D01*
X9370063Y-11482960D02*
X9360539Y-11473436D01*
X9360539Y-11473436D02*
X9351015Y-11454388D01*
X9351015Y-11454388D02*
X9351015Y-11397246D01*
X9351015Y-11397246D02*
X9360539Y-11378198D01*
X9360539Y-11378198D02*
X9370063Y-11368674D01*
X9370063Y-11368674D02*
X9389111Y-11359150D01*
X9389111Y-11359150D02*
X9417682Y-11359150D01*
X9417682Y-11359150D02*
X9436730Y-11368674D01*
X9436730Y-11368674D02*
X9446253Y-11378198D01*
X9446253Y-11378198D02*
X9455777Y-11397246D01*
X9455777Y-11397246D02*
X9455777Y-11454388D01*
X9455777Y-11454388D02*
X9446253Y-11473436D01*
X9446253Y-11473436D02*
X9436730Y-11482960D01*
X9436730Y-11482960D02*
X9417682Y-11492484D01*
X9417682Y-11492484D02*
X9389111Y-11492484D01*
X9570063Y-11492484D02*
X9551015Y-11482960D01*
X9551015Y-11482960D02*
X9541492Y-11463912D01*
X9541492Y-11463912D02*
X9541492Y-11292484D01*
X9722444Y-11482960D02*
X9703396Y-11492484D01*
X9703396Y-11492484D02*
X9665301Y-11492484D01*
X9665301Y-11492484D02*
X9646253Y-11482960D01*
X9646253Y-11482960D02*
X9636730Y-11463912D01*
X9636730Y-11463912D02*
X9636730Y-11387722D01*
X9636730Y-11387722D02*
X9646253Y-11368674D01*
X9646253Y-11368674D02*
X9665301Y-11359150D01*
X9665301Y-11359150D02*
X9703396Y-11359150D01*
X9703396Y-11359150D02*
X9722444Y-11368674D01*
X9722444Y-11368674D02*
X9731968Y-11387722D01*
X9731968Y-11387722D02*
X9731968Y-11406769D01*
X9731968Y-11406769D02*
X9636730Y-11425817D01*
X9808158Y-11482960D02*
X9827206Y-11492484D01*
X9827206Y-11492484D02*
X9865301Y-11492484D01*
X9865301Y-11492484D02*
X9884349Y-11482960D01*
X9884349Y-11482960D02*
X9893873Y-11463912D01*
X9893873Y-11463912D02*
X9893873Y-11454388D01*
X9893873Y-11454388D02*
X9884349Y-11435341D01*
X9884349Y-11435341D02*
X9865301Y-11425817D01*
X9865301Y-11425817D02*
X9836730Y-11425817D01*
X9836730Y-11425817D02*
X9817682Y-11416293D01*
X9817682Y-11416293D02*
X9808158Y-11397246D01*
X9808158Y-11397246D02*
X9808158Y-11387722D01*
X9808158Y-11387722D02*
X9817682Y-11368674D01*
X9817682Y-11368674D02*
X9836730Y-11359150D01*
X9836730Y-11359150D02*
X9865301Y-11359150D01*
X9865301Y-11359150D02*
X9884349Y-11368674D01*
X9960539Y-11568674D02*
X9970063Y-11559150D01*
X9970063Y-11559150D02*
X9989111Y-11530579D01*
X9989111Y-11530579D02*
X9998634Y-11511531D01*
X9998634Y-11511531D02*
X10008158Y-11482960D01*
X10008158Y-11482960D02*
X10017682Y-11435341D01*
X10017682Y-11435341D02*
X10017682Y-11397246D01*
X10017682Y-11397246D02*
X10008158Y-11349627D01*
X10008158Y-11349627D02*
X9998634Y-11321055D01*
X9998634Y-11321055D02*
X9989111Y-11302008D01*
X9989111Y-11302008D02*
X9970063Y-11273436D01*
X9970063Y-11273436D02*
X9960539Y-11263912D01*
D10*
X4935000Y-11635000D02*
X4995000Y-11695000D01*
X4995000Y-11635000D02*
X4935000Y-11695000D01*
X4995000Y-11665000D02*
G75*
G02*
X4935000Y-11665000I-30000J0D01*
G01*
X4935000Y-11665000D02*
G75*
G02*
X4995000Y-11665000I30000J0D01*
G01*
D11*
X5293872Y-11556484D02*
X5312920Y-11556484D01*
X5312920Y-11556484D02*
X5331967Y-11566008D01*
X5331967Y-11566008D02*
X5341491Y-11575531D01*
X5341491Y-11575531D02*
X5351015Y-11594579D01*
X5351015Y-11594579D02*
X5360539Y-11632674D01*
X5360539Y-11632674D02*
X5360539Y-11680293D01*
X5360539Y-11680293D02*
X5351015Y-11718388D01*
X5351015Y-11718388D02*
X5341491Y-11737436D01*
X5341491Y-11737436D02*
X5331967Y-11746960D01*
X5331967Y-11746960D02*
X5312920Y-11756484D01*
X5312920Y-11756484D02*
X5293872Y-11756484D01*
X5293872Y-11756484D02*
X5274824Y-11746960D01*
X5274824Y-11746960D02*
X5265301Y-11737436D01*
X5265301Y-11737436D02*
X5255777Y-11718388D01*
X5255777Y-11718388D02*
X5246253Y-11680293D01*
X5246253Y-11680293D02*
X5246253Y-11632674D01*
X5246253Y-11632674D02*
X5255777Y-11594579D01*
X5255777Y-11594579D02*
X5265301Y-11575531D01*
X5265301Y-11575531D02*
X5274824Y-11566008D01*
X5274824Y-11566008D02*
X5293872Y-11556484D01*
X5446253Y-11737436D02*
X5455777Y-11746960D01*
X5455777Y-11746960D02*
X5446253Y-11756484D01*
X5446253Y-11756484D02*
X5436729Y-11746960D01*
X5436729Y-11746960D02*
X5446253Y-11737436D01*
X5446253Y-11737436D02*
X5446253Y-11756484D01*
X5627205Y-11556484D02*
X5589110Y-11556484D01*
X5589110Y-11556484D02*
X5570063Y-11566008D01*
X5570063Y-11566008D02*
X5560539Y-11575531D01*
X5560539Y-11575531D02*
X5541491Y-11604103D01*
X5541491Y-11604103D02*
X5531967Y-11642198D01*
X5531967Y-11642198D02*
X5531967Y-11718388D01*
X5531967Y-11718388D02*
X5541491Y-11737436D01*
X5541491Y-11737436D02*
X5551015Y-11746960D01*
X5551015Y-11746960D02*
X5570063Y-11756484D01*
X5570063Y-11756484D02*
X5608158Y-11756484D01*
X5608158Y-11756484D02*
X5627205Y-11746960D01*
X5627205Y-11746960D02*
X5636729Y-11737436D01*
X5636729Y-11737436D02*
X5646253Y-11718388D01*
X5646253Y-11718388D02*
X5646253Y-11670769D01*
X5646253Y-11670769D02*
X5636729Y-11651722D01*
X5636729Y-11651722D02*
X5627205Y-11642198D01*
X5627205Y-11642198D02*
X5608158Y-11632674D01*
X5608158Y-11632674D02*
X5570063Y-11632674D01*
X5570063Y-11632674D02*
X5551015Y-11642198D01*
X5551015Y-11642198D02*
X5541491Y-11651722D01*
X5541491Y-11651722D02*
X5531967Y-11670769D01*
X5770062Y-11556484D02*
X5789110Y-11556484D01*
X5789110Y-11556484D02*
X5808158Y-11566008D01*
X5808158Y-11566008D02*
X5817682Y-11575531D01*
X5817682Y-11575531D02*
X5827205Y-11594579D01*
X5827205Y-11594579D02*
X5836729Y-11632674D01*
X5836729Y-11632674D02*
X5836729Y-11680293D01*
X5836729Y-11680293D02*
X5827205Y-11718388D01*
X5827205Y-11718388D02*
X5817682Y-11737436D01*
X5817682Y-11737436D02*
X5808158Y-11746960D01*
X5808158Y-11746960D02*
X5789110Y-11756484D01*
X5789110Y-11756484D02*
X5770062Y-11756484D01*
X5770062Y-11756484D02*
X5751015Y-11746960D01*
X5751015Y-11746960D02*
X5741491Y-11737436D01*
X5741491Y-11737436D02*
X5731967Y-11718388D01*
X5731967Y-11718388D02*
X5722443Y-11680293D01*
X5722443Y-11680293D02*
X5722443Y-11632674D01*
X5722443Y-11632674D02*
X5731967Y-11594579D01*
X5731967Y-11594579D02*
X5741491Y-11575531D01*
X5741491Y-11575531D02*
X5751015Y-11566008D01*
X5751015Y-11566008D02*
X5770062Y-11556484D01*
X5960539Y-11556484D02*
X5979586Y-11556484D01*
X5979586Y-11556484D02*
X5998634Y-11566008D01*
X5998634Y-11566008D02*
X6008158Y-11575531D01*
X6008158Y-11575531D02*
X6017682Y-11594579D01*
X6017682Y-11594579D02*
X6027205Y-11632674D01*
X6027205Y-11632674D02*
X6027205Y-11680293D01*
X6027205Y-11680293D02*
X6017682Y-11718388D01*
X6017682Y-11718388D02*
X6008158Y-11737436D01*
X6008158Y-11737436D02*
X5998634Y-11746960D01*
X5998634Y-11746960D02*
X5979586Y-11756484D01*
X5979586Y-11756484D02*
X5960539Y-11756484D01*
X5960539Y-11756484D02*
X5941491Y-11746960D01*
X5941491Y-11746960D02*
X5931967Y-11737436D01*
X5931967Y-11737436D02*
X5922443Y-11718388D01*
X5922443Y-11718388D02*
X5912920Y-11680293D01*
X5912920Y-11680293D02*
X5912920Y-11632674D01*
X5912920Y-11632674D02*
X5922443Y-11594579D01*
X5922443Y-11594579D02*
X5931967Y-11575531D01*
X5931967Y-11575531D02*
X5941491Y-11566008D01*
X5941491Y-11566008D02*
X5960539Y-11556484D01*
X6112920Y-11756484D02*
X6112920Y-11623150D01*
X6112920Y-11642198D02*
X6122443Y-11632674D01*
X6122443Y-11632674D02*
X6141491Y-11623150D01*
X6141491Y-11623150D02*
X6170063Y-11623150D01*
X6170063Y-11623150D02*
X6189110Y-11632674D01*
X6189110Y-11632674D02*
X6198634Y-11651722D01*
X6198634Y-11651722D02*
X6198634Y-11756484D01*
X6198634Y-11651722D02*
X6208158Y-11632674D01*
X6208158Y-11632674D02*
X6227205Y-11623150D01*
X6227205Y-11623150D02*
X6255777Y-11623150D01*
X6255777Y-11623150D02*
X6274824Y-11632674D01*
X6274824Y-11632674D02*
X6284348Y-11651722D01*
X6284348Y-11651722D02*
X6284348Y-11756484D01*
X6379586Y-11756484D02*
X6379586Y-11623150D01*
X6379586Y-11642198D02*
X6389110Y-11632674D01*
X6389110Y-11632674D02*
X6408158Y-11623150D01*
X6408158Y-11623150D02*
X6436729Y-11623150D01*
X6436729Y-11623150D02*
X6455777Y-11632674D01*
X6455777Y-11632674D02*
X6465301Y-11651722D01*
X6465301Y-11651722D02*
X6465301Y-11756484D01*
X6465301Y-11651722D02*
X6474824Y-11632674D01*
X6474824Y-11632674D02*
X6493872Y-11623150D01*
X6493872Y-11623150D02*
X6522443Y-11623150D01*
X6522443Y-11623150D02*
X6541491Y-11632674D01*
X6541491Y-11632674D02*
X6551015Y-11651722D01*
X6551015Y-11651722D02*
X6551015Y-11756484D01*
X6941491Y-11546960D02*
X6770063Y-11804103D01*
X7198634Y-11556484D02*
X7217682Y-11556484D01*
X7217682Y-11556484D02*
X7236729Y-11566008D01*
X7236729Y-11566008D02*
X7246253Y-11575531D01*
X7246253Y-11575531D02*
X7255777Y-11594579D01*
X7255777Y-11594579D02*
X7265301Y-11632674D01*
X7265301Y-11632674D02*
X7265301Y-11680293D01*
X7265301Y-11680293D02*
X7255777Y-11718388D01*
X7255777Y-11718388D02*
X7246253Y-11737436D01*
X7246253Y-11737436D02*
X7236729Y-11746960D01*
X7236729Y-11746960D02*
X7217682Y-11756484D01*
X7217682Y-11756484D02*
X7198634Y-11756484D01*
X7198634Y-11756484D02*
X7179586Y-11746960D01*
X7179586Y-11746960D02*
X7170063Y-11737436D01*
X7170063Y-11737436D02*
X7160539Y-11718388D01*
X7160539Y-11718388D02*
X7151015Y-11680293D01*
X7151015Y-11680293D02*
X7151015Y-11632674D01*
X7151015Y-11632674D02*
X7160539Y-11594579D01*
X7160539Y-11594579D02*
X7170063Y-11575531D01*
X7170063Y-11575531D02*
X7179586Y-11566008D01*
X7179586Y-11566008D02*
X7198634Y-11556484D01*
X7351015Y-11737436D02*
X7360539Y-11746960D01*
X7360539Y-11746960D02*
X7351015Y-11756484D01*
X7351015Y-11756484D02*
X7341491Y-11746960D01*
X7341491Y-11746960D02*
X7351015Y-11737436D01*
X7351015Y-11737436D02*
X7351015Y-11756484D01*
X7484348Y-11556484D02*
X7503396Y-11556484D01*
X7503396Y-11556484D02*
X7522444Y-11566008D01*
X7522444Y-11566008D02*
X7531967Y-11575531D01*
X7531967Y-11575531D02*
X7541491Y-11594579D01*
X7541491Y-11594579D02*
X7551015Y-11632674D01*
X7551015Y-11632674D02*
X7551015Y-11680293D01*
X7551015Y-11680293D02*
X7541491Y-11718388D01*
X7541491Y-11718388D02*
X7531967Y-11737436D01*
X7531967Y-11737436D02*
X7522444Y-11746960D01*
X7522444Y-11746960D02*
X7503396Y-11756484D01*
X7503396Y-11756484D02*
X7484348Y-11756484D01*
X7484348Y-11756484D02*
X7465301Y-11746960D01*
X7465301Y-11746960D02*
X7455777Y-11737436D01*
X7455777Y-11737436D02*
X7446253Y-11718388D01*
X7446253Y-11718388D02*
X7436729Y-11680293D01*
X7436729Y-11680293D02*
X7436729Y-11632674D01*
X7436729Y-11632674D02*
X7446253Y-11594579D01*
X7446253Y-11594579D02*
X7455777Y-11575531D01*
X7455777Y-11575531D02*
X7465301Y-11566008D01*
X7465301Y-11566008D02*
X7484348Y-11556484D01*
X7627206Y-11575531D02*
X7636729Y-11566008D01*
X7636729Y-11566008D02*
X7655777Y-11556484D01*
X7655777Y-11556484D02*
X7703396Y-11556484D01*
X7703396Y-11556484D02*
X7722444Y-11566008D01*
X7722444Y-11566008D02*
X7731967Y-11575531D01*
X7731967Y-11575531D02*
X7741491Y-11594579D01*
X7741491Y-11594579D02*
X7741491Y-11613627D01*
X7741491Y-11613627D02*
X7731967Y-11642198D01*
X7731967Y-11642198D02*
X7617682Y-11756484D01*
X7617682Y-11756484D02*
X7741491Y-11756484D01*
X7808158Y-11556484D02*
X7931967Y-11556484D01*
X7931967Y-11556484D02*
X7865301Y-11632674D01*
X7865301Y-11632674D02*
X7893872Y-11632674D01*
X7893872Y-11632674D02*
X7912920Y-11642198D01*
X7912920Y-11642198D02*
X7922444Y-11651722D01*
X7922444Y-11651722D02*
X7931967Y-11670769D01*
X7931967Y-11670769D02*
X7931967Y-11718388D01*
X7931967Y-11718388D02*
X7922444Y-11737436D01*
X7922444Y-11737436D02*
X7912920Y-11746960D01*
X7912920Y-11746960D02*
X7893872Y-11756484D01*
X7893872Y-11756484D02*
X7836729Y-11756484D01*
X7836729Y-11756484D02*
X7817682Y-11746960D01*
X7817682Y-11746960D02*
X7808158Y-11737436D01*
X8103396Y-11556484D02*
X8065301Y-11556484D01*
X8065301Y-11556484D02*
X8046253Y-11566008D01*
X8046253Y-11566008D02*
X8036729Y-11575531D01*
X8036729Y-11575531D02*
X8017682Y-11604103D01*
X8017682Y-11604103D02*
X8008158Y-11642198D01*
X8008158Y-11642198D02*
X8008158Y-11718388D01*
X8008158Y-11718388D02*
X8017682Y-11737436D01*
X8017682Y-11737436D02*
X8027206Y-11746960D01*
X8027206Y-11746960D02*
X8046253Y-11756484D01*
X8046253Y-11756484D02*
X8084348Y-11756484D01*
X8084348Y-11756484D02*
X8103396Y-11746960D01*
X8103396Y-11746960D02*
X8112920Y-11737436D01*
X8112920Y-11737436D02*
X8122444Y-11718388D01*
X8122444Y-11718388D02*
X8122444Y-11670769D01*
X8122444Y-11670769D02*
X8112920Y-11651722D01*
X8112920Y-11651722D02*
X8103396Y-11642198D01*
X8103396Y-11642198D02*
X8084348Y-11632674D01*
X8084348Y-11632674D02*
X8046253Y-11632674D01*
X8046253Y-11632674D02*
X8027206Y-11642198D01*
X8027206Y-11642198D02*
X8017682Y-11651722D01*
X8017682Y-11651722D02*
X8008158Y-11670769D01*
X8198634Y-11556484D02*
X8198634Y-11594579D01*
X8274825Y-11556484D02*
X8274825Y-11594579D01*
X8570063Y-11832674D02*
X8560539Y-11823150D01*
X8560539Y-11823150D02*
X8541491Y-11794579D01*
X8541491Y-11794579D02*
X8531968Y-11775531D01*
X8531968Y-11775531D02*
X8522444Y-11746960D01*
X8522444Y-11746960D02*
X8512920Y-11699341D01*
X8512920Y-11699341D02*
X8512920Y-11661246D01*
X8512920Y-11661246D02*
X8522444Y-11613627D01*
X8522444Y-11613627D02*
X8531968Y-11585055D01*
X8531968Y-11585055D02*
X8541491Y-11566008D01*
X8541491Y-11566008D02*
X8560539Y-11537436D01*
X8560539Y-11537436D02*
X8570063Y-11527912D01*
X8684349Y-11556484D02*
X8703396Y-11556484D01*
X8703396Y-11556484D02*
X8722444Y-11566008D01*
X8722444Y-11566008D02*
X8731968Y-11575531D01*
X8731968Y-11575531D02*
X8741491Y-11594579D01*
X8741491Y-11594579D02*
X8751015Y-11632674D01*
X8751015Y-11632674D02*
X8751015Y-11680293D01*
X8751015Y-11680293D02*
X8741491Y-11718388D01*
X8741491Y-11718388D02*
X8731968Y-11737436D01*
X8731968Y-11737436D02*
X8722444Y-11746960D01*
X8722444Y-11746960D02*
X8703396Y-11756484D01*
X8703396Y-11756484D02*
X8684349Y-11756484D01*
X8684349Y-11756484D02*
X8665301Y-11746960D01*
X8665301Y-11746960D02*
X8655777Y-11737436D01*
X8655777Y-11737436D02*
X8646253Y-11718388D01*
X8646253Y-11718388D02*
X8636730Y-11680293D01*
X8636730Y-11680293D02*
X8636730Y-11632674D01*
X8636730Y-11632674D02*
X8646253Y-11594579D01*
X8646253Y-11594579D02*
X8655777Y-11575531D01*
X8655777Y-11575531D02*
X8665301Y-11566008D01*
X8665301Y-11566008D02*
X8684349Y-11556484D01*
X8989111Y-11756484D02*
X8989111Y-11556484D01*
X9074825Y-11756484D02*
X9074825Y-11651722D01*
X9074825Y-11651722D02*
X9065301Y-11632674D01*
X9065301Y-11632674D02*
X9046253Y-11623150D01*
X9046253Y-11623150D02*
X9017682Y-11623150D01*
X9017682Y-11623150D02*
X8998634Y-11632674D01*
X8998634Y-11632674D02*
X8989111Y-11642198D01*
X9198634Y-11756484D02*
X9179587Y-11746960D01*
X9179587Y-11746960D02*
X9170063Y-11737436D01*
X9170063Y-11737436D02*
X9160539Y-11718388D01*
X9160539Y-11718388D02*
X9160539Y-11661246D01*
X9160539Y-11661246D02*
X9170063Y-11642198D01*
X9170063Y-11642198D02*
X9179587Y-11632674D01*
X9179587Y-11632674D02*
X9198634Y-11623150D01*
X9198634Y-11623150D02*
X9227206Y-11623150D01*
X9227206Y-11623150D02*
X9246253Y-11632674D01*
X9246253Y-11632674D02*
X9255777Y-11642198D01*
X9255777Y-11642198D02*
X9265301Y-11661246D01*
X9265301Y-11661246D02*
X9265301Y-11718388D01*
X9265301Y-11718388D02*
X9255777Y-11737436D01*
X9255777Y-11737436D02*
X9246253Y-11746960D01*
X9246253Y-11746960D02*
X9227206Y-11756484D01*
X9227206Y-11756484D02*
X9198634Y-11756484D01*
X9379587Y-11756484D02*
X9360539Y-11746960D01*
X9360539Y-11746960D02*
X9351015Y-11727912D01*
X9351015Y-11727912D02*
X9351015Y-11556484D01*
X9531968Y-11746960D02*
X9512920Y-11756484D01*
X9512920Y-11756484D02*
X9474825Y-11756484D01*
X9474825Y-11756484D02*
X9455777Y-11746960D01*
X9455777Y-11746960D02*
X9446253Y-11727912D01*
X9446253Y-11727912D02*
X9446253Y-11651722D01*
X9446253Y-11651722D02*
X9455777Y-11632674D01*
X9455777Y-11632674D02*
X9474825Y-11623150D01*
X9474825Y-11623150D02*
X9512920Y-11623150D01*
X9512920Y-11623150D02*
X9531968Y-11632674D01*
X9531968Y-11632674D02*
X9541492Y-11651722D01*
X9541492Y-11651722D02*
X9541492Y-11670769D01*
X9541492Y-11670769D02*
X9446253Y-11689817D01*
X9617682Y-11746960D02*
X9636730Y-11756484D01*
X9636730Y-11756484D02*
X9674825Y-11756484D01*
X9674825Y-11756484D02*
X9693873Y-11746960D01*
X9693873Y-11746960D02*
X9703396Y-11727912D01*
X9703396Y-11727912D02*
X9703396Y-11718388D01*
X9703396Y-11718388D02*
X9693873Y-11699341D01*
X9693873Y-11699341D02*
X9674825Y-11689817D01*
X9674825Y-11689817D02*
X9646253Y-11689817D01*
X9646253Y-11689817D02*
X9627206Y-11680293D01*
X9627206Y-11680293D02*
X9617682Y-11661246D01*
X9617682Y-11661246D02*
X9617682Y-11651722D01*
X9617682Y-11651722D02*
X9627206Y-11632674D01*
X9627206Y-11632674D02*
X9646253Y-11623150D01*
X9646253Y-11623150D02*
X9674825Y-11623150D01*
X9674825Y-11623150D02*
X9693873Y-11632674D01*
X9941492Y-11680293D02*
X10093873Y-11680293D01*
X10017682Y-11756484D02*
X10017682Y-11604103D01*
X10331968Y-11575531D02*
X10341492Y-11566008D01*
X10341492Y-11566008D02*
X10360539Y-11556484D01*
X10360539Y-11556484D02*
X10408158Y-11556484D01*
X10408158Y-11556484D02*
X10427206Y-11566008D01*
X10427206Y-11566008D02*
X10436730Y-11575531D01*
X10436730Y-11575531D02*
X10446254Y-11594579D01*
X10446254Y-11594579D02*
X10446254Y-11613627D01*
X10446254Y-11613627D02*
X10436730Y-11642198D01*
X10436730Y-11642198D02*
X10322444Y-11756484D01*
X10322444Y-11756484D02*
X10446254Y-11756484D01*
X10570063Y-11556484D02*
X10589111Y-11556484D01*
X10589111Y-11556484D02*
X10608158Y-11566008D01*
X10608158Y-11566008D02*
X10617682Y-11575531D01*
X10617682Y-11575531D02*
X10627206Y-11594579D01*
X10627206Y-11594579D02*
X10636730Y-11632674D01*
X10636730Y-11632674D02*
X10636730Y-11680293D01*
X10636730Y-11680293D02*
X10627206Y-11718388D01*
X10627206Y-11718388D02*
X10617682Y-11737436D01*
X10617682Y-11737436D02*
X10608158Y-11746960D01*
X10608158Y-11746960D02*
X10589111Y-11756484D01*
X10589111Y-11756484D02*
X10570063Y-11756484D01*
X10570063Y-11756484D02*
X10551015Y-11746960D01*
X10551015Y-11746960D02*
X10541492Y-11737436D01*
X10541492Y-11737436D02*
X10531968Y-11718388D01*
X10531968Y-11718388D02*
X10522444Y-11680293D01*
X10522444Y-11680293D02*
X10522444Y-11632674D01*
X10522444Y-11632674D02*
X10531968Y-11594579D01*
X10531968Y-11594579D02*
X10541492Y-11575531D01*
X10541492Y-11575531D02*
X10551015Y-11566008D01*
X10551015Y-11566008D02*
X10570063Y-11556484D01*
X10865301Y-11746960D02*
X10884349Y-11756484D01*
X10884349Y-11756484D02*
X10922444Y-11756484D01*
X10922444Y-11756484D02*
X10941492Y-11746960D01*
X10941492Y-11746960D02*
X10951016Y-11727912D01*
X10951016Y-11727912D02*
X10951016Y-11718388D01*
X10951016Y-11718388D02*
X10941492Y-11699341D01*
X10941492Y-11699341D02*
X10922444Y-11689817D01*
X10922444Y-11689817D02*
X10893873Y-11689817D01*
X10893873Y-11689817D02*
X10874825Y-11680293D01*
X10874825Y-11680293D02*
X10865301Y-11661246D01*
X10865301Y-11661246D02*
X10865301Y-11651722D01*
X10865301Y-11651722D02*
X10874825Y-11632674D01*
X10874825Y-11632674D02*
X10893873Y-11623150D01*
X10893873Y-11623150D02*
X10922444Y-11623150D01*
X10922444Y-11623150D02*
X10941492Y-11632674D01*
X11065301Y-11756484D02*
X11046254Y-11746960D01*
X11046254Y-11746960D02*
X11036730Y-11727912D01*
X11036730Y-11727912D02*
X11036730Y-11556484D01*
X11170063Y-11756484D02*
X11151016Y-11746960D01*
X11151016Y-11746960D02*
X11141492Y-11737436D01*
X11141492Y-11737436D02*
X11131968Y-11718388D01*
X11131968Y-11718388D02*
X11131968Y-11661246D01*
X11131968Y-11661246D02*
X11141492Y-11642198D01*
X11141492Y-11642198D02*
X11151016Y-11632674D01*
X11151016Y-11632674D02*
X11170063Y-11623150D01*
X11170063Y-11623150D02*
X11198635Y-11623150D01*
X11198635Y-11623150D02*
X11217682Y-11632674D01*
X11217682Y-11632674D02*
X11227206Y-11642198D01*
X11227206Y-11642198D02*
X11236730Y-11661246D01*
X11236730Y-11661246D02*
X11236730Y-11718388D01*
X11236730Y-11718388D02*
X11227206Y-11737436D01*
X11227206Y-11737436D02*
X11217682Y-11746960D01*
X11217682Y-11746960D02*
X11198635Y-11756484D01*
X11198635Y-11756484D02*
X11170063Y-11756484D01*
X11293873Y-11623150D02*
X11370063Y-11623150D01*
X11322444Y-11556484D02*
X11322444Y-11727912D01*
X11322444Y-11727912D02*
X11331968Y-11746960D01*
X11331968Y-11746960D02*
X11351015Y-11756484D01*
X11351015Y-11756484D02*
X11370063Y-11756484D01*
X11427206Y-11746960D02*
X11446254Y-11756484D01*
X11446254Y-11756484D02*
X11484349Y-11756484D01*
X11484349Y-11756484D02*
X11503396Y-11746960D01*
X11503396Y-11746960D02*
X11512920Y-11727912D01*
X11512920Y-11727912D02*
X11512920Y-11718388D01*
X11512920Y-11718388D02*
X11503396Y-11699341D01*
X11503396Y-11699341D02*
X11484349Y-11689817D01*
X11484349Y-11689817D02*
X11455777Y-11689817D01*
X11455777Y-11689817D02*
X11436730Y-11680293D01*
X11436730Y-11680293D02*
X11427206Y-11661246D01*
X11427206Y-11661246D02*
X11427206Y-11651722D01*
X11427206Y-11651722D02*
X11436730Y-11632674D01*
X11436730Y-11632674D02*
X11455777Y-11623150D01*
X11455777Y-11623150D02*
X11484349Y-11623150D01*
X11484349Y-11623150D02*
X11503396Y-11632674D01*
X11579587Y-11832674D02*
X11589111Y-11823150D01*
X11589111Y-11823150D02*
X11608158Y-11794579D01*
X11608158Y-11794579D02*
X11617682Y-11775531D01*
X11617682Y-11775531D02*
X11627206Y-11746960D01*
X11627206Y-11746960D02*
X11636730Y-11699341D01*
X11636730Y-11699341D02*
X11636730Y-11661246D01*
X11636730Y-11661246D02*
X11627206Y-11613627D01*
X11627206Y-11613627D02*
X11617682Y-11585055D01*
X11617682Y-11585055D02*
X11608158Y-11566008D01*
X11608158Y-11566008D02*
X11589111Y-11537436D01*
X11589111Y-11537436D02*
X11579587Y-11527912D01*
D10*
X4925000Y-11894000D02*
X4995000Y-11964000D01*
X4995000Y-11894000D02*
X4925000Y-11964000D01*
X4960000Y-11894000D02*
X4960000Y-11964000D01*
X4925000Y-11929000D02*
X4995000Y-11929000D01*
D11*
X5293872Y-11820484D02*
X5312920Y-11820484D01*
X5312920Y-11820484D02*
X5331967Y-11830008D01*
X5331967Y-11830008D02*
X5341491Y-11839531D01*
X5341491Y-11839531D02*
X5351015Y-11858579D01*
X5351015Y-11858579D02*
X5360539Y-11896674D01*
X5360539Y-11896674D02*
X5360539Y-11944293D01*
X5360539Y-11944293D02*
X5351015Y-11982388D01*
X5351015Y-11982388D02*
X5341491Y-12001436D01*
X5341491Y-12001436D02*
X5331967Y-12010960D01*
X5331967Y-12010960D02*
X5312920Y-12020484D01*
X5312920Y-12020484D02*
X5293872Y-12020484D01*
X5293872Y-12020484D02*
X5274824Y-12010960D01*
X5274824Y-12010960D02*
X5265301Y-12001436D01*
X5265301Y-12001436D02*
X5255777Y-11982388D01*
X5255777Y-11982388D02*
X5246253Y-11944293D01*
X5246253Y-11944293D02*
X5246253Y-11896674D01*
X5246253Y-11896674D02*
X5255777Y-11858579D01*
X5255777Y-11858579D02*
X5265301Y-11839531D01*
X5265301Y-11839531D02*
X5274824Y-11830008D01*
X5274824Y-11830008D02*
X5293872Y-11820484D01*
X5446253Y-12001436D02*
X5455777Y-12010960D01*
X5455777Y-12010960D02*
X5446253Y-12020484D01*
X5446253Y-12020484D02*
X5436729Y-12010960D01*
X5436729Y-12010960D02*
X5446253Y-12001436D01*
X5446253Y-12001436D02*
X5446253Y-12020484D01*
X5522444Y-11820484D02*
X5655777Y-11820484D01*
X5655777Y-11820484D02*
X5570063Y-12020484D01*
X5770062Y-11820484D02*
X5789110Y-11820484D01*
X5789110Y-11820484D02*
X5808158Y-11830008D01*
X5808158Y-11830008D02*
X5817682Y-11839531D01*
X5817682Y-11839531D02*
X5827205Y-11858579D01*
X5827205Y-11858579D02*
X5836729Y-11896674D01*
X5836729Y-11896674D02*
X5836729Y-11944293D01*
X5836729Y-11944293D02*
X5827205Y-11982388D01*
X5827205Y-11982388D02*
X5817682Y-12001436D01*
X5817682Y-12001436D02*
X5808158Y-12010960D01*
X5808158Y-12010960D02*
X5789110Y-12020484D01*
X5789110Y-12020484D02*
X5770062Y-12020484D01*
X5770062Y-12020484D02*
X5751015Y-12010960D01*
X5751015Y-12010960D02*
X5741491Y-12001436D01*
X5741491Y-12001436D02*
X5731967Y-11982388D01*
X5731967Y-11982388D02*
X5722443Y-11944293D01*
X5722443Y-11944293D02*
X5722443Y-11896674D01*
X5722443Y-11896674D02*
X5731967Y-11858579D01*
X5731967Y-11858579D02*
X5741491Y-11839531D01*
X5741491Y-11839531D02*
X5751015Y-11830008D01*
X5751015Y-11830008D02*
X5770062Y-11820484D01*
X5960539Y-11820484D02*
X5979586Y-11820484D01*
X5979586Y-11820484D02*
X5998634Y-11830008D01*
X5998634Y-11830008D02*
X6008158Y-11839531D01*
X6008158Y-11839531D02*
X6017682Y-11858579D01*
X6017682Y-11858579D02*
X6027205Y-11896674D01*
X6027205Y-11896674D02*
X6027205Y-11944293D01*
X6027205Y-11944293D02*
X6017682Y-11982388D01*
X6017682Y-11982388D02*
X6008158Y-12001436D01*
X6008158Y-12001436D02*
X5998634Y-12010960D01*
X5998634Y-12010960D02*
X5979586Y-12020484D01*
X5979586Y-12020484D02*
X5960539Y-12020484D01*
X5960539Y-12020484D02*
X5941491Y-12010960D01*
X5941491Y-12010960D02*
X5931967Y-12001436D01*
X5931967Y-12001436D02*
X5922443Y-11982388D01*
X5922443Y-11982388D02*
X5912920Y-11944293D01*
X5912920Y-11944293D02*
X5912920Y-11896674D01*
X5912920Y-11896674D02*
X5922443Y-11858579D01*
X5922443Y-11858579D02*
X5931967Y-11839531D01*
X5931967Y-11839531D02*
X5941491Y-11830008D01*
X5941491Y-11830008D02*
X5960539Y-11820484D01*
X6112920Y-12020484D02*
X6112920Y-11887150D01*
X6112920Y-11906198D02*
X6122443Y-11896674D01*
X6122443Y-11896674D02*
X6141491Y-11887150D01*
X6141491Y-11887150D02*
X6170063Y-11887150D01*
X6170063Y-11887150D02*
X6189110Y-11896674D01*
X6189110Y-11896674D02*
X6198634Y-11915722D01*
X6198634Y-11915722D02*
X6198634Y-12020484D01*
X6198634Y-11915722D02*
X6208158Y-11896674D01*
X6208158Y-11896674D02*
X6227205Y-11887150D01*
X6227205Y-11887150D02*
X6255777Y-11887150D01*
X6255777Y-11887150D02*
X6274824Y-11896674D01*
X6274824Y-11896674D02*
X6284348Y-11915722D01*
X6284348Y-11915722D02*
X6284348Y-12020484D01*
X6379586Y-12020484D02*
X6379586Y-11887150D01*
X6379586Y-11906198D02*
X6389110Y-11896674D01*
X6389110Y-11896674D02*
X6408158Y-11887150D01*
X6408158Y-11887150D02*
X6436729Y-11887150D01*
X6436729Y-11887150D02*
X6455777Y-11896674D01*
X6455777Y-11896674D02*
X6465301Y-11915722D01*
X6465301Y-11915722D02*
X6465301Y-12020484D01*
X6465301Y-11915722D02*
X6474824Y-11896674D01*
X6474824Y-11896674D02*
X6493872Y-11887150D01*
X6493872Y-11887150D02*
X6522443Y-11887150D01*
X6522443Y-11887150D02*
X6541491Y-11896674D01*
X6541491Y-11896674D02*
X6551015Y-11915722D01*
X6551015Y-11915722D02*
X6551015Y-12020484D01*
X6941491Y-11810960D02*
X6770063Y-12068103D01*
X7198634Y-11820484D02*
X7217682Y-11820484D01*
X7217682Y-11820484D02*
X7236729Y-11830008D01*
X7236729Y-11830008D02*
X7246253Y-11839531D01*
X7246253Y-11839531D02*
X7255777Y-11858579D01*
X7255777Y-11858579D02*
X7265301Y-11896674D01*
X7265301Y-11896674D02*
X7265301Y-11944293D01*
X7265301Y-11944293D02*
X7255777Y-11982388D01*
X7255777Y-11982388D02*
X7246253Y-12001436D01*
X7246253Y-12001436D02*
X7236729Y-12010960D01*
X7236729Y-12010960D02*
X7217682Y-12020484D01*
X7217682Y-12020484D02*
X7198634Y-12020484D01*
X7198634Y-12020484D02*
X7179586Y-12010960D01*
X7179586Y-12010960D02*
X7170063Y-12001436D01*
X7170063Y-12001436D02*
X7160539Y-11982388D01*
X7160539Y-11982388D02*
X7151015Y-11944293D01*
X7151015Y-11944293D02*
X7151015Y-11896674D01*
X7151015Y-11896674D02*
X7160539Y-11858579D01*
X7160539Y-11858579D02*
X7170063Y-11839531D01*
X7170063Y-11839531D02*
X7179586Y-11830008D01*
X7179586Y-11830008D02*
X7198634Y-11820484D01*
X7351015Y-12001436D02*
X7360539Y-12010960D01*
X7360539Y-12010960D02*
X7351015Y-12020484D01*
X7351015Y-12020484D02*
X7341491Y-12010960D01*
X7341491Y-12010960D02*
X7351015Y-12001436D01*
X7351015Y-12001436D02*
X7351015Y-12020484D01*
X7484348Y-11820484D02*
X7503396Y-11820484D01*
X7503396Y-11820484D02*
X7522444Y-11830008D01*
X7522444Y-11830008D02*
X7531967Y-11839531D01*
X7531967Y-11839531D02*
X7541491Y-11858579D01*
X7541491Y-11858579D02*
X7551015Y-11896674D01*
X7551015Y-11896674D02*
X7551015Y-11944293D01*
X7551015Y-11944293D02*
X7541491Y-11982388D01*
X7541491Y-11982388D02*
X7531967Y-12001436D01*
X7531967Y-12001436D02*
X7522444Y-12010960D01*
X7522444Y-12010960D02*
X7503396Y-12020484D01*
X7503396Y-12020484D02*
X7484348Y-12020484D01*
X7484348Y-12020484D02*
X7465301Y-12010960D01*
X7465301Y-12010960D02*
X7455777Y-12001436D01*
X7455777Y-12001436D02*
X7446253Y-11982388D01*
X7446253Y-11982388D02*
X7436729Y-11944293D01*
X7436729Y-11944293D02*
X7436729Y-11896674D01*
X7436729Y-11896674D02*
X7446253Y-11858579D01*
X7446253Y-11858579D02*
X7455777Y-11839531D01*
X7455777Y-11839531D02*
X7465301Y-11830008D01*
X7465301Y-11830008D02*
X7484348Y-11820484D01*
X7627206Y-11839531D02*
X7636729Y-11830008D01*
X7636729Y-11830008D02*
X7655777Y-11820484D01*
X7655777Y-11820484D02*
X7703396Y-11820484D01*
X7703396Y-11820484D02*
X7722444Y-11830008D01*
X7722444Y-11830008D02*
X7731967Y-11839531D01*
X7731967Y-11839531D02*
X7741491Y-11858579D01*
X7741491Y-11858579D02*
X7741491Y-11877627D01*
X7741491Y-11877627D02*
X7731967Y-11906198D01*
X7731967Y-11906198D02*
X7617682Y-12020484D01*
X7617682Y-12020484D02*
X7741491Y-12020484D01*
X7808158Y-11820484D02*
X7941491Y-11820484D01*
X7941491Y-11820484D02*
X7855777Y-12020484D01*
X8103396Y-11820484D02*
X8065301Y-11820484D01*
X8065301Y-11820484D02*
X8046253Y-11830008D01*
X8046253Y-11830008D02*
X8036729Y-11839531D01*
X8036729Y-11839531D02*
X8017682Y-11868103D01*
X8017682Y-11868103D02*
X8008158Y-11906198D01*
X8008158Y-11906198D02*
X8008158Y-11982388D01*
X8008158Y-11982388D02*
X8017682Y-12001436D01*
X8017682Y-12001436D02*
X8027206Y-12010960D01*
X8027206Y-12010960D02*
X8046253Y-12020484D01*
X8046253Y-12020484D02*
X8084348Y-12020484D01*
X8084348Y-12020484D02*
X8103396Y-12010960D01*
X8103396Y-12010960D02*
X8112920Y-12001436D01*
X8112920Y-12001436D02*
X8122444Y-11982388D01*
X8122444Y-11982388D02*
X8122444Y-11934769D01*
X8122444Y-11934769D02*
X8112920Y-11915722D01*
X8112920Y-11915722D02*
X8103396Y-11906198D01*
X8103396Y-11906198D02*
X8084348Y-11896674D01*
X8084348Y-11896674D02*
X8046253Y-11896674D01*
X8046253Y-11896674D02*
X8027206Y-11906198D01*
X8027206Y-11906198D02*
X8017682Y-11915722D01*
X8017682Y-11915722D02*
X8008158Y-11934769D01*
X8198634Y-11820484D02*
X8198634Y-11858579D01*
X8274825Y-11820484D02*
X8274825Y-11858579D01*
X8570063Y-12096674D02*
X8560539Y-12087150D01*
X8560539Y-12087150D02*
X8541491Y-12058579D01*
X8541491Y-12058579D02*
X8531968Y-12039531D01*
X8531968Y-12039531D02*
X8522444Y-12010960D01*
X8522444Y-12010960D02*
X8512920Y-11963341D01*
X8512920Y-11963341D02*
X8512920Y-11925246D01*
X8512920Y-11925246D02*
X8522444Y-11877627D01*
X8522444Y-11877627D02*
X8531968Y-11849055D01*
X8531968Y-11849055D02*
X8541491Y-11830008D01*
X8541491Y-11830008D02*
X8560539Y-11801436D01*
X8560539Y-11801436D02*
X8570063Y-11791912D01*
X8636730Y-11839531D02*
X8646253Y-11830008D01*
X8646253Y-11830008D02*
X8665301Y-11820484D01*
X8665301Y-11820484D02*
X8712920Y-11820484D01*
X8712920Y-11820484D02*
X8731968Y-11830008D01*
X8731968Y-11830008D02*
X8741491Y-11839531D01*
X8741491Y-11839531D02*
X8751015Y-11858579D01*
X8751015Y-11858579D02*
X8751015Y-11877627D01*
X8751015Y-11877627D02*
X8741491Y-11906198D01*
X8741491Y-11906198D02*
X8627206Y-12020484D01*
X8627206Y-12020484D02*
X8751015Y-12020484D01*
X8989111Y-12020484D02*
X8989111Y-11820484D01*
X9074825Y-12020484D02*
X9074825Y-11915722D01*
X9074825Y-11915722D02*
X9065301Y-11896674D01*
X9065301Y-11896674D02*
X9046253Y-11887150D01*
X9046253Y-11887150D02*
X9017682Y-11887150D01*
X9017682Y-11887150D02*
X8998634Y-11896674D01*
X8998634Y-11896674D02*
X8989111Y-11906198D01*
X9198634Y-12020484D02*
X9179587Y-12010960D01*
X9179587Y-12010960D02*
X9170063Y-12001436D01*
X9170063Y-12001436D02*
X9160539Y-11982388D01*
X9160539Y-11982388D02*
X9160539Y-11925246D01*
X9160539Y-11925246D02*
X9170063Y-11906198D01*
X9170063Y-11906198D02*
X9179587Y-11896674D01*
X9179587Y-11896674D02*
X9198634Y-11887150D01*
X9198634Y-11887150D02*
X9227206Y-11887150D01*
X9227206Y-11887150D02*
X9246253Y-11896674D01*
X9246253Y-11896674D02*
X9255777Y-11906198D01*
X9255777Y-11906198D02*
X9265301Y-11925246D01*
X9265301Y-11925246D02*
X9265301Y-11982388D01*
X9265301Y-11982388D02*
X9255777Y-12001436D01*
X9255777Y-12001436D02*
X9246253Y-12010960D01*
X9246253Y-12010960D02*
X9227206Y-12020484D01*
X9227206Y-12020484D02*
X9198634Y-12020484D01*
X9379587Y-12020484D02*
X9360539Y-12010960D01*
X9360539Y-12010960D02*
X9351015Y-11991912D01*
X9351015Y-11991912D02*
X9351015Y-11820484D01*
X9531968Y-12010960D02*
X9512920Y-12020484D01*
X9512920Y-12020484D02*
X9474825Y-12020484D01*
X9474825Y-12020484D02*
X9455777Y-12010960D01*
X9455777Y-12010960D02*
X9446253Y-11991912D01*
X9446253Y-11991912D02*
X9446253Y-11915722D01*
X9446253Y-11915722D02*
X9455777Y-11896674D01*
X9455777Y-11896674D02*
X9474825Y-11887150D01*
X9474825Y-11887150D02*
X9512920Y-11887150D01*
X9512920Y-11887150D02*
X9531968Y-11896674D01*
X9531968Y-11896674D02*
X9541492Y-11915722D01*
X9541492Y-11915722D02*
X9541492Y-11934769D01*
X9541492Y-11934769D02*
X9446253Y-11953817D01*
X9617682Y-12010960D02*
X9636730Y-12020484D01*
X9636730Y-12020484D02*
X9674825Y-12020484D01*
X9674825Y-12020484D02*
X9693873Y-12010960D01*
X9693873Y-12010960D02*
X9703396Y-11991912D01*
X9703396Y-11991912D02*
X9703396Y-11982388D01*
X9703396Y-11982388D02*
X9693873Y-11963341D01*
X9693873Y-11963341D02*
X9674825Y-11953817D01*
X9674825Y-11953817D02*
X9646253Y-11953817D01*
X9646253Y-11953817D02*
X9627206Y-11944293D01*
X9627206Y-11944293D02*
X9617682Y-11925246D01*
X9617682Y-11925246D02*
X9617682Y-11915722D01*
X9617682Y-11915722D02*
X9627206Y-11896674D01*
X9627206Y-11896674D02*
X9646253Y-11887150D01*
X9646253Y-11887150D02*
X9674825Y-11887150D01*
X9674825Y-11887150D02*
X9693873Y-11896674D01*
X9770063Y-12096674D02*
X9779587Y-12087150D01*
X9779587Y-12087150D02*
X9798634Y-12058579D01*
X9798634Y-12058579D02*
X9808158Y-12039531D01*
X9808158Y-12039531D02*
X9817682Y-12010960D01*
X9817682Y-12010960D02*
X9827206Y-11963341D01*
X9827206Y-11963341D02*
X9827206Y-11925246D01*
X9827206Y-11925246D02*
X9817682Y-11877627D01*
X9817682Y-11877627D02*
X9808158Y-11849055D01*
X9808158Y-11849055D02*
X9798634Y-11830008D01*
X9798634Y-11830008D02*
X9779587Y-11801436D01*
X9779587Y-11801436D02*
X9770063Y-11791912D01*
D10*
X4895000Y-12143000D02*
X4995000Y-12243000D01*
X4995000Y-12143000D02*
X4895000Y-12243000D01*
X4980356Y-12228356D02*
X4980356Y-12157644D01*
X4909645Y-12157644D01*
X4909645Y-12228356D01*
X4980356Y-12228356D01*
D11*
X5360539Y-12284484D02*
X5246253Y-12284484D01*
X5303396Y-12284484D02*
X5303396Y-12084484D01*
X5303396Y-12084484D02*
X5284348Y-12113055D01*
X5284348Y-12113055D02*
X5265301Y-12132103D01*
X5265301Y-12132103D02*
X5246253Y-12141627D01*
X5446253Y-12265436D02*
X5455777Y-12274960D01*
X5455777Y-12274960D02*
X5446253Y-12284484D01*
X5446253Y-12284484D02*
X5436729Y-12274960D01*
X5436729Y-12274960D02*
X5446253Y-12265436D01*
X5446253Y-12265436D02*
X5446253Y-12284484D01*
X5579586Y-12084484D02*
X5598634Y-12084484D01*
X5598634Y-12084484D02*
X5617682Y-12094008D01*
X5617682Y-12094008D02*
X5627205Y-12103531D01*
X5627205Y-12103531D02*
X5636729Y-12122579D01*
X5636729Y-12122579D02*
X5646253Y-12160674D01*
X5646253Y-12160674D02*
X5646253Y-12208293D01*
X5646253Y-12208293D02*
X5636729Y-12246388D01*
X5636729Y-12246388D02*
X5627205Y-12265436D01*
X5627205Y-12265436D02*
X5617682Y-12274960D01*
X5617682Y-12274960D02*
X5598634Y-12284484D01*
X5598634Y-12284484D02*
X5579586Y-12284484D01*
X5579586Y-12284484D02*
X5560539Y-12274960D01*
X5560539Y-12274960D02*
X5551015Y-12265436D01*
X5551015Y-12265436D02*
X5541491Y-12246388D01*
X5541491Y-12246388D02*
X5531967Y-12208293D01*
X5531967Y-12208293D02*
X5531967Y-12160674D01*
X5531967Y-12160674D02*
X5541491Y-12122579D01*
X5541491Y-12122579D02*
X5551015Y-12103531D01*
X5551015Y-12103531D02*
X5560539Y-12094008D01*
X5560539Y-12094008D02*
X5579586Y-12084484D01*
X5770062Y-12084484D02*
X5789110Y-12084484D01*
X5789110Y-12084484D02*
X5808158Y-12094008D01*
X5808158Y-12094008D02*
X5817682Y-12103531D01*
X5817682Y-12103531D02*
X5827205Y-12122579D01*
X5827205Y-12122579D02*
X5836729Y-12160674D01*
X5836729Y-12160674D02*
X5836729Y-12208293D01*
X5836729Y-12208293D02*
X5827205Y-12246388D01*
X5827205Y-12246388D02*
X5817682Y-12265436D01*
X5817682Y-12265436D02*
X5808158Y-12274960D01*
X5808158Y-12274960D02*
X5789110Y-12284484D01*
X5789110Y-12284484D02*
X5770062Y-12284484D01*
X5770062Y-12284484D02*
X5751015Y-12274960D01*
X5751015Y-12274960D02*
X5741491Y-12265436D01*
X5741491Y-12265436D02*
X5731967Y-12246388D01*
X5731967Y-12246388D02*
X5722443Y-12208293D01*
X5722443Y-12208293D02*
X5722443Y-12160674D01*
X5722443Y-12160674D02*
X5731967Y-12122579D01*
X5731967Y-12122579D02*
X5741491Y-12103531D01*
X5741491Y-12103531D02*
X5751015Y-12094008D01*
X5751015Y-12094008D02*
X5770062Y-12084484D01*
X5960539Y-12084484D02*
X5979586Y-12084484D01*
X5979586Y-12084484D02*
X5998634Y-12094008D01*
X5998634Y-12094008D02*
X6008158Y-12103531D01*
X6008158Y-12103531D02*
X6017682Y-12122579D01*
X6017682Y-12122579D02*
X6027205Y-12160674D01*
X6027205Y-12160674D02*
X6027205Y-12208293D01*
X6027205Y-12208293D02*
X6017682Y-12246388D01*
X6017682Y-12246388D02*
X6008158Y-12265436D01*
X6008158Y-12265436D02*
X5998634Y-12274960D01*
X5998634Y-12274960D02*
X5979586Y-12284484D01*
X5979586Y-12284484D02*
X5960539Y-12284484D01*
X5960539Y-12284484D02*
X5941491Y-12274960D01*
X5941491Y-12274960D02*
X5931967Y-12265436D01*
X5931967Y-12265436D02*
X5922443Y-12246388D01*
X5922443Y-12246388D02*
X5912920Y-12208293D01*
X5912920Y-12208293D02*
X5912920Y-12160674D01*
X5912920Y-12160674D02*
X5922443Y-12122579D01*
X5922443Y-12122579D02*
X5931967Y-12103531D01*
X5931967Y-12103531D02*
X5941491Y-12094008D01*
X5941491Y-12094008D02*
X5960539Y-12084484D01*
X6112920Y-12284484D02*
X6112920Y-12151150D01*
X6112920Y-12170198D02*
X6122443Y-12160674D01*
X6122443Y-12160674D02*
X6141491Y-12151150D01*
X6141491Y-12151150D02*
X6170063Y-12151150D01*
X6170063Y-12151150D02*
X6189110Y-12160674D01*
X6189110Y-12160674D02*
X6198634Y-12179722D01*
X6198634Y-12179722D02*
X6198634Y-12284484D01*
X6198634Y-12179722D02*
X6208158Y-12160674D01*
X6208158Y-12160674D02*
X6227205Y-12151150D01*
X6227205Y-12151150D02*
X6255777Y-12151150D01*
X6255777Y-12151150D02*
X6274824Y-12160674D01*
X6274824Y-12160674D02*
X6284348Y-12179722D01*
X6284348Y-12179722D02*
X6284348Y-12284484D01*
X6379586Y-12284484D02*
X6379586Y-12151150D01*
X6379586Y-12170198D02*
X6389110Y-12160674D01*
X6389110Y-12160674D02*
X6408158Y-12151150D01*
X6408158Y-12151150D02*
X6436729Y-12151150D01*
X6436729Y-12151150D02*
X6455777Y-12160674D01*
X6455777Y-12160674D02*
X6465301Y-12179722D01*
X6465301Y-12179722D02*
X6465301Y-12284484D01*
X6465301Y-12179722D02*
X6474824Y-12160674D01*
X6474824Y-12160674D02*
X6493872Y-12151150D01*
X6493872Y-12151150D02*
X6522443Y-12151150D01*
X6522443Y-12151150D02*
X6541491Y-12160674D01*
X6541491Y-12160674D02*
X6551015Y-12179722D01*
X6551015Y-12179722D02*
X6551015Y-12284484D01*
X6941491Y-12074960D02*
X6770063Y-12332103D01*
X7198634Y-12084484D02*
X7217682Y-12084484D01*
X7217682Y-12084484D02*
X7236729Y-12094008D01*
X7236729Y-12094008D02*
X7246253Y-12103531D01*
X7246253Y-12103531D02*
X7255777Y-12122579D01*
X7255777Y-12122579D02*
X7265301Y-12160674D01*
X7265301Y-12160674D02*
X7265301Y-12208293D01*
X7265301Y-12208293D02*
X7255777Y-12246388D01*
X7255777Y-12246388D02*
X7246253Y-12265436D01*
X7246253Y-12265436D02*
X7236729Y-12274960D01*
X7236729Y-12274960D02*
X7217682Y-12284484D01*
X7217682Y-12284484D02*
X7198634Y-12284484D01*
X7198634Y-12284484D02*
X7179586Y-12274960D01*
X7179586Y-12274960D02*
X7170063Y-12265436D01*
X7170063Y-12265436D02*
X7160539Y-12246388D01*
X7160539Y-12246388D02*
X7151015Y-12208293D01*
X7151015Y-12208293D02*
X7151015Y-12160674D01*
X7151015Y-12160674D02*
X7160539Y-12122579D01*
X7160539Y-12122579D02*
X7170063Y-12103531D01*
X7170063Y-12103531D02*
X7179586Y-12094008D01*
X7179586Y-12094008D02*
X7198634Y-12084484D01*
X7351015Y-12265436D02*
X7360539Y-12274960D01*
X7360539Y-12274960D02*
X7351015Y-12284484D01*
X7351015Y-12284484D02*
X7341491Y-12274960D01*
X7341491Y-12274960D02*
X7351015Y-12265436D01*
X7351015Y-12265436D02*
X7351015Y-12284484D01*
X7484348Y-12084484D02*
X7503396Y-12084484D01*
X7503396Y-12084484D02*
X7522444Y-12094008D01*
X7522444Y-12094008D02*
X7531967Y-12103531D01*
X7531967Y-12103531D02*
X7541491Y-12122579D01*
X7541491Y-12122579D02*
X7551015Y-12160674D01*
X7551015Y-12160674D02*
X7551015Y-12208293D01*
X7551015Y-12208293D02*
X7541491Y-12246388D01*
X7541491Y-12246388D02*
X7531967Y-12265436D01*
X7531967Y-12265436D02*
X7522444Y-12274960D01*
X7522444Y-12274960D02*
X7503396Y-12284484D01*
X7503396Y-12284484D02*
X7484348Y-12284484D01*
X7484348Y-12284484D02*
X7465301Y-12274960D01*
X7465301Y-12274960D02*
X7455777Y-12265436D01*
X7455777Y-12265436D02*
X7446253Y-12246388D01*
X7446253Y-12246388D02*
X7436729Y-12208293D01*
X7436729Y-12208293D02*
X7436729Y-12160674D01*
X7436729Y-12160674D02*
X7446253Y-12122579D01*
X7446253Y-12122579D02*
X7455777Y-12103531D01*
X7455777Y-12103531D02*
X7465301Y-12094008D01*
X7465301Y-12094008D02*
X7484348Y-12084484D01*
X7617682Y-12084484D02*
X7741491Y-12084484D01*
X7741491Y-12084484D02*
X7674825Y-12160674D01*
X7674825Y-12160674D02*
X7703396Y-12160674D01*
X7703396Y-12160674D02*
X7722444Y-12170198D01*
X7722444Y-12170198D02*
X7731967Y-12179722D01*
X7731967Y-12179722D02*
X7741491Y-12198769D01*
X7741491Y-12198769D02*
X7741491Y-12246388D01*
X7741491Y-12246388D02*
X7731967Y-12265436D01*
X7731967Y-12265436D02*
X7722444Y-12274960D01*
X7722444Y-12274960D02*
X7703396Y-12284484D01*
X7703396Y-12284484D02*
X7646253Y-12284484D01*
X7646253Y-12284484D02*
X7627206Y-12274960D01*
X7627206Y-12274960D02*
X7617682Y-12265436D01*
X7836729Y-12284484D02*
X7874825Y-12284484D01*
X7874825Y-12284484D02*
X7893872Y-12274960D01*
X7893872Y-12274960D02*
X7903396Y-12265436D01*
X7903396Y-12265436D02*
X7922444Y-12236865D01*
X7922444Y-12236865D02*
X7931967Y-12198769D01*
X7931967Y-12198769D02*
X7931967Y-12122579D01*
X7931967Y-12122579D02*
X7922444Y-12103531D01*
X7922444Y-12103531D02*
X7912920Y-12094008D01*
X7912920Y-12094008D02*
X7893872Y-12084484D01*
X7893872Y-12084484D02*
X7855777Y-12084484D01*
X7855777Y-12084484D02*
X7836729Y-12094008D01*
X7836729Y-12094008D02*
X7827206Y-12103531D01*
X7827206Y-12103531D02*
X7817682Y-12122579D01*
X7817682Y-12122579D02*
X7817682Y-12170198D01*
X7817682Y-12170198D02*
X7827206Y-12189246D01*
X7827206Y-12189246D02*
X7836729Y-12198769D01*
X7836729Y-12198769D02*
X7855777Y-12208293D01*
X7855777Y-12208293D02*
X7893872Y-12208293D01*
X7893872Y-12208293D02*
X7912920Y-12198769D01*
X7912920Y-12198769D02*
X7922444Y-12189246D01*
X7922444Y-12189246D02*
X7931967Y-12170198D01*
X8103396Y-12151150D02*
X8103396Y-12284484D01*
X8055777Y-12074960D02*
X8008158Y-12217817D01*
X8008158Y-12217817D02*
X8131967Y-12217817D01*
X8198634Y-12084484D02*
X8198634Y-12122579D01*
X8274825Y-12084484D02*
X8274825Y-12122579D01*
X8570063Y-12360674D02*
X8560539Y-12351150D01*
X8560539Y-12351150D02*
X8541491Y-12322579D01*
X8541491Y-12322579D02*
X8531968Y-12303531D01*
X8531968Y-12303531D02*
X8522444Y-12274960D01*
X8522444Y-12274960D02*
X8512920Y-12227341D01*
X8512920Y-12227341D02*
X8512920Y-12189246D01*
X8512920Y-12189246D02*
X8522444Y-12141627D01*
X8522444Y-12141627D02*
X8531968Y-12113055D01*
X8531968Y-12113055D02*
X8541491Y-12094008D01*
X8541491Y-12094008D02*
X8560539Y-12065436D01*
X8560539Y-12065436D02*
X8570063Y-12055912D01*
X8684349Y-12084484D02*
X8703396Y-12084484D01*
X8703396Y-12084484D02*
X8722444Y-12094008D01*
X8722444Y-12094008D02*
X8731968Y-12103531D01*
X8731968Y-12103531D02*
X8741491Y-12122579D01*
X8741491Y-12122579D02*
X8751015Y-12160674D01*
X8751015Y-12160674D02*
X8751015Y-12208293D01*
X8751015Y-12208293D02*
X8741491Y-12246388D01*
X8741491Y-12246388D02*
X8731968Y-12265436D01*
X8731968Y-12265436D02*
X8722444Y-12274960D01*
X8722444Y-12274960D02*
X8703396Y-12284484D01*
X8703396Y-12284484D02*
X8684349Y-12284484D01*
X8684349Y-12284484D02*
X8665301Y-12274960D01*
X8665301Y-12274960D02*
X8655777Y-12265436D01*
X8655777Y-12265436D02*
X8646253Y-12246388D01*
X8646253Y-12246388D02*
X8636730Y-12208293D01*
X8636730Y-12208293D02*
X8636730Y-12160674D01*
X8636730Y-12160674D02*
X8646253Y-12122579D01*
X8646253Y-12122579D02*
X8655777Y-12103531D01*
X8655777Y-12103531D02*
X8665301Y-12094008D01*
X8665301Y-12094008D02*
X8684349Y-12084484D01*
X8989111Y-12284484D02*
X8989111Y-12084484D01*
X9074825Y-12284484D02*
X9074825Y-12179722D01*
X9074825Y-12179722D02*
X9065301Y-12160674D01*
X9065301Y-12160674D02*
X9046253Y-12151150D01*
X9046253Y-12151150D02*
X9017682Y-12151150D01*
X9017682Y-12151150D02*
X8998634Y-12160674D01*
X8998634Y-12160674D02*
X8989111Y-12170198D01*
X9198634Y-12284484D02*
X9179587Y-12274960D01*
X9179587Y-12274960D02*
X9170063Y-12265436D01*
X9170063Y-12265436D02*
X9160539Y-12246388D01*
X9160539Y-12246388D02*
X9160539Y-12189246D01*
X9160539Y-12189246D02*
X9170063Y-12170198D01*
X9170063Y-12170198D02*
X9179587Y-12160674D01*
X9179587Y-12160674D02*
X9198634Y-12151150D01*
X9198634Y-12151150D02*
X9227206Y-12151150D01*
X9227206Y-12151150D02*
X9246253Y-12160674D01*
X9246253Y-12160674D02*
X9255777Y-12170198D01*
X9255777Y-12170198D02*
X9265301Y-12189246D01*
X9265301Y-12189246D02*
X9265301Y-12246388D01*
X9265301Y-12246388D02*
X9255777Y-12265436D01*
X9255777Y-12265436D02*
X9246253Y-12274960D01*
X9246253Y-12274960D02*
X9227206Y-12284484D01*
X9227206Y-12284484D02*
X9198634Y-12284484D01*
X9379587Y-12284484D02*
X9360539Y-12274960D01*
X9360539Y-12274960D02*
X9351015Y-12255912D01*
X9351015Y-12255912D02*
X9351015Y-12084484D01*
X9531968Y-12274960D02*
X9512920Y-12284484D01*
X9512920Y-12284484D02*
X9474825Y-12284484D01*
X9474825Y-12284484D02*
X9455777Y-12274960D01*
X9455777Y-12274960D02*
X9446253Y-12255912D01*
X9446253Y-12255912D02*
X9446253Y-12179722D01*
X9446253Y-12179722D02*
X9455777Y-12160674D01*
X9455777Y-12160674D02*
X9474825Y-12151150D01*
X9474825Y-12151150D02*
X9512920Y-12151150D01*
X9512920Y-12151150D02*
X9531968Y-12160674D01*
X9531968Y-12160674D02*
X9541492Y-12179722D01*
X9541492Y-12179722D02*
X9541492Y-12198769D01*
X9541492Y-12198769D02*
X9446253Y-12217817D01*
X9617682Y-12274960D02*
X9636730Y-12284484D01*
X9636730Y-12284484D02*
X9674825Y-12284484D01*
X9674825Y-12284484D02*
X9693873Y-12274960D01*
X9693873Y-12274960D02*
X9703396Y-12255912D01*
X9703396Y-12255912D02*
X9703396Y-12246388D01*
X9703396Y-12246388D02*
X9693873Y-12227341D01*
X9693873Y-12227341D02*
X9674825Y-12217817D01*
X9674825Y-12217817D02*
X9646253Y-12217817D01*
X9646253Y-12217817D02*
X9627206Y-12208293D01*
X9627206Y-12208293D02*
X9617682Y-12189246D01*
X9617682Y-12189246D02*
X9617682Y-12179722D01*
X9617682Y-12179722D02*
X9627206Y-12160674D01*
X9627206Y-12160674D02*
X9646253Y-12151150D01*
X9646253Y-12151150D02*
X9674825Y-12151150D01*
X9674825Y-12151150D02*
X9693873Y-12160674D01*
X9941492Y-12208293D02*
X10093873Y-12208293D01*
X10017682Y-12284484D02*
X10017682Y-12132103D01*
X10322444Y-12084484D02*
X10446254Y-12084484D01*
X10446254Y-12084484D02*
X10379587Y-12160674D01*
X10379587Y-12160674D02*
X10408158Y-12160674D01*
X10408158Y-12160674D02*
X10427206Y-12170198D01*
X10427206Y-12170198D02*
X10436730Y-12179722D01*
X10436730Y-12179722D02*
X10446254Y-12198769D01*
X10446254Y-12198769D02*
X10446254Y-12246388D01*
X10446254Y-12246388D02*
X10436730Y-12265436D01*
X10436730Y-12265436D02*
X10427206Y-12274960D01*
X10427206Y-12274960D02*
X10408158Y-12284484D01*
X10408158Y-12284484D02*
X10351015Y-12284484D01*
X10351015Y-12284484D02*
X10331968Y-12274960D01*
X10331968Y-12274960D02*
X10322444Y-12265436D01*
X10674825Y-12274960D02*
X10693873Y-12284484D01*
X10693873Y-12284484D02*
X10731968Y-12284484D01*
X10731968Y-12284484D02*
X10751016Y-12274960D01*
X10751016Y-12274960D02*
X10760539Y-12255912D01*
X10760539Y-12255912D02*
X10760539Y-12246388D01*
X10760539Y-12246388D02*
X10751016Y-12227341D01*
X10751016Y-12227341D02*
X10731968Y-12217817D01*
X10731968Y-12217817D02*
X10703396Y-12217817D01*
X10703396Y-12217817D02*
X10684349Y-12208293D01*
X10684349Y-12208293D02*
X10674825Y-12189246D01*
X10674825Y-12189246D02*
X10674825Y-12179722D01*
X10674825Y-12179722D02*
X10684349Y-12160674D01*
X10684349Y-12160674D02*
X10703396Y-12151150D01*
X10703396Y-12151150D02*
X10731968Y-12151150D01*
X10731968Y-12151150D02*
X10751016Y-12160674D01*
X10874825Y-12284484D02*
X10855777Y-12274960D01*
X10855777Y-12274960D02*
X10846254Y-12255912D01*
X10846254Y-12255912D02*
X10846254Y-12084484D01*
X10979587Y-12284484D02*
X10960539Y-12274960D01*
X10960539Y-12274960D02*
X10951016Y-12265436D01*
X10951016Y-12265436D02*
X10941492Y-12246388D01*
X10941492Y-12246388D02*
X10941492Y-12189246D01*
X10941492Y-12189246D02*
X10951016Y-12170198D01*
X10951016Y-12170198D02*
X10960539Y-12160674D01*
X10960539Y-12160674D02*
X10979587Y-12151150D01*
X10979587Y-12151150D02*
X11008158Y-12151150D01*
X11008158Y-12151150D02*
X11027206Y-12160674D01*
X11027206Y-12160674D02*
X11036730Y-12170198D01*
X11036730Y-12170198D02*
X11046254Y-12189246D01*
X11046254Y-12189246D02*
X11046254Y-12246388D01*
X11046254Y-12246388D02*
X11036730Y-12265436D01*
X11036730Y-12265436D02*
X11027206Y-12274960D01*
X11027206Y-12274960D02*
X11008158Y-12284484D01*
X11008158Y-12284484D02*
X10979587Y-12284484D01*
X11103397Y-12151150D02*
X11179587Y-12151150D01*
X11131968Y-12084484D02*
X11131968Y-12255912D01*
X11131968Y-12255912D02*
X11141492Y-12274960D01*
X11141492Y-12274960D02*
X11160539Y-12284484D01*
X11160539Y-12284484D02*
X11179587Y-12284484D01*
X11236730Y-12274960D02*
X11255777Y-12284484D01*
X11255777Y-12284484D02*
X11293873Y-12284484D01*
X11293873Y-12284484D02*
X11312920Y-12274960D01*
X11312920Y-12274960D02*
X11322444Y-12255912D01*
X11322444Y-12255912D02*
X11322444Y-12246388D01*
X11322444Y-12246388D02*
X11312920Y-12227341D01*
X11312920Y-12227341D02*
X11293873Y-12217817D01*
X11293873Y-12217817D02*
X11265301Y-12217817D01*
X11265301Y-12217817D02*
X11246254Y-12208293D01*
X11246254Y-12208293D02*
X11236730Y-12189246D01*
X11236730Y-12189246D02*
X11236730Y-12179722D01*
X11236730Y-12179722D02*
X11246254Y-12160674D01*
X11246254Y-12160674D02*
X11265301Y-12151150D01*
X11265301Y-12151150D02*
X11293873Y-12151150D01*
X11293873Y-12151150D02*
X11312920Y-12160674D01*
X11389111Y-12360674D02*
X11398635Y-12351150D01*
X11398635Y-12351150D02*
X11417682Y-12322579D01*
X11417682Y-12322579D02*
X11427206Y-12303531D01*
X11427206Y-12303531D02*
X11436730Y-12274960D01*
X11436730Y-12274960D02*
X11446254Y-12227341D01*
X11446254Y-12227341D02*
X11446254Y-12189246D01*
X11446254Y-12189246D02*
X11436730Y-12141627D01*
X11436730Y-12141627D02*
X11427206Y-12113055D01*
X11427206Y-12113055D02*
X11417682Y-12094008D01*
X11417682Y-12094008D02*
X11398635Y-12065436D01*
X11398635Y-12065436D02*
X11389111Y-12055912D01*
X4795000Y-12357000D02*
X4995000Y-12557000D01*
X4995000Y-12357000D02*
X4795000Y-12557000D01*
X4895000Y-12557000D02*
X4995000Y-12457000D01*
X4895000Y-12357000D01*
X4795000Y-12457000D01*
X4895000Y-12557000D01*
X5236729Y-12348484D02*
X5360539Y-12348484D01*
X5360539Y-12348484D02*
X5293872Y-12424674D01*
X5293872Y-12424674D02*
X5322444Y-12424674D01*
X5322444Y-12424674D02*
X5341491Y-12434198D01*
X5341491Y-12434198D02*
X5351015Y-12443722D01*
X5351015Y-12443722D02*
X5360539Y-12462769D01*
X5360539Y-12462769D02*
X5360539Y-12510388D01*
X5360539Y-12510388D02*
X5351015Y-12529436D01*
X5351015Y-12529436D02*
X5341491Y-12538960D01*
X5341491Y-12538960D02*
X5322444Y-12548484D01*
X5322444Y-12548484D02*
X5265301Y-12548484D01*
X5265301Y-12548484D02*
X5246253Y-12538960D01*
X5246253Y-12538960D02*
X5236729Y-12529436D01*
X5446253Y-12529436D02*
X5455777Y-12538960D01*
X5455777Y-12538960D02*
X5446253Y-12548484D01*
X5446253Y-12548484D02*
X5436729Y-12538960D01*
X5436729Y-12538960D02*
X5446253Y-12529436D01*
X5446253Y-12529436D02*
X5446253Y-12548484D01*
X5531967Y-12367531D02*
X5541491Y-12358008D01*
X5541491Y-12358008D02*
X5560539Y-12348484D01*
X5560539Y-12348484D02*
X5608158Y-12348484D01*
X5608158Y-12348484D02*
X5627205Y-12358008D01*
X5627205Y-12358008D02*
X5636729Y-12367531D01*
X5636729Y-12367531D02*
X5646253Y-12386579D01*
X5646253Y-12386579D02*
X5646253Y-12405627D01*
X5646253Y-12405627D02*
X5636729Y-12434198D01*
X5636729Y-12434198D02*
X5522444Y-12548484D01*
X5522444Y-12548484D02*
X5646253Y-12548484D01*
X5770062Y-12348484D02*
X5789110Y-12348484D01*
X5789110Y-12348484D02*
X5808158Y-12358008D01*
X5808158Y-12358008D02*
X5817682Y-12367531D01*
X5817682Y-12367531D02*
X5827205Y-12386579D01*
X5827205Y-12386579D02*
X5836729Y-12424674D01*
X5836729Y-12424674D02*
X5836729Y-12472293D01*
X5836729Y-12472293D02*
X5827205Y-12510388D01*
X5827205Y-12510388D02*
X5817682Y-12529436D01*
X5817682Y-12529436D02*
X5808158Y-12538960D01*
X5808158Y-12538960D02*
X5789110Y-12548484D01*
X5789110Y-12548484D02*
X5770062Y-12548484D01*
X5770062Y-12548484D02*
X5751015Y-12538960D01*
X5751015Y-12538960D02*
X5741491Y-12529436D01*
X5741491Y-12529436D02*
X5731967Y-12510388D01*
X5731967Y-12510388D02*
X5722443Y-12472293D01*
X5722443Y-12472293D02*
X5722443Y-12424674D01*
X5722443Y-12424674D02*
X5731967Y-12386579D01*
X5731967Y-12386579D02*
X5741491Y-12367531D01*
X5741491Y-12367531D02*
X5751015Y-12358008D01*
X5751015Y-12358008D02*
X5770062Y-12348484D01*
X5960539Y-12348484D02*
X5979586Y-12348484D01*
X5979586Y-12348484D02*
X5998634Y-12358008D01*
X5998634Y-12358008D02*
X6008158Y-12367531D01*
X6008158Y-12367531D02*
X6017682Y-12386579D01*
X6017682Y-12386579D02*
X6027205Y-12424674D01*
X6027205Y-12424674D02*
X6027205Y-12472293D01*
X6027205Y-12472293D02*
X6017682Y-12510388D01*
X6017682Y-12510388D02*
X6008158Y-12529436D01*
X6008158Y-12529436D02*
X5998634Y-12538960D01*
X5998634Y-12538960D02*
X5979586Y-12548484D01*
X5979586Y-12548484D02*
X5960539Y-12548484D01*
X5960539Y-12548484D02*
X5941491Y-12538960D01*
X5941491Y-12538960D02*
X5931967Y-12529436D01*
X5931967Y-12529436D02*
X5922443Y-12510388D01*
X5922443Y-12510388D02*
X5912920Y-12472293D01*
X5912920Y-12472293D02*
X5912920Y-12424674D01*
X5912920Y-12424674D02*
X5922443Y-12386579D01*
X5922443Y-12386579D02*
X5931967Y-12367531D01*
X5931967Y-12367531D02*
X5941491Y-12358008D01*
X5941491Y-12358008D02*
X5960539Y-12348484D01*
X6112920Y-12548484D02*
X6112920Y-12415150D01*
X6112920Y-12434198D02*
X6122443Y-12424674D01*
X6122443Y-12424674D02*
X6141491Y-12415150D01*
X6141491Y-12415150D02*
X6170063Y-12415150D01*
X6170063Y-12415150D02*
X6189110Y-12424674D01*
X6189110Y-12424674D02*
X6198634Y-12443722D01*
X6198634Y-12443722D02*
X6198634Y-12548484D01*
X6198634Y-12443722D02*
X6208158Y-12424674D01*
X6208158Y-12424674D02*
X6227205Y-12415150D01*
X6227205Y-12415150D02*
X6255777Y-12415150D01*
X6255777Y-12415150D02*
X6274824Y-12424674D01*
X6274824Y-12424674D02*
X6284348Y-12443722D01*
X6284348Y-12443722D02*
X6284348Y-12548484D01*
X6379586Y-12548484D02*
X6379586Y-12415150D01*
X6379586Y-12434198D02*
X6389110Y-12424674D01*
X6389110Y-12424674D02*
X6408158Y-12415150D01*
X6408158Y-12415150D02*
X6436729Y-12415150D01*
X6436729Y-12415150D02*
X6455777Y-12424674D01*
X6455777Y-12424674D02*
X6465301Y-12443722D01*
X6465301Y-12443722D02*
X6465301Y-12548484D01*
X6465301Y-12443722D02*
X6474824Y-12424674D01*
X6474824Y-12424674D02*
X6493872Y-12415150D01*
X6493872Y-12415150D02*
X6522443Y-12415150D01*
X6522443Y-12415150D02*
X6541491Y-12424674D01*
X6541491Y-12424674D02*
X6551015Y-12443722D01*
X6551015Y-12443722D02*
X6551015Y-12548484D01*
X6941491Y-12338960D02*
X6770063Y-12596103D01*
X7198634Y-12348484D02*
X7217682Y-12348484D01*
X7217682Y-12348484D02*
X7236729Y-12358008D01*
X7236729Y-12358008D02*
X7246253Y-12367531D01*
X7246253Y-12367531D02*
X7255777Y-12386579D01*
X7255777Y-12386579D02*
X7265301Y-12424674D01*
X7265301Y-12424674D02*
X7265301Y-12472293D01*
X7265301Y-12472293D02*
X7255777Y-12510388D01*
X7255777Y-12510388D02*
X7246253Y-12529436D01*
X7246253Y-12529436D02*
X7236729Y-12538960D01*
X7236729Y-12538960D02*
X7217682Y-12548484D01*
X7217682Y-12548484D02*
X7198634Y-12548484D01*
X7198634Y-12548484D02*
X7179586Y-12538960D01*
X7179586Y-12538960D02*
X7170063Y-12529436D01*
X7170063Y-12529436D02*
X7160539Y-12510388D01*
X7160539Y-12510388D02*
X7151015Y-12472293D01*
X7151015Y-12472293D02*
X7151015Y-12424674D01*
X7151015Y-12424674D02*
X7160539Y-12386579D01*
X7160539Y-12386579D02*
X7170063Y-12367531D01*
X7170063Y-12367531D02*
X7179586Y-12358008D01*
X7179586Y-12358008D02*
X7198634Y-12348484D01*
X7351015Y-12529436D02*
X7360539Y-12538960D01*
X7360539Y-12538960D02*
X7351015Y-12548484D01*
X7351015Y-12548484D02*
X7341491Y-12538960D01*
X7341491Y-12538960D02*
X7351015Y-12529436D01*
X7351015Y-12529436D02*
X7351015Y-12548484D01*
X7551015Y-12548484D02*
X7436729Y-12548484D01*
X7493872Y-12548484D02*
X7493872Y-12348484D01*
X7493872Y-12348484D02*
X7474825Y-12377055D01*
X7474825Y-12377055D02*
X7455777Y-12396103D01*
X7455777Y-12396103D02*
X7436729Y-12405627D01*
X7627206Y-12367531D02*
X7636729Y-12358008D01*
X7636729Y-12358008D02*
X7655777Y-12348484D01*
X7655777Y-12348484D02*
X7703396Y-12348484D01*
X7703396Y-12348484D02*
X7722444Y-12358008D01*
X7722444Y-12358008D02*
X7731967Y-12367531D01*
X7731967Y-12367531D02*
X7741491Y-12386579D01*
X7741491Y-12386579D02*
X7741491Y-12405627D01*
X7741491Y-12405627D02*
X7731967Y-12434198D01*
X7731967Y-12434198D02*
X7617682Y-12548484D01*
X7617682Y-12548484D02*
X7741491Y-12548484D01*
X7912920Y-12348484D02*
X7874825Y-12348484D01*
X7874825Y-12348484D02*
X7855777Y-12358008D01*
X7855777Y-12358008D02*
X7846253Y-12367531D01*
X7846253Y-12367531D02*
X7827206Y-12396103D01*
X7827206Y-12396103D02*
X7817682Y-12434198D01*
X7817682Y-12434198D02*
X7817682Y-12510388D01*
X7817682Y-12510388D02*
X7827206Y-12529436D01*
X7827206Y-12529436D02*
X7836729Y-12538960D01*
X7836729Y-12538960D02*
X7855777Y-12548484D01*
X7855777Y-12548484D02*
X7893872Y-12548484D01*
X7893872Y-12548484D02*
X7912920Y-12538960D01*
X7912920Y-12538960D02*
X7922444Y-12529436D01*
X7922444Y-12529436D02*
X7931967Y-12510388D01*
X7931967Y-12510388D02*
X7931967Y-12462769D01*
X7931967Y-12462769D02*
X7922444Y-12443722D01*
X7922444Y-12443722D02*
X7912920Y-12434198D01*
X7912920Y-12434198D02*
X7893872Y-12424674D01*
X7893872Y-12424674D02*
X7855777Y-12424674D01*
X7855777Y-12424674D02*
X7836729Y-12434198D01*
X7836729Y-12434198D02*
X7827206Y-12443722D01*
X7827206Y-12443722D02*
X7817682Y-12462769D01*
X8055777Y-12348484D02*
X8074825Y-12348484D01*
X8074825Y-12348484D02*
X8093872Y-12358008D01*
X8093872Y-12358008D02*
X8103396Y-12367531D01*
X8103396Y-12367531D02*
X8112920Y-12386579D01*
X8112920Y-12386579D02*
X8122444Y-12424674D01*
X8122444Y-12424674D02*
X8122444Y-12472293D01*
X8122444Y-12472293D02*
X8112920Y-12510388D01*
X8112920Y-12510388D02*
X8103396Y-12529436D01*
X8103396Y-12529436D02*
X8093872Y-12538960D01*
X8093872Y-12538960D02*
X8074825Y-12548484D01*
X8074825Y-12548484D02*
X8055777Y-12548484D01*
X8055777Y-12548484D02*
X8036729Y-12538960D01*
X8036729Y-12538960D02*
X8027206Y-12529436D01*
X8027206Y-12529436D02*
X8017682Y-12510388D01*
X8017682Y-12510388D02*
X8008158Y-12472293D01*
X8008158Y-12472293D02*
X8008158Y-12424674D01*
X8008158Y-12424674D02*
X8017682Y-12386579D01*
X8017682Y-12386579D02*
X8027206Y-12367531D01*
X8027206Y-12367531D02*
X8036729Y-12358008D01*
X8036729Y-12358008D02*
X8055777Y-12348484D01*
X8198634Y-12348484D02*
X8198634Y-12386579D01*
X8274825Y-12348484D02*
X8274825Y-12386579D01*
X8570063Y-12624674D02*
X8560539Y-12615150D01*
X8560539Y-12615150D02*
X8541491Y-12586579D01*
X8541491Y-12586579D02*
X8531968Y-12567531D01*
X8531968Y-12567531D02*
X8522444Y-12538960D01*
X8522444Y-12538960D02*
X8512920Y-12491341D01*
X8512920Y-12491341D02*
X8512920Y-12453246D01*
X8512920Y-12453246D02*
X8522444Y-12405627D01*
X8522444Y-12405627D02*
X8531968Y-12377055D01*
X8531968Y-12377055D02*
X8541491Y-12358008D01*
X8541491Y-12358008D02*
X8560539Y-12329436D01*
X8560539Y-12329436D02*
X8570063Y-12319912D01*
X8627206Y-12348484D02*
X8760539Y-12348484D01*
X8760539Y-12348484D02*
X8674825Y-12548484D01*
X8989111Y-12548484D02*
X8989111Y-12348484D01*
X9074825Y-12548484D02*
X9074825Y-12443722D01*
X9074825Y-12443722D02*
X9065301Y-12424674D01*
X9065301Y-12424674D02*
X9046253Y-12415150D01*
X9046253Y-12415150D02*
X9017682Y-12415150D01*
X9017682Y-12415150D02*
X8998634Y-12424674D01*
X8998634Y-12424674D02*
X8989111Y-12434198D01*
X9198634Y-12548484D02*
X9179587Y-12538960D01*
X9179587Y-12538960D02*
X9170063Y-12529436D01*
X9170063Y-12529436D02*
X9160539Y-12510388D01*
X9160539Y-12510388D02*
X9160539Y-12453246D01*
X9160539Y-12453246D02*
X9170063Y-12434198D01*
X9170063Y-12434198D02*
X9179587Y-12424674D01*
X9179587Y-12424674D02*
X9198634Y-12415150D01*
X9198634Y-12415150D02*
X9227206Y-12415150D01*
X9227206Y-12415150D02*
X9246253Y-12424674D01*
X9246253Y-12424674D02*
X9255777Y-12434198D01*
X9255777Y-12434198D02*
X9265301Y-12453246D01*
X9265301Y-12453246D02*
X9265301Y-12510388D01*
X9265301Y-12510388D02*
X9255777Y-12529436D01*
X9255777Y-12529436D02*
X9246253Y-12538960D01*
X9246253Y-12538960D02*
X9227206Y-12548484D01*
X9227206Y-12548484D02*
X9198634Y-12548484D01*
X9379587Y-12548484D02*
X9360539Y-12538960D01*
X9360539Y-12538960D02*
X9351015Y-12519912D01*
X9351015Y-12519912D02*
X9351015Y-12348484D01*
X9531968Y-12538960D02*
X9512920Y-12548484D01*
X9512920Y-12548484D02*
X9474825Y-12548484D01*
X9474825Y-12548484D02*
X9455777Y-12538960D01*
X9455777Y-12538960D02*
X9446253Y-12519912D01*
X9446253Y-12519912D02*
X9446253Y-12443722D01*
X9446253Y-12443722D02*
X9455777Y-12424674D01*
X9455777Y-12424674D02*
X9474825Y-12415150D01*
X9474825Y-12415150D02*
X9512920Y-12415150D01*
X9512920Y-12415150D02*
X9531968Y-12424674D01*
X9531968Y-12424674D02*
X9541492Y-12443722D01*
X9541492Y-12443722D02*
X9541492Y-12462769D01*
X9541492Y-12462769D02*
X9446253Y-12481817D01*
X9617682Y-12538960D02*
X9636730Y-12548484D01*
X9636730Y-12548484D02*
X9674825Y-12548484D01*
X9674825Y-12548484D02*
X9693873Y-12538960D01*
X9693873Y-12538960D02*
X9703396Y-12519912D01*
X9703396Y-12519912D02*
X9703396Y-12510388D01*
X9703396Y-12510388D02*
X9693873Y-12491341D01*
X9693873Y-12491341D02*
X9674825Y-12481817D01*
X9674825Y-12481817D02*
X9646253Y-12481817D01*
X9646253Y-12481817D02*
X9627206Y-12472293D01*
X9627206Y-12472293D02*
X9617682Y-12453246D01*
X9617682Y-12453246D02*
X9617682Y-12443722D01*
X9617682Y-12443722D02*
X9627206Y-12424674D01*
X9627206Y-12424674D02*
X9646253Y-12415150D01*
X9646253Y-12415150D02*
X9674825Y-12415150D01*
X9674825Y-12415150D02*
X9693873Y-12424674D01*
X9770063Y-12624674D02*
X9779587Y-12615150D01*
X9779587Y-12615150D02*
X9798634Y-12586579D01*
X9798634Y-12586579D02*
X9808158Y-12567531D01*
X9808158Y-12567531D02*
X9817682Y-12538960D01*
X9817682Y-12538960D02*
X9827206Y-12491341D01*
X9827206Y-12491341D02*
X9827206Y-12453246D01*
X9827206Y-12453246D02*
X9817682Y-12405627D01*
X9817682Y-12405627D02*
X9808158Y-12377055D01*
X9808158Y-12377055D02*
X9798634Y-12358008D01*
X9798634Y-12358008D02*
X9779587Y-12329436D01*
X9779587Y-12329436D02*
X9770063Y-12319912D01*
X10131968Y-12624674D02*
X10122444Y-12615150D01*
X10122444Y-12615150D02*
X10103396Y-12586579D01*
X10103396Y-12586579D02*
X10093873Y-12567531D01*
X10093873Y-12567531D02*
X10084349Y-12538960D01*
X10084349Y-12538960D02*
X10074825Y-12491341D01*
X10074825Y-12491341D02*
X10074825Y-12453246D01*
X10074825Y-12453246D02*
X10084349Y-12405627D01*
X10084349Y-12405627D02*
X10093873Y-12377055D01*
X10093873Y-12377055D02*
X10103396Y-12358008D01*
X10103396Y-12358008D02*
X10122444Y-12329436D01*
X10122444Y-12329436D02*
X10131968Y-12319912D01*
X10208158Y-12415150D02*
X10208158Y-12548484D01*
X10208158Y-12434198D02*
X10217682Y-12424674D01*
X10217682Y-12424674D02*
X10236730Y-12415150D01*
X10236730Y-12415150D02*
X10265301Y-12415150D01*
X10265301Y-12415150D02*
X10284349Y-12424674D01*
X10284349Y-12424674D02*
X10293873Y-12443722D01*
X10293873Y-12443722D02*
X10293873Y-12548484D01*
X10417682Y-12548484D02*
X10398634Y-12538960D01*
X10398634Y-12538960D02*
X10389111Y-12529436D01*
X10389111Y-12529436D02*
X10379587Y-12510388D01*
X10379587Y-12510388D02*
X10379587Y-12453246D01*
X10379587Y-12453246D02*
X10389111Y-12434198D01*
X10389111Y-12434198D02*
X10398634Y-12424674D01*
X10398634Y-12424674D02*
X10417682Y-12415150D01*
X10417682Y-12415150D02*
X10446254Y-12415150D01*
X10446254Y-12415150D02*
X10465301Y-12424674D01*
X10465301Y-12424674D02*
X10474825Y-12434198D01*
X10474825Y-12434198D02*
X10484349Y-12453246D01*
X10484349Y-12453246D02*
X10484349Y-12510388D01*
X10484349Y-12510388D02*
X10474825Y-12529436D01*
X10474825Y-12529436D02*
X10465301Y-12538960D01*
X10465301Y-12538960D02*
X10446254Y-12548484D01*
X10446254Y-12548484D02*
X10417682Y-12548484D01*
X10541492Y-12415150D02*
X10617682Y-12415150D01*
X10570063Y-12348484D02*
X10570063Y-12519912D01*
X10570063Y-12519912D02*
X10579587Y-12538960D01*
X10579587Y-12538960D02*
X10598634Y-12548484D01*
X10598634Y-12548484D02*
X10617682Y-12548484D01*
X10836730Y-12415150D02*
X10836730Y-12615150D01*
X10836730Y-12424674D02*
X10855777Y-12415150D01*
X10855777Y-12415150D02*
X10893873Y-12415150D01*
X10893873Y-12415150D02*
X10912920Y-12424674D01*
X10912920Y-12424674D02*
X10922444Y-12434198D01*
X10922444Y-12434198D02*
X10931968Y-12453246D01*
X10931968Y-12453246D02*
X10931968Y-12510388D01*
X10931968Y-12510388D02*
X10922444Y-12529436D01*
X10922444Y-12529436D02*
X10912920Y-12538960D01*
X10912920Y-12538960D02*
X10893873Y-12548484D01*
X10893873Y-12548484D02*
X10855777Y-12548484D01*
X10855777Y-12548484D02*
X10836730Y-12538960D01*
X11046254Y-12548484D02*
X11027206Y-12538960D01*
X11027206Y-12538960D02*
X11017682Y-12519912D01*
X11017682Y-12519912D02*
X11017682Y-12348484D01*
X11208158Y-12548484D02*
X11208158Y-12443722D01*
X11208158Y-12443722D02*
X11198634Y-12424674D01*
X11198634Y-12424674D02*
X11179587Y-12415150D01*
X11179587Y-12415150D02*
X11141492Y-12415150D01*
X11141492Y-12415150D02*
X11122444Y-12424674D01*
X11208158Y-12538960D02*
X11189111Y-12548484D01*
X11189111Y-12548484D02*
X11141492Y-12548484D01*
X11141492Y-12548484D02*
X11122444Y-12538960D01*
X11122444Y-12538960D02*
X11112920Y-12519912D01*
X11112920Y-12519912D02*
X11112920Y-12500865D01*
X11112920Y-12500865D02*
X11122444Y-12481817D01*
X11122444Y-12481817D02*
X11141492Y-12472293D01*
X11141492Y-12472293D02*
X11189111Y-12472293D01*
X11189111Y-12472293D02*
X11208158Y-12462769D01*
X11274825Y-12415150D02*
X11351015Y-12415150D01*
X11303396Y-12348484D02*
X11303396Y-12519912D01*
X11303396Y-12519912D02*
X11312920Y-12538960D01*
X11312920Y-12538960D02*
X11331968Y-12548484D01*
X11331968Y-12548484D02*
X11351015Y-12548484D01*
X11493873Y-12538960D02*
X11474825Y-12548484D01*
X11474825Y-12548484D02*
X11436730Y-12548484D01*
X11436730Y-12548484D02*
X11417682Y-12538960D01*
X11417682Y-12538960D02*
X11408158Y-12519912D01*
X11408158Y-12519912D02*
X11408158Y-12443722D01*
X11408158Y-12443722D02*
X11417682Y-12424674D01*
X11417682Y-12424674D02*
X11436730Y-12415150D01*
X11436730Y-12415150D02*
X11474825Y-12415150D01*
X11474825Y-12415150D02*
X11493873Y-12424674D01*
X11493873Y-12424674D02*
X11503396Y-12443722D01*
X11503396Y-12443722D02*
X11503396Y-12462769D01*
X11503396Y-12462769D02*
X11408158Y-12481817D01*
X11674825Y-12548484D02*
X11674825Y-12348484D01*
X11674825Y-12538960D02*
X11655777Y-12548484D01*
X11655777Y-12548484D02*
X11617682Y-12548484D01*
X11617682Y-12548484D02*
X11598634Y-12538960D01*
X11598634Y-12538960D02*
X11589111Y-12529436D01*
X11589111Y-12529436D02*
X11579587Y-12510388D01*
X11579587Y-12510388D02*
X11579587Y-12453246D01*
X11579587Y-12453246D02*
X11589111Y-12434198D01*
X11589111Y-12434198D02*
X11598634Y-12424674D01*
X11598634Y-12424674D02*
X11617682Y-12415150D01*
X11617682Y-12415150D02*
X11655777Y-12415150D01*
X11655777Y-12415150D02*
X11674825Y-12424674D01*
X11751015Y-12624674D02*
X11760539Y-12615150D01*
X11760539Y-12615150D02*
X11779587Y-12586579D01*
X11779587Y-12586579D02*
X11789111Y-12567531D01*
X11789111Y-12567531D02*
X11798634Y-12538960D01*
X11798634Y-12538960D02*
X11808158Y-12491341D01*
X11808158Y-12491341D02*
X11808158Y-12453246D01*
X11808158Y-12453246D02*
X11798634Y-12405627D01*
X11798634Y-12405627D02*
X11789111Y-12377055D01*
X11789111Y-12377055D02*
X11779587Y-12358008D01*
X11779587Y-12358008D02*
X11760539Y-12329436D01*
X11760539Y-12329436D02*
X11751015Y-12319912D01*
M02*
